<svg xmlns="http://www.w3.org/2000/svg" width="62" height="62" viewBox="0 0 62 62">
  <g id="API_Access" data-name="API Access" transform="translate(-196 -1449.533)">
    <g id="Group_23559" data-name="Group 23559" transform="translate(1.359 -1.641)">
      <g id="Ellipse_942" data-name="Ellipse 942" transform="translate(194.641 1451.174)" fill="none" stroke="#e65f46" stroke-width="1">
        <circle cx="31" cy="31" r="31" stroke="none"/>
        <circle cx="31" cy="31" r="30.5" fill="none"/>
      </g>
    </g>
    <g id="Group_23876" data-name="Group 23876" transform="translate(21.431 1281.654)">
      <path id="Path_18231" data-name="Path 18231" d="M215.481,186.435h.638l.159.053a2.22,2.22,0,0,1,1.63,1.453,3.186,3.186,0,0,1,.106.39v.585l-.053.213a2.155,2.155,0,0,1-.815,1.258,2.189,2.189,0,0,1-3.313-.833.316.316,0,0,0-.23-.195c-.549-.018-1.081-.018-1.63,0a.225.225,0,0,0-.159.071c-.3.514-.6,1.045-.9,1.577a10.314,10.314,0,0,1,2.622,2.64.361.361,0,0,0,.266.106h2.728c.5,0,1.01.018,1.506.018v1.453c-.053,0-.089-.018-.142-.018H214.56a.386.386,0,0,0-.106.018c.23.974.461,1.931.691,2.923h2.888V199.6h-2.87c-.248,1.01-.478,1.967-.709,2.941h.9c.886,0,1.789-.018,2.675-.018v1.453c-.089,0-.195.018-.283.018h-3.915a.374.374,0,0,0-.354.195,9.275,9.275,0,0,1-2.091,2.232c-.159.124-.3.23-.461.354.3.531.585,1.028.886,1.524a.286.286,0,0,0,.23.106c.5.018.992,0,1.488.018a.312.312,0,0,0,.337-.213,2.092,2.092,0,0,1,1.984-1.24,2.066,2.066,0,0,1,1.967,1.258,3.849,3.849,0,0,1,.213.638v.585c-.018.053-.035.089-.053.142a2.22,2.22,0,0,1-1.931,1.754,2.147,2.147,0,0,1-2.2-1.276.275.275,0,0,0-.3-.177h-2.339a.312.312,0,0,1-.3-.177c-.372-.673-.762-1.346-1.152-2-.035-.071-.089-.142-.106-.177-.638.23-1.258.443-1.9.673v3.136h-1.47v-2.923h-1.453v2.923h-1.453V208.4c0-.177-.053-.248-.23-.3-.372-.106-.726-.23-1.081-.354-.195-.071-.39-.159-.585-.248-.407.726-.815,1.417-1.2,2.126a.444.444,0,0,1-.425.266c-.744-.018-1.47,0-2.215-.018a.316.316,0,0,0-.354.23,2.191,2.191,0,0,1-2.445,1.187,2.2,2.2,0,1,1,2.48-3.083c.053.106.089.213.248.195.531-.018,1.063,0,1.577,0a.242.242,0,0,0,.195-.071c.3-.514.6-1.045.9-1.577l-.071-.071a10.268,10.268,0,0,1-2.533-2.569.427.427,0,0,0-.3-.124h-4.2v-1.47H196.7c-.23-.974-.461-1.931-.691-2.923h-2.852v-1.47h2.852c.248-.992.478-1.949.709-2.941H193.14v-1.453h4.2a.334.334,0,0,0,.337-.177,9.439,9.439,0,0,1,2.409-2.48c.053-.035.089-.089.142-.124-.3-.514-.567-1.01-.868-1.506a.31.31,0,0,0-.248-.124c-.478-.018-.957,0-1.435-.018a.384.384,0,0,0-.407.248,2.189,2.189,0,0,1-4.075-.354,2.128,2.128,0,0,1,.8-2.356A5.137,5.137,0,0,1,195,186.4h.638c.018.018.035.035.053.035a2.208,2.208,0,0,1,1.63,1.293.3.3,0,0,0,.23.124c.78.018,1.577.018,2.356,0a.287.287,0,0,1,.3.177c.142.266.283.514.425.762.283.478.549.974.815,1.417.585-.195,1.116-.39,1.683-.549.177-.053.23-.124.23-.319-.018-.974,0-1.967,0-2.941h1.453v2.941h1.453V186.4h1.453v2.64c0,.514,0,.514.478.673a1,1,0,0,1,.213.071c.39.142.8.3,1.2.443.407-.726.833-1.435,1.222-2.161a.38.38,0,0,1,.39-.213c.762.018,1.506,0,2.268,0a.29.29,0,0,0,.319-.195,2.078,2.078,0,0,1,1.417-1.187A.563.563,0,0,0,215.481,186.435Zm-13.305,15.378h1.435a.16.16,0,0,0,.018-.089c0-1.222.035-2.427-.018-3.65A2.182,2.182,0,0,0,200.953,196a2.225,2.225,0,0,0-1.736,2.232v3.348c0,.071.018.142.018.213h1.453v-1.435h1.47C202.176,200.857,202.176,201.317,202.176,201.813Zm4.11,0v-1.453c.3,0,.585.018.85,0a2.2,2.2,0,0,0,.124-4.376c-.8-.053-1.612-.018-2.409-.018-.018,0-.018.018-.035.018V201.8C205.312,201.813,205.79,201.813,206.286,201.813Zm3.9-5.846V201.8h1.435v-5.829Z" transform="translate(0)" fill="#e65f46"/>
      <path id="Path_18232" data-name="Path 18232" d="M237.562,250.153h-1.435a7.1,7.1,0,0,1,0-.868.7.7,0,0,1,.709-.585.712.712,0,0,1,.726.62C237.58,249.586,237.562,249.852,237.562,250.153Z" transform="translate(-35.386 -51.263)" fill="#e65f46"/>
      <path id="Path_18233" data-name="Path 18233" d="M267.5,248.563c.266,0,.514-.018.78,0a.708.708,0,0,1,.673.726.735.735,0,0,1-.656.744c-.248.018-.514,0-.8,0Z" transform="translate(-61.214 -51.144)" fill="#e65f46"/>
    </g>
  </g>
</svg>
