<svg xmlns="http://www.w3.org/2000/svg" width="62" height="62" viewBox="0 0 62 62">
  <g id="Checkout_Ads" data-name="Checkout Ads" transform="translate(-192 -1448.533)">
    <g id="Ellipse_942" data-name="Ellipse 942" transform="translate(192 1448.533)" fill="none" stroke="#b1c100" stroke-width="1">
      <circle cx="31" cy="31" r="31" stroke="none"/>
      <circle cx="31" cy="31" r="30.5" fill="none"/>
    </g>
    <g id="Group_23879" data-name="Group 23879" transform="translate(-1744.106 -757.488)">
      <path id="Path_18234" data-name="Path 18234" d="M185.461,449.68h8.9a3.634,3.634,0,0,1,3.539,2.144,3.448,3.448,0,0,1,.324,1.416q.03,6.613.02,13.225A3.631,3.631,0,0,1,194.824,470c-.182,0-.344.02-.526.02H176.6a3.964,3.964,0,0,1-2.77-.991,3.462,3.462,0,0,1-1.193-2.548q-.03-6.643,0-13.286a3.62,3.62,0,0,1,3.478-3.5c1.577-.04,3.155-.02,4.732-.02Zm.647,10.172h0V462.8a.963.963,0,0,0,.971.991q1.062.03,2.123,0a2.873,2.873,0,0,0,2.77-2.568,15.39,15.39,0,0,0,0-2.73,2.89,2.89,0,0,0-2.77-2.568c-.647-.02-1.314,0-1.962,0a.986.986,0,0,0-1.112,1.112C186.108,457.971,186.108,458.9,186.108,459.852Zm-3.316,1.335a.271.271,0,0,1,.02.1c0,.465-.02.95.02,1.416a1.567,1.567,0,0,0,.142.607.964.964,0,0,0,1.072.465.939.939,0,0,0,.728-.95V458.7a2.227,2.227,0,0,0-.04-.364,2.947,2.947,0,0,0-5.844.445c-.04,1.335-.02,2.69-.02,4.024a.9.9,0,0,0,.384.768.922.922,0,0,0,1.011.121.9.9,0,0,0,.566-.849v-1.678C181.518,461.187,182.145,461.187,182.792,461.187Z" transform="translate(1781.654 1775.2)" fill="#adbc00"/>
      <path id="Path_18235" data-name="Path 18235" d="M180.415,561.982H167.534a2.312,2.312,0,0,1-.526-.04.984.984,0,0,1-.708-.971.95.95,0,0,1,.748-.93,2.5,2.5,0,0,1,.4-.04h25.9c.748,0,1.193.4,1.153,1.052a.957.957,0,0,1-.87.91,2.2,2.2,0,0,1-.364,0Q186.846,561.992,180.415,561.982Z" transform="translate(1786.7 1687.185)" fill="#adbc00"/>
      <path id="Path_18236" data-name="Path 18236" d="M249.2,490.265c.364,0,.708-.02,1.031,0a.934.934,0,0,1,.89.93c.02.688.02,1.4,0,2.083a.938.938,0,0,1-.991.91h-.93Z" transform="translate(1720.564 1742.826)" fill="#adbc00"/>
      <path id="Path_18237" data-name="Path 18237" d="M215.311,491.509H213.43a1,1,0,0,1,.344-1.092.979.979,0,0,1,1.092-.061A1.035,1.035,0,0,1,215.311,491.509Z" transform="translate(1749.135 1742.856)" fill="#adbc00"/>
    </g>
  </g>
</svg>
