<svg xmlns="http://www.w3.org/2000/svg" width="71.396" height="63.845" viewBox="0 0 71.396 63.845">
  <g id="Group_9501" data-name="Group 9501" transform="translate(-5947.375 -11040.799)">
    <path id="Path_5421" data-name="Path 5421" d="M269.819,337.114V392.33c-.077.192-.159.383-.231.577a3.534,3.534,0,0,1-4.409,2.161,3.619,3.619,0,0,1-2.47-3.783q0-18.192,0-36.384v-.827H205.541v.882q0,18.052,0,36.1a8,8,0,0,1-.022.905,3.431,3.431,0,0,1-2.307,3.04,3.525,3.525,0,0,1-4.775-3.452c-.024-4.066-.006-8.132-.006-12.2q0-20.527,0-41.054a6.822,6.822,0,0,1,1.34-4.369,6.6,6.6,0,0,1,5.542-2.535q24.047.009,48.094,0,4.844,0,9.688,0A6.521,6.521,0,0,1,268.536,334,7.777,7.777,0,0,1,269.819,337.114Zm-7.135,8.8h-57.1v1.149h57.1Zm-57.114,5.226h57.1v-1.16h-57.1Zm57.108-9.079h-57.1v.9h57.1Z" transform="translate(5748.951 10709.4)" fill="#0081c6"/>
    <path id="Path_5423" data-name="Path 5423" d="M275.655,372.232v1.149h-57.1v-1.149Z" transform="translate(5735.98 10683.086)" fill="#fff"/>
    <path id="Path_5424" data-name="Path 5424" d="M218.524,384.827v-1.16h57.1v1.16Z" transform="translate(5735.998 10675.717)" fill="#fff"/>
    <path id="Path_5425" data-name="Path 5425" d="M275.641,361.394v.9h-57.1v-.9Z" transform="translate(5735.988 10690.07)" fill="#fff"/>
    <path id="Path_5426" data-name="Path 5426" d="M233.333,419.229a3.357,3.357,0,0,1-2.521-2.729,2.7,2.7,0,0,1,3.476-3.3c.493.115.979.262,1.534.412.647-1.572,1.284-3.109,1.914-4.648a7.236,7.236,0,0,1,5.128-4.405,6.8,6.8,0,0,1,1.725-.185q10.35-.018,20.7-.006a7.279,7.279,0,0,1,6.851,4.6c.569,1.371,1.145,2.739,1.682,4.122.173.447.385.574.83.384a5.82,5.82,0,0,1,.872-.238,2.688,2.688,0,0,1,2.989.746,3.047,3.047,0,0,1,.361,3.284,3.47,3.47,0,0,1-2.452,2.012c.251.9.5,1.765.729,2.632a25.907,25.907,0,0,1,.784,6.757c-.012,2.857,0,5.715,0,8.573,0,2.557-1.364,3.922-3.906,3.925-.534,0-1.07.017-1.6-.012a3.359,3.359,0,0,1-3.264-3.261c-.038-.737-.006-1.478-.006-2.267H240.744c0,.655.006,1.3,0,1.941a3.424,3.424,0,0,1-3.587,3.6c-.6.008-1.209.018-1.812-.006a3.34,3.34,0,0,1-3.365-3.315c-.016-4.157-.058-8.32.159-12.467A43.337,43.337,0,0,1,233.333,419.229Zm21.59.435q7.458,0,14.917,0c1.929,0,2.627-1.036,1.907-2.807-1.022-2.514-2.044-5.028-3.1-7.527a4.167,4.167,0,0,0-4.071-2.735q-9.654-.036-19.309,0a4.084,4.084,0,0,0-3.962,2.579c-1.139,2.615-2.2,5.265-3.252,7.916-.586,1.475.089,2.469,1.675,2.57.231.015.464.006.7.006ZM241.678,425c-1.044,0-2.089-.017-3.133,0a1.43,1.43,0,0,0-1.564,1.56c-.019.789-.017,1.578,0,2.367a1.437,1.437,0,0,0,1.6,1.6q3.063.034,6.127,0a1.425,1.425,0,0,0,1.568-1.56c.029-.788.026-1.579,0-2.367A1.464,1.464,0,0,0,244.6,425C243.628,424.991,242.653,425,241.678,425Zm26.579,0c-1.044,0-2.089-.015-3.133,0a1.4,1.4,0,0,0-1.565,1.543c-.022.835-.025,1.671,0,2.506a1.341,1.341,0,0,0,1.419,1.468q3.2.06,6.4,0a1.362,1.362,0,0,0,1.43-1.533c.016-.789.012-1.578,0-2.367A1.439,1.439,0,0,0,271.181,425C270.206,424.99,269.232,425,268.257,425Z" transform="translate(5728.12 10662.379)" fill="#003a74"/>
  </g>
</svg>
