<svg xmlns="http://www.w3.org/2000/svg" width="208.913" height="29.354" viewBox="0 0 208.913 29.354">
  <g id="zerogateway-logo" transform="translate(-6.2 -17)">
    <g id="Group_7" data-name="Group 7" transform="translate(6.2 17)">
      <path id="Path_1" data-name="Path 1" d="M92.1,43.193l7.045-8.761H92.868V31H103.48v3.342L96.39,43.1h7.5v3.432H92.1V43.193Z" transform="translate(-53.307 -24.678)" fill="#002323"/>
      <path id="Path_2" data-name="Path 2" d="M127.784,46.474a7.809,7.809,0,0,1-5.735-2.394,8.513,8.513,0,0,1,0-11.742,7.964,7.964,0,0,1,11.471,0,8.074,8.074,0,0,1,2.348,5.871,9.874,9.874,0,0,1-.135,1.626h-12.1a5.407,5.407,0,0,0,1.039,1.852,4.055,4.055,0,0,0,3.161,1.4A4.539,4.539,0,0,0,130,42.545a3.7,3.7,0,0,0,1.445-1.445h3.929a7.16,7.16,0,0,1-2.845,3.929A7.977,7.977,0,0,1,127.784,46.474Zm4.2-9.619a4.231,4.231,0,0,0-1.129-2.123,4.168,4.168,0,0,0-6.232,0,5.685,5.685,0,0,0-1.129,2.123Z" transform="translate(-68.443 -24.074)" fill="#002323"/>
      <path id="Path_3" data-name="Path 3" d="M159.8,30.5h3.432v1.174l.181-.226A3.7,3.7,0,0,1,166.619,30h.226v3.568a4.293,4.293,0,0,0-2.394.813,3.357,3.357,0,0,0-.948,2.664v8.987h-3.7Z" transform="translate(-90.433 -24.129)" fill="#002323"/>
      <path id="Path_4" data-name="Path 4" d="M178.094,44.08A7.938,7.938,0,0,1,175.7,38.21a8.115,8.115,0,0,1,2.394-5.871,8.242,8.242,0,0,1,14.09,5.871,8.115,8.115,0,0,1-2.393,5.871,7.938,7.938,0,0,1-5.871,2.394A8.087,8.087,0,0,1,178.094,44.08Zm9.077-2.394a5.271,5.271,0,0,0,0-6.955,4.372,4.372,0,0,0-6.413,0,5.271,5.271,0,0,0,0,6.955,4.148,4.148,0,0,0,3.206,1.4A4.306,4.306,0,0,0,187.171,41.687Z" transform="translate(-99.153 -24.074)" fill="#002323"/>
      <path id="Path_5" data-name="Path 5" d="M222.374,48.867a4.636,4.636,0,0,0,3.568-1.49,5.094,5.094,0,0,0,1.355-3.3,7.337,7.337,0,0,1-5.419,2.394,7.2,7.2,0,0,1-5.419-2.394,8.761,8.761,0,0,1,0-11.742,7.083,7.083,0,0,1,5.419-2.439,6.778,6.778,0,0,1,5.239,2.258V30.442h3.613v12.6a9.478,9.478,0,0,1-2.348,6.729,8.031,8.031,0,0,1-6.187,2.529,8.472,8.472,0,0,1-4.877-1.4,6.624,6.624,0,0,1-2.8-3.748h4.335a2.853,2.853,0,0,0,1.355,1.265A4.777,4.777,0,0,0,222.374,48.867Zm.09-15.58a4.148,4.148,0,0,0-3.206,1.4,5.073,5.073,0,0,0-1.31,3.523,4.961,4.961,0,0,0,1.31,3.477,4.148,4.148,0,0,0,3.206,1.4,4.31,4.31,0,0,0,3.252-1.4,5.04,5.04,0,0,0,1.31-3.477,4.961,4.961,0,0,0-1.31-3.477A4.134,4.134,0,0,0,222.464,33.287Z" transform="translate(-120.266 -24.074)" fill="#002323"/>
      <path id="Path_6" data-name="Path 6" d="M260.922,46.474a7.362,7.362,0,0,1-5.464-2.394,8.761,8.761,0,0,1,0-11.742,7.176,7.176,0,0,1,5.464-2.439,6.894,6.894,0,0,1,5.239,2.213V30.4h3.432V45.932h-3.387V44.216A7.174,7.174,0,0,1,260.922,46.474Zm.632-13.187a4.176,4.176,0,0,0-3.252,1.4,5.073,5.073,0,0,0-1.31,3.523,4.961,4.961,0,0,0,1.31,3.477,4.476,4.476,0,0,0,6.5,0,5.04,5.04,0,0,0,1.31-3.477,4.961,4.961,0,0,0-1.31-3.477A4.134,4.134,0,0,0,261.555,33.287Z" transform="translate(-141.653 -24.074)" fill="#002323"/>
      <path id="Path_7" data-name="Path 7" d="M294.006,40.284V28.045H292.2v-3.3h1.806V19.6h3.748v5.193h2.258v3.3h-2.258V40.329h-3.748Z" transform="translate(-163.041 -18.426)" fill="#002323"/>
      <path id="Path_8" data-name="Path 8" d="M317.984,46.474a7.809,7.809,0,0,1-5.735-2.394,8.513,8.513,0,0,1,0-11.742,7.964,7.964,0,0,1,11.471,0,8.074,8.074,0,0,1,2.348,5.871,9.875,9.875,0,0,1-.135,1.626h-12.1a5.406,5.406,0,0,0,1.039,1.852,4.055,4.055,0,0,0,3.161,1.4,4.539,4.539,0,0,0,2.168-.542,3.7,3.7,0,0,0,1.445-1.445h3.929a7.16,7.16,0,0,1-2.845,3.929A8.076,8.076,0,0,1,317.984,46.474Zm4.2-9.619a4.232,4.232,0,0,0-1.129-2.123,4.168,4.168,0,0,0-6.232,0,5.684,5.684,0,0,0-1.129,2.123Z" transform="translate(-172.747 -24.074)" fill="#002323"/>
      <path id="Path_9" data-name="Path 9" d="M352.355,46.535,346.8,31h3.884l3.026,9.755h0L356.193,31h2.981l2.484,9.755h0L364.684,31h3.884l-5.555,15.535h-2.393l-2.981-10.071h0l-2.981,10.071h-2.3Z" transform="translate(-192.983 -24.678)" fill="#002323"/>
      <path id="Path_10" data-name="Path 10" d="M403.422,46.474a7.362,7.362,0,0,1-5.464-2.394,8.761,8.761,0,0,1,0-11.742,7.176,7.176,0,0,1,5.464-2.439,6.894,6.894,0,0,1,5.239,2.213V30.4h3.432V45.932h-3.432V44.216A7.075,7.075,0,0,1,403.422,46.474Zm.587-13.187a4.177,4.177,0,0,0-3.252,1.4,5.073,5.073,0,0,0-1.31,3.523,4.961,4.961,0,0,0,1.31,3.477,4.476,4.476,0,0,0,6.5,0,5.04,5.04,0,0,0,1.31-3.477,4.961,4.961,0,0,0-1.31-3.477A4.072,4.072,0,0,0,404.01,33.287Z" transform="translate(-219.799 -24.074)" fill="#002323"/>
      <path id="Path_11" data-name="Path 11" d="M440.574,51.774H436.6l2.89-6.639h0L433.8,31h4.245l3.523,10.116h0L445.361,31h4.245Z" transform="translate(-240.693 -24.678)" fill="#002323"/>
      <path id="Path_12" data-name="Path 12" d="M24.929,17H51.98L40.193,36.1H32.7l7.858-12.69H21Z" transform="translate(-14.316 -17)" fill="#dee965" fill-rule="evenodd"/>
      <path id="Path_13" data-name="Path 13" d="M33.251,58.8H6.2L17.987,39.7h7.542L17.671,52.39H37.225Z" transform="translate(-6.2 -29.449)" fill="#dee965" fill-rule="evenodd"/>
    </g>
  </g>
</svg>
