<svg xmlns="http://www.w3.org/2000/svg" width="218.348" height="58" viewBox="0 0 218.348 58">
  <g id="Group_1" data-name="Group 1" transform="translate(-35.757 -41.7)">
    <path id="Path_1428" data-name="Path 1428" d="M71.818,73.6V53.384H74.9v2.859a7.11,7.11,0,0,1,6.114-3.284,6.663,6.663,0,0,1,3.674.925A4.978,4.978,0,0,1,86.7,56.49a7.3,7.3,0,0,1,6.265-3.531,6.175,6.175,0,0,1,4.641,1.662,7.088,7.088,0,0,1,1.629,5.121V73.6H95.809V60.875a9.4,9.4,0,0,0-.336-2.954,2.83,2.83,0,0,0-1.214-1.454,3.758,3.758,0,0,0-2.058-.553,4.816,4.816,0,0,0-3.551,1.415,6.231,6.231,0,0,0-1.408,4.54V73.6H83.814V60.474a5.763,5.763,0,0,0-.841-3.421,3.174,3.174,0,0,0-2.739-1.143,4.972,4.972,0,0,0-2.668.757,4.319,4.319,0,0,0-1.778,2.226,12.632,12.632,0,0,0-.545,4.22V73.59Z" transform="translate(33.646 10.506)" fill="#0081c6"/>
    <path id="Path_1429" data-name="Path 1429" d="M90.12,63.5q0,3.877,1.7,5.8a5.675,5.675,0,0,0,8.528-.006q1.693-1.94,1.693-5.9a8.281,8.281,0,0,0-1.707-5.66,5.68,5.68,0,0,0-8.514-.013q-1.7,1.92-1.7,5.784m-3.5-.006q0-5.6,3.122-8.3a9.412,9.412,0,0,1,6.354-2.238,9.081,9.081,0,0,1,6.811,2.726,10.357,10.357,0,0,1,2.643,7.524,13.319,13.319,0,0,1-1.17,6.122,8.261,8.261,0,0,1-3.408,3.466,9.879,9.879,0,0,1-4.877,1.233,9.1,9.1,0,0,1-6.86-2.712q-2.618-2.719-2.616-7.825Z" transform="translate(47.452 10.505)" fill="#0081c6"/>
    <path id="Path_1430" data-name="Path 1430" d="M105.543,73.741l.467,3.027a12.8,12.8,0,0,1-2.579.305,5.824,5.824,0,0,1-2.888-.589,3.311,3.311,0,0,1-1.44-1.552,12.3,12.3,0,0,1-.415-4.049V59.233H96.156V56.585h2.533v-5l3.427-2.058v7.058h3.427v2.649h-3.427V71.073a5.885,5.885,0,0,0,.182,1.888,1.415,1.415,0,0,0,.584.673,2.305,2.305,0,0,0,1.17.246,10.744,10.744,0,0,0,1.492-.135" transform="translate(56.353 7.305)" fill="#0081c6"/>
    <path id="Path_1431" data-name="Path 1431" d="M104.28,63.5q0,3.877,1.693,5.8a5.678,5.678,0,0,0,8.53-.006q1.693-1.94,1.693-5.9a8.281,8.281,0,0,0-1.707-5.66,5.681,5.681,0,0,0-8.517-.013q-1.693,1.92-1.693,5.784m-3.506-.006q0-5.6,3.124-8.3a9.4,9.4,0,0,1,6.354-2.238,9.085,9.085,0,0,1,6.811,2.726,10.349,10.349,0,0,1,2.64,7.524,13.32,13.32,0,0,1-1.168,6.122,8.273,8.273,0,0,1-3.408,3.466,9.884,9.884,0,0,1-4.877,1.233,9.1,9.1,0,0,1-6.86-2.712q-2.62-2.719-2.616-7.825Z" transform="translate(60.662 10.505)" fill="#0081c6"/>
    <path id="Path_1432" data-name="Path 1432" d="M111.3,73.6V53.386h3.077v3.1a8.274,8.274,0,0,1,2.18-2.836,3.8,3.8,0,0,1,2.2-.688,6.8,6.8,0,0,1,3.526,1.085L121.061,57.2a5.033,5.033,0,0,0-2.491-.7,3.24,3.24,0,0,0-2.006.673,3.653,3.653,0,0,0-1.261,1.869,13.218,13.218,0,0,0-.573,3.991V73.6Z" transform="translate(70.486 10.504)" fill="#0081c6"/>
    <path id="Path_1433" data-name="Path 1433" d="M123.356,56.578V70.115h3.07a11.3,11.3,0,0,0,2.484-.2,3.748,3.748,0,0,0,1.662-.853,4.288,4.288,0,0,0,1.074-1.97,13.293,13.293,0,0,0,.42-3.746,12.134,12.134,0,0,0-.42-3.636,4.689,4.689,0,0,0-1.165-1.981,3.911,3.911,0,0,0-1.9-.961,18.612,18.612,0,0,0-3.375-.2Zm-4.143-3.457h7.531a14.638,14.638,0,0,1,3.884.39A6.792,6.792,0,0,1,133.7,55.4a8.881,8.881,0,0,1,1.951,3.313,15.134,15.134,0,0,1,.667,4.83,13.394,13.394,0,0,1-.628,4.351,8.955,8.955,0,0,1-2.186,3.616,7.184,7.184,0,0,1-2.894,1.631,12.3,12.3,0,0,1-3.646.435h-7.756Z" transform="translate(77.867 10.661)" fill="#003a74"/>
    <path id="Path_1434" data-name="Path 1434" d="M129.159,73.572V53.123h4.007l8.416,13.705V53.123h3.827V73.572h-4.137l-8.287-13.442V73.572Z" transform="translate(87.145 10.658)" fill="#003a74"/>
    <path id="Path_1435" data-name="Path 1435" d="M150.962,65.464,148.12,57.9l-2.76,7.567Zm7.567,8.111h-4.456l-1.766-4.656h-8.2l-1.7,4.656h-4.38l7.941-20.449h4.372Z" transform="translate(95.416 10.659)" fill="#003a74"/>
    <path id="Path_1436" data-name="Path 1436" d="M123.356,56.578V70.115h3.07a11.3,11.3,0,0,0,2.484-.2,3.748,3.748,0,0,0,1.662-.853,4.288,4.288,0,0,0,1.074-1.97,13.293,13.293,0,0,0,.42-3.746,12.134,12.134,0,0,0-.42-3.636,4.689,4.689,0,0,0-1.165-1.981,3.911,3.911,0,0,0-1.9-.961,18.612,18.612,0,0,0-3.375-.2Zm-4.143-3.457h7.531a14.638,14.638,0,0,1,3.884.39A6.792,6.792,0,0,1,133.7,55.4a8.881,8.881,0,0,1,1.951,3.313,15.134,15.134,0,0,1,.667,4.83,13.394,13.394,0,0,1-.628,4.351,8.955,8.955,0,0,1-2.186,3.616,7.184,7.184,0,0,1-2.894,1.631,12.3,12.3,0,0,1-3.646.435h-7.756Z" transform="translate(77.867 10.661)" fill="none" stroke="#003a74" stroke-miterlimit="2.613" stroke-width="0.216"/>
    <path id="Path_1437" data-name="Path 1437" d="M129.159,73.572V53.123h4.007l8.416,13.705V53.123h3.827V73.572h-4.137l-8.287-13.442V73.572Z" transform="translate(87.145 10.658)" fill="none" stroke="#003a74" stroke-miterlimit="2.613" stroke-width="0.216"/>
    <path id="Path_1438" data-name="Path 1438" d="M150.962,65.464,148.12,57.9l-2.76,7.567Zm7.567,8.111h-4.456l-1.766-4.656h-8.2l-1.7,4.656h-4.38l7.941-20.449h4.372Z" transform="translate(95.416 10.659)" fill="none" stroke="#003a74" stroke-miterlimit="2.613" stroke-width="0.216"/>
    <path id="Path_1439" data-name="Path 1439" d="M63.235,41.7A27.476,27.476,0,0,1,90.086,74.9H84.857a22.317,22.317,0,0,0-8.012-23.08h-.006l-.272-.209A22.046,22.046,0,0,0,50.894,50.9a22.319,22.319,0,0,0-9.305,24h-5.2a27.468,27.468,0,0,1,26.85-33.2" transform="translate(0.02 0)" fill="#003a74" fill-rule="evenodd"/>
    <path id="Path_1440" data-name="Path 1440" d="M44.881,77.65a27.634,27.634,0,0,1-9.081-17.6L39.88,55.1l1.237-.168a22.221,22.221,0,0,0,7.236,18.641c-.795.925-2.121,2.486-3.476,4.082" transform="translate(0.034 12.349)" fill="#003a74" fill-rule="evenodd"/>
    <path id="Path_1441" data-name="Path 1441" d="M61.091,77.65a27.637,27.637,0,0,0,9.085-17.6L66.095,55.1l-1.239-.168a22.21,22.21,0,0,1-7.24,18.642c.8.925,2.121,2.486,3.476,4.082" transform="translate(20.394 12.349)" fill="#003a74" fill-rule="evenodd"/>
    <path id="Path_1442" data-name="Path 1442" d="M63.2,55.871a3.917,3.917,0,1,1-3.917,3.917A3.917,3.917,0,0,1,63.2,55.871M36.214,65.3c.47-9.213,19.722-6.817,22.469,5.241,1.438,6.313,1.6,7.43,1.6,7.43a2.072,2.072,0,0,0,2.316,2H63.79a2.073,2.073,0,0,0,2.317-2s.159-1.117,1.6-7.43c2.749-12.058,22-14.453,22.472-5.241,2.921-12.493-8.607-13.28-18.843-13.28H55.056C44.952,52.022,33.293,52.809,36.214,65.3Z" transform="translate(0 9.631)" fill="#0081c6" fill-rule="evenodd"/>
    <path id="Path_1443" data-name="Path 1443" d="M57.1,65.334l2.327-.818,2.175,1.177.489,2.533-1.349.729-2.084-.091Z" transform="translate(19.918 21.289)" fill="#fff" fill-rule="evenodd"/>
    <path id="Path_1444" data-name="Path 1444" d="M45.832,64.014,43.891,65.1l-2.228.487-1.087,1.752.664,2.476,1.862-.065,3.969-1.82-.336-3.005Z" transform="translate(4.496 20.82)" fill="#fff" fill-rule="evenodd"/>
    <path id="Path_1445" data-name="Path 1445" d="M43.606,70.843c3.054,2.83,4.656,2.333,4.656,2.333.457-.037.526.564.2.634-3.161.841-6.732-2.368-7.943-5.036h0v-.039l-.006-.013a4.26,4.26,0,0,1-.292-1.345h0V67.3a3.055,3.055,0,0,1,.305-1.467,2.6,2.6,0,0,1,.947-1.027h0l.043-.024.043-.025.018-.01c1.488-.806,3.5-.528,5.207,1.952h0c.985,1.345,3.383,5.109,5.542,7.722h0c.369.446.732.86,1.079,1.222a4.921,4.921,0,0,0,3.5,1.487h.129a4.647,4.647,0,0,0,.481-.07h.009l.029-.006a5.578,5.578,0,0,0,1.287-.491l.019-.012c.3-.168.613-.369.969-.615h.006l.128-.1s.228-.226.42-.084a.452.452,0,0,1-.039.694h0l-.064.048-.013.013c-1.107.866-3.868,2.726-6.151,1.832-2.144-.835-3.6-3.159-4.9-5.381l-.018-.031-.084-.145-.084-.145-.42-.717-.056-.092h0l-.013-.021c-.283-.478-.563-.933-.841-1.355H47.7l-.394-.63.008-.006c-.18-.286-.351-.555-.516-.8a11.317,11.317,0,0,0-2.5-3.035h0a3.262,3.262,0,0,0-.466-.319,1.881,1.881,0,0,0-.24-.1l-.018-.006h-.012l-.058-.018c-.98-.252-1.811.491-1.821,1.707a5.134,5.134,0,0,0,1.948,3.6" transform="translate(4.142 21.12)" fill="#0081c6" fill-rule="evenodd"/>
    <path id="Path_1446" data-name="Path 1446" d="M45.812,67.679l-2.233,1.788a.391.391,0,0,1-.558-.071h0a.42.42,0,0,1,.073-.576L45.362,67c.151.22.3.446.451.673" transform="translate(6.697 23.609)" fill="#0081c6" fill-rule="evenodd"/>
    <path id="Path_1447" data-name="Path 1447" d="M45.408,66.991l-2.36,1.888a.392.392,0,0,1-.558-.07h0a.42.42,0,0,1,.073-.576l2.354-1.883c.162.205.329.42.493.642" transform="translate(6.202 22.999)" fill="#0081c6" fill-rule="evenodd"/>
    <path id="Path_1448" data-name="Path 1448" d="M45.021,66.4l-2.5,2a.39.39,0,0,1-.558-.07h0a.42.42,0,0,1,.073-.574L44.5,65.789c.168.193.346.4.526.616" transform="translate(5.715 22.474)" fill="#0081c6" fill-rule="evenodd"/>
    <path id="Path_1449" data-name="Path 1449" d="M44.412,65.745,42,67.673a.394.394,0,0,1-.561-.07h0a.42.42,0,0,1,.073-.576l2.333-1.866c.168.168.357.366.563.589" transform="translate(5.229 21.888)" fill="#0081c6" fill-rule="evenodd"/>
    <path id="Path_1450" data-name="Path 1450" d="M52.749,71.979l-.305-2.845a.392.392,0,0,1,.36-.435h0a.42.42,0,0,1,.448.369l.311,2.892c-.267.009-.539.018-.814.019" transform="translate(15.566 25.186)" fill="#0081c6" fill-rule="evenodd"/>
    <path id="Path_1451" data-name="Path 1451" d="M54.03,73.152l-.452-4.042a.38.38,0,0,1,.355-.437h0a.433.433,0,0,1,.446.371l.452,4.036c-.261.027-.531.05-.806.07" transform="translate(16.625 25.168)" fill="#0081c6" fill-rule="evenodd"/>
    <path id="Path_1452" data-name="Path 1452" d="M55.133,72.886,54.7,68.814c-.024-.222.161-.336.36-.435h0c.2-.1.42.151.446.371l.425,4.027c-.252.04-.522.077-.8.112" transform="translate(17.676 24.869)" fill="#0081c6" fill-rule="evenodd"/>
    <path id="Path_1453" data-name="Path 1453" d="M56.1,71.829l-.336-3.067a.391.391,0,0,1,.36-.433h0a.42.42,0,0,1,.446.373l.321,2.969c-.232.052-.5.106-.8.161" transform="translate(18.671 24.842)" fill="#0081c6" fill-rule="evenodd"/>
    <path id="Path_1454" data-name="Path 1454" d="M54.24,68.916c3.012,2.14,4.92,4.43,7.72,4.165a7.192,7.192,0,0,0,4.434-2.136,4.961,4.961,0,0,0,1.065-1.311c.137-.162.308-.827.661-.732,1.075.288-2.326,6.705-8.217,5.308-4.744-1.491-7.077-6.866-13.1-4.848,0,0-.543.106-.609-.2-.24-1.085,5.129-2.32,8.049-.247" transform="translate(9.727 24.349)" fill="#0081c6" fill-rule="evenodd"/>
    <path id="Path_1455" data-name="Path 1455" d="M49.42,68.059l-.939,3.959a.383.383,0,0,0,.3.476h0a.436.436,0,0,0,.489-.315l.938-3.952c-.257-.058-.522-.114-.793-.168" transform="translate(11.857 24.594)" fill="#0081c6" fill-rule="evenodd"/>
    <path id="Path_1456" data-name="Path 1456" d="M50.174,68.369,49.4,71.64a.368.368,0,0,0,.3.473h0a.462.462,0,0,0,.491-.313l.774-3.263c-.257-.058-.52-.114-.793-.168" transform="translate(12.72 24.884)" fill="#0081c6" fill-rule="evenodd"/>
    <path id="Path_1457" data-name="Path 1457" d="M48.657,68.007l-.938,3.959a.38.38,0,0,0,.3.476h0a.436.436,0,0,0,.489-.313l.938-3.952c-.252-.058-.52-.114-.793-.168" transform="translate(11.152 24.546)" fill="#0081c6" fill-rule="evenodd"/>
    <path id="Path_1458" data-name="Path 1458" d="M47.7,67.863l-.763,3.226a.368.368,0,0,0,.3.473h0a.46.46,0,0,0,.489-.313l.763-3.214c-.257-.058-.52-.114-.793-.168" transform="translate(10.42 24.411)" fill="#0081c6" fill-rule="evenodd"/>
    <path id="Path_1459" data-name="Path 1459" d="M52.215,71.96a9.221,9.221,0,0,1,4.862-2.076c2.67-.161,4.187.493,6.323-.077,5.795-1.55,1.5-7.583-2.536-2.342-.235.415-.89,1.5-1.345,1.308-.8-.336,2.165-4.149,4.17-4.54,4.854-.957,7.179,8.031-3.537,7.058-3.673-.336-5.221-.53-7.491,1.291-.628.716-1.4-.006-.441-.619" transform="translate(14.929 20.954)" fill="#0081c6" fill-rule="evenodd"/>
    <path id="Path_1460" data-name="Path 1460" d="M56.178,66l1,1.521a.392.392,0,0,0,.553.11h0a.425.425,0,0,0,.112-.573l-.994-1.513c-.219.145-.442.3-.673.457" transform="translate(19.055 22.246)" fill="#0081c6" fill-rule="evenodd"/>
    <path id="Path_1461" data-name="Path 1461" d="M56.679,65.314l1.653,2.528a.389.389,0,0,0,.551.108h0a.42.42,0,0,0,.11-.57l-1.647-2.522c-.219.145-.441.3-.673.458" transform="translate(19.523 21.607)" fill="#0081c6" fill-rule="evenodd"/>
    <path id="Path_1462" data-name="Path 1462" d="M57.281,64.859l1.83,2.82a.367.367,0,0,0,.551.108h0a.462.462,0,0,0,.112-.572L57.95,64.4c-.219.147-.442.3-.673.458" transform="translate(20.084 21.181)" fill="#0081c6" fill-rule="evenodd"/>
  </g>
</svg>
