<svg xmlns="http://www.w3.org/2000/svg" width="417.6" height="421.9" viewBox="0 0 417.6 421.9">
  <g id="Forgot_Password_" data-name="Forgot Password?" transform="translate(-41.2 -55.7)">
    <g id="Floor">
      <ellipse id="Ellipse_944" data-name="Ellipse 944" cx="208.8" cy="120.6" rx="208.8" ry="120.6" transform="translate(41.2 236.4)" fill="#022d2d"/>
    </g>
    <g id="Shadows">
      <ellipse id="Ellipse_945" data-name="Ellipse 945" cx="45.2" cy="26.1" rx="45.2" ry="26.1" transform="translate(237.6 389.2)" fill="#002323"/>
      <path id="Path_18704" data-name="Path 18704" d="M259.3,327,138.5,396.8c-3.4,2-9.3,1.7-13.3-.5L82.3,371.5c-3.9-2.3-4.3-5.7-1-7.7L202.1,294c3.4-2,9.3-1.7,13.3.5l42.9,24.8C262.3,321.7,262.7,325.1,259.3,327Z" fill="#002323"/>
    </g>
    <g id="Plants">
      <g id="Group_25058" data-name="Group 25058">
        <path id="Path_18705" data-name="Path 18705" d="M389.4,351.4l9.5,5.5s-4.8-15.3-2.1-30.7a29.074,29.074,0,0,1,3.9-10.3c.7-1.6,6.5-11.2,1.4-15.6-5-4.4-16.9,4.4-16.4,28.1A93.916,93.916,0,0,0,389.4,351.4Z" fill="#dee965"/>
        <path id="Path_18706" data-name="Path 18706" d="M389.4,351.4l9.5,5.5s-4.8-15.3-2.1-30.7a29.074,29.074,0,0,1,3.9-10.3c.7-1.6,6.5-11.2,1.4-15.6-5-4.4-16.9,4.4-16.4,28.1A93.916,93.916,0,0,0,389.4,351.4Z" opacity="0.5"/>
        <path id="Path_18707" data-name="Path 18707" d="M393.8,354.4c-.2,0-.3-.1-.4-.3,0-.1-3.6-10.1-3.4-26.1.2-16.1,8.7-24.7,8.7-24.8a.424.424,0,0,1,.6.6c-.1.1-8.3,8.5-8.5,24.2-.2,15.9,3.4,25.7,3.4,25.8a.446.446,0,0,1-.3.6Z" fill="#fff"/>
      </g>
      <g id="Group_25059" data-name="Group 25059">
        <path id="Path_18708" data-name="Path 18708" d="M396.7,355.7l15.7,9.2s7.2-1.1,6.7-7.8c-.5-6.8-3.5-8.4.2-11.3,3.6-3,4.6-3.2,4.4-6.1s-2.1-4.2-3.1-5.3c-.9-1.2-3.5-3.6-1.7-7.1s4.3-6.9.6-8.5c-2.2-1-5.8.2-8.3,2.8-2.4,2.6-4.4,4.4-6.7,5s-7.1.6-6.9,4.6,1.2,5.3.2,7.1C396.1,341.6,388.4,343.3,396.7,355.7Z" fill="#dee965"/>
        <path id="Path_18709" data-name="Path 18709" d="M396.7,355.7l15.7,9.2s7.2-1.1,6.7-7.8c-.5-6.8-3.5-8.4.2-11.3,3.6-3,4.6-3.2,4.4-6.1s-2.1-4.2-3.1-5.3c-.9-1.2-3.5-3.6-1.7-7.1s4.3-6.9.6-8.5c-2.2-1-5.8.2-8.3,2.8-2.4,2.6-4.4,4.4-6.7,5s-7.1.6-6.9,4.6,1.2,5.3.2,7.1C396.1,341.6,388.4,343.3,396.7,355.7Z" opacity="0.2"/>
        <path id="Path_18710" data-name="Path 18710" d="M403.1,359.9a.43.43,0,0,1-.4-.4c0-.2-1.7-23.7,14.6-39.1a.424.424,0,0,1,.6.6c-16,15.1-14.3,38.1-14.3,38.4a.472.472,0,0,1-.5.5Z" fill="#fff"/>
        <path id="Path_18711" data-name="Path 18711" d="M406,339.8a.43.43,0,0,1-.4-.4,13.165,13.165,0,0,0-4.8-9.3c-.2-.1-.2-.4-.1-.6s.4-.2.6-.1a13.869,13.869,0,0,1,5.1,10,.43.43,0,0,1-.4.4Z" fill="#fff"/>
        <path id="Path_18712" data-name="Path 18712" d="M404.8,343.8a.367.367,0,0,1-.3-.1.375.375,0,0,1,0-.6c.2-.2,4.3-4.6,13.7-3.3.2,0,.4.3.4.5a.458.458,0,0,1-.5.4c-9-1.2-12.9,3-13,3A.367.367,0,0,1,404.8,343.8Z" fill="#fff"/>
      </g>
      <g id="Group_25060" data-name="Group 25060">
        <path id="Path_18713" data-name="Path 18713" d="M101.1,337.9l-4.7,9.9s-4.7-15.3-15.7-26.5a30.942,30.942,0,0,0-9-6.3c-1.5-.9-11.7-5.5-10-12,1.6-6.5,16.4-6,29.4,13.9A92.336,92.336,0,0,1,101.1,337.9Z" fill="#dee965"/>
        <path id="Path_18714" data-name="Path 18714" d="M101.1,337.9l-4.7,9.9s-4.7-15.3-15.7-26.5a30.942,30.942,0,0,0-9-6.3c-1.5-.9-11.7-5.5-10-12,1.6-6.5,16.4-6,29.4,13.9A92.336,92.336,0,0,1,101.1,337.9Z" opacity="0.5"/>
        <path id="Path_18715" data-name="Path 18715" d="M98.9,343c-.2,0-.4-.1-.4-.3,0-.1-2.7-10.2-11.8-23.2-9.1-12.9-20.6-15.1-20.7-15.1a.412.412,0,1,1,.2-.8c.1,0,12,2.3,21.3,15.5,9.2,13.1,12,23.4,12,23.5a.382.382,0,0,1-.3.5C99,343,99,343,98.9,343Z" fill="#fff"/>
      </g>
      <g id="Group_25061" data-name="Group 25061">
        <path id="Path_18716" data-name="Path 18716" d="M97.5,345.7l-7.7,16.5s-6.5,3.2-9.9-2.7-1.9-8.9-6.6-9.2c-4.7-.4-5.6,0-7.1-2.5s-.6-4.7-.5-6.1c.1-1.5.8-4.9-2.6-6.8-3.5-1.9-7.4-3.3-5.4-6.7,1.2-2,4.9-3.1,8.4-2.4s6.2,1.1,8.4.3,6.2-3.5,8.3-.1,2,5.1,3.8,6C90,333.6,97.4,330.7,97.5,345.7Z" fill="#dee965"/>
        <path id="Path_18717" data-name="Path 18717" d="M97.5,345.7l-7.7,16.5s-6.5,3.2-9.9-2.7-1.9-8.9-6.6-9.2c-4.7-.4-5.6,0-7.1-2.5s-.6-4.7-.5-6.1c.1-1.5.8-4.9-2.6-6.8-3.5-1.9-7.4-3.3-5.4-6.7,1.2-2,4.9-3.1,8.4-2.4s6.2,1.1,8.4.3,6.2-3.5,8.3-.1,2,5.1,3.8,6C90,333.6,97.4,330.7,97.5,345.7Z" opacity="0.2"/>
        <path id="Path_18718" data-name="Path 18718" d="M94.4,352.8a.758.758,0,0,1-.4-.2c-.1-.2-11.8-20.1-33.5-23.5-.2,0-.4-.3-.4-.5s.3-.4.5-.4c22.1,3.4,34,23.7,34.1,23.9a.481.481,0,0,1-.2.6A.1.1,0,0,1,94.4,352.8Z" fill="#fff"/>
        <path id="Path_18719" data-name="Path 18719" d="M80.6,337.9a.758.758,0,0,1-.4-.2,13.8,13.8,0,0,1-1.4-11.1.474.474,0,0,1,.9.3,13.6,13.6,0,0,0,1.4,10.4.4.4,0,0,1-.2.6Z" fill="#fff"/>
        <path id="Path_18720" data-name="Path 18720" d="M71.1,345.5a.367.367,0,0,1-.3-.1c-.2-.2-.1-.4,0-.6,7.1-6.4,13-5.1,13.2-5.1.2.1.4.3.3.5s-.3.4-.5.3c-.1,0-5.7-1.3-12.4,4.9A.367.367,0,0,1,71.1,345.5Z" fill="#fff"/>
      </g>
    </g>
    <g id="Device">
      <g id="Group_25062" data-name="Group 25062">
        <path id="Path_18721" data-name="Path 18721" d="M219.6,66.4Z" fill="#37474f"/>
        <path id="Path_18722" data-name="Path 18722" d="M97.6,136.5a16.8,16.8,0,0,1,8.3-14.4L211.4,61.2a5.444,5.444,0,0,1,7.9,3.1,9.72,9.72,0,0,0-4.3-6l-.4-.2a16.519,16.519,0,0,0-8.7-2.4h0a5.81,5.81,0,0,0-2.8.7L97.6,117.3a16.673,16.673,0,0,0-8.3,14.4V359.9a5.446,5.446,0,0,0,8.2,4.7l.1-.1v-228Z" fill="#37474f"/>
      </g>
      <path id="Path_18723" data-name="Path 18723" d="M211.3,308.5,105.8,369.4a5.464,5.464,0,0,1-8.2-4.7V136.5a16.8,16.8,0,0,1,8.3-14.4L211.4,61.2a5.464,5.464,0,0,1,8.2,4.7V294.1A16.8,16.8,0,0,1,211.3,308.5Z" fill="#455a64"/>
      <path id="Path_18724" data-name="Path 18724" d="M97.6,364.7V136.5a17.609,17.609,0,0,1,1.6-7.2L91,124.2a17.176,17.176,0,0,0-1.8,7.4V361.7a5.376,5.376,0,0,0,2.6,4.5l4.2,2.5a9.123,9.123,0,0,0,4.8,1.3h2.1A5.267,5.267,0,0,1,97.6,364.7Z" fill="#263238"/>
      <g id="Group_25065" data-name="Group 25065">
        <path id="Path_18725" data-name="Path 18725" d="M207.6,83.1V274.9a14.737,14.737,0,0,1-7.3,12.7l-93.2,53.8a4.645,4.645,0,0,1-2.3.6,4.789,4.789,0,0,0,6.8,2.2l93.2-53.8a14.737,14.737,0,0,0,7.3-12.7V87.9A4.817,4.817,0,0,0,207.6,83.1Z" fill="#37474f"/>
        <g id="Group_25063" data-name="Group 25063">
          <path id="Path_18726" data-name="Path 18726" d="M104.8,342.1a4.645,4.645,0,0,0,2.3-.6l93.2-53.8a14.737,14.737,0,0,0,7.3-12.7V83.1a6.247,6.247,0,0,0-2.7.6l-93.2,53.8a14.737,14.737,0,0,0-7.3,12.7V340.1a5.917,5.917,0,0,0,.4,2Z" fill="#dee965"/>
        </g>
        <g id="Group_25064" data-name="Group 25064" opacity="0.5">
          <path id="Path_18727" data-name="Path 18727" d="M104.8,342.1a4.645,4.645,0,0,0,2.3-.6l93.2-53.8a14.737,14.737,0,0,0,7.3-12.7V83.1a6.247,6.247,0,0,0-2.7.6l-93.2,53.8a14.737,14.737,0,0,0-7.3,12.7V340.1a5.917,5.917,0,0,0,.4,2Z" fill="#fff"/>
        </g>
      </g>
      <g id="Group_25066" data-name="Group 25066">
        <path id="Path_18728" data-name="Path 18728" d="M143.8,109.5a3.69,3.69,0,0,1-1.7,2.9c-.9.5-1.7.1-1.7-1a3.69,3.69,0,0,1,1.7-2.9C143.1,108,143.8,108.4,143.8,109.5Z" fill="#263238"/>
        <path id="Path_18729" data-name="Path 18729" d="M150.1,105.9a3.69,3.69,0,0,1-1.7,2.9c-.9.5-1.7.1-1.7-1a3.69,3.69,0,0,1,1.7-2.9C149.3,104.4,150.1,104.8,150.1,105.9Z" fill="#263238"/>
        <path id="Path_18730" data-name="Path 18730" d="M175.3,93.2,155,105c-.8.5-1.5,0-1.5-1.1h0a3.584,3.584,0,0,1,1.5-2.8l20.3-11.7c.8-.5,1.5,0,1.5,1.1h0A3.683,3.683,0,0,1,175.3,93.2Z" fill="#263238"/>
      </g>
      <path id="Path_18731" data-name="Path 18731" d="M171.8,315.7h0c1.2,0,2,1.3,2,3.3,0,3.1-2,6.9-4.3,8.2l-9.7,5.6a2.979,2.979,0,0,1-1.4.5c-1.2,0-2-1.3-2-3.3,0-3.1,2-6.9,4.3-8.2l9.7-5.6a2.185,2.185,0,0,1,1.4-.5m0-.8a3.809,3.809,0,0,0-1.9.6l-9.7,5.6c-2.6,1.5-4.7,5.5-4.7,9,0,2.6,1.2,4.1,2.8,4.1a3.809,3.809,0,0,0,1.9-.6l9.7-5.6c2.6-1.5,4.7-5.5,4.7-9,.1-2.6-1.1-4.1-2.8-4.1Z" fill="#263238"/>
    </g>
    <g id="Screen">
      <g id="Group_25071" data-name="Group 25071">
        <g id="Group_25069" data-name="Group 25069">
          <g id="Group_25067" data-name="Group 25067">
            <path id="Path_18732" data-name="Path 18732" d="M118.2,163.7v215c0,3.9,1.4,6.5,3.6,7.4h.1l9.3,5.1-.1-8.3-1-222.9-9.8-5A20.616,20.616,0,0,0,118.2,163.7Z" fill="#263238"/>
            <path id="Path_18733" data-name="Path 18733" d="M131.7,392l-10.1-5.5c-2.5-1-3.9-3.9-3.9-7.8v-215a23.518,23.518,0,0,1,2.1-9l.2-.5,10.5,5.4v.3l1,222.9Zm-9.6-6.3,8.5,4.7V383l-1-222.6-9.1-4.6a20.156,20.156,0,0,0-1.8,8.1v215c0,3.5,1.2,6.1,3.3,6.9l.1-.1Z" fill="#263238"/>
          </g>
          <g id="Group_25068" data-name="Group 25068">
            <path id="Path_18734" data-name="Path 18734" d="M120.3,155l9.8,5,105-61.1,7-4.1-9.7-5.5-.3-.2h0c-1.5-.9-3.6-.9-5.8.4L126.9,147C124.3,148.5,121.9,151.5,120.3,155Z" fill="#002323"/>
            <path id="Path_18735" data-name="Path 18735" d="M130.1,160.5c-.1,0-.2,0-.2-.1l-9.8-5a.574.574,0,0,1-.2-.7c1.7-3.7,4.2-6.7,6.9-8.2l99.4-57.4c2.3-1.3,4.5-1.5,6.3-.4a.1.1,0,0,1,.1.1l.2.1,9.7,5.5a.536.536,0,0,1,.3.4.52.52,0,0,1-.2.4l-112,65.2A1.338,1.338,0,0,1,130.1,160.5Zm-9.2-5.8,9.1,4.7L241,94.8l-9.2-5.2a.1.1,0,0,1-.1-.1,5.007,5.007,0,0,0-5.2.5l-99.4,57.4A18.228,18.228,0,0,0,120.9,154.7Z" fill="#002323"/>
          </g>
          <path id="Path_18736" data-name="Path 18736" d="M127.8,169.1v214c0,3.4,1.1,5.8,2.8,6.9l.6.3a5.667,5.667,0,0,0,5.4-.6l48-27.7,51.3-30.9a18.752,18.752,0,0,0,8.8-15.5v-214c0-3.3-1-5.6-2.6-6.8a4.054,4.054,0,0,0-.9-.5,6.131,6.131,0,0,0-5.3.7l-99.4,58.4A14.819,14.819,0,0,0,130,160,22.935,22.935,0,0,0,127.8,169.1Z" fill="#fafafa"/>
        </g>
        <g id="Group_25070" data-name="Group 25070">
          <path id="Path_18737" data-name="Path 18737" d="M236,331.1c-20.5,12.2-73.7,44-100,59.8a5.137,5.137,0,0,1-7.8-4.4V166.4a14.4,14.4,0,0,1,7.1-12.4L236.5,94.7a5.213,5.213,0,0,1,7.8,4.5V316.6A17.312,17.312,0,0,1,236,331.1Z" fill="#e8f5d1"/>
          <path id="Path_18738" data-name="Path 18738" d="M235.7,330.7c-16.1,9.6-32.1,19.2-48.2,28.8L159,376.6c-4.3,2.6-8.7,5.2-13,7.8-1.9,1.1-3.8,2.3-5.7,3.4-1.7,1.1-3.6,2.6-5.5,3.2a4.785,4.785,0,0,1-6.2-4.6V167.1a14.391,14.391,0,0,1,7.1-12.6c2.3-1.4,4.7-2.7,7-4.1l32.7-19.2c12.9-7.6,25.8-15.1,38.7-22.7,7.3-4.3,14.7-8.6,22-12.9,2.3-1.3,5.2-1.2,6.7,1.2a5.869,5.869,0,0,1,.8,3.2V316a16.739,16.739,0,0,1-7.9,14.7c-.5.3,0,1.2.5.9a17.8,17.8,0,0,0,8.5-15.7V115.2c0-5.2.1-10.5,0-15.7a5.791,5.791,0,0,0-8.9-5c-2.4,1.4-4.9,2.8-7.3,4.3-11.2,6.6-22.4,13.1-33.6,19.7-13,7.6-26.1,15.3-39.1,22.9-6.9,4.1-13.8,8.1-20.7,12.2a15.144,15.144,0,0,0-7.5,13.3V386.5a5.7,5.7,0,0,0,7.4,5.4,24.335,24.335,0,0,0,5.4-3.1c1.9-1.2,3.9-2.3,5.8-3.5,4.3-2.6,8.6-5.2,13-7.8q28.35-16.95,56.8-33.9c6.7-4,13.5-8.1,20.2-12.1A.474.474,0,1,0,235.7,330.7Z" fill="#ebebeb"/>
        </g>
        <path id="Path_18739" data-name="Path 18739" d="M135.2,154,236.4,94.7a5.213,5.213,0,0,1,7.8,4.5v9.5h0l-116.1,67v-9.3A14.4,14.4,0,0,1,135.2,154Z" fill="#455a64"/>
      </g>
      <g id="Group_25075" data-name="Group 25075">
        <ellipse id="Ellipse_946" data-name="Ellipse 946" cx="37.2" cy="21.5" rx="37.2" ry="21.5" transform="matrix(0.5, -0.866, 0.866, 0.5, 148.94, 216.759)" fill="#f8f4ef"/>
        <ellipse id="Ellipse_947" data-name="Ellipse 947" cx="37.2" cy="21.5" rx="37.2" ry="21.5" transform="matrix(0.5, -0.866, 0.866, 0.5, 148.94, 216.759)" fill="#fff" opacity="0.5"/>
        <g id="Group_25074" data-name="Group 25074">
          <path id="Path_18740" data-name="Path 18740" d="M181.5,195.4a1.155,1.155,0,0,1-1.2-1.2v-7.8a11.544,11.544,0,0,1,5.3-9.2c1.6-.9,3.2-1.1,4.5-.3a4.387,4.387,0,0,1,2,4.1v7.8a1.2,1.2,0,1,1-2.4,0V181a2.222,2.222,0,0,0-.8-2,2.307,2.307,0,0,0-2.2.3,9.413,9.413,0,0,0-4.1,7.1v7.8A1.135,1.135,0,0,1,181.5,195.4Z" fill="#37474f"/>
          <g id="Group_25072" data-name="Group 25072">
            <path id="Path_18741" data-name="Path 18741" d="M195.7,183.8a1.792,1.792,0,0,0-1.7.2l-15.7,9.1a6.852,6.852,0,0,0-1.7,1.7,7.045,7.045,0,0,0-1,3.4v13.6a2.564,2.564,0,0,0,.8,2.1c.1.1.2.1.3.2h0a1.588,1.588,0,0,0,1.6-.2l15.7-9.1a6.522,6.522,0,0,0,2.7-5.1V186A2.341,2.341,0,0,0,195.7,183.8Z" fill="#dee965"/>
          </g>
          <g id="Group_25073" data-name="Group 25073">
            <path id="Path_18742" data-name="Path 18742" d="M188,198l1.5,4.4-5.3,3.1,1.3-5.4.2-.8c-.9,0-1.5-.7-1.5-1.9a7.72,7.72,0,0,1,.2-1.5,5.969,5.969,0,0,1,2.4-3.2c1.5-.8,2.7-.2,2.7,1.5A6.05,6.05,0,0,1,188,198Z" fill="#455a64"/>
            <path id="Path_18743" data-name="Path 18743" d="M185.5,200l.2-.8c-.9,0-1.5-.7-1.5-1.9a7.72,7.72,0,0,1,.2-1.5l3.6,2.1,1.5,4.4Z" fill="#37474f"/>
          </g>
        </g>
      </g>
      <g id="Group_25080" data-name="Group 25080">
        <path id="Path_18744" data-name="Path 18744" d="M224.9,245.7l-77.5,44.8c-3.2,1.9-5.8-.1-5.8-4.4V274.4c0-4.3,2.6-9.2,5.8-11.1l77.5-44.8c3.2-1.9,5.8.1,5.8,4.4v11.7C230.8,238.8,228.2,243.8,224.9,245.7Z" fill="#fff"/>
        <g id="Group_25079" data-name="Group 25079">
          <g id="Group_25076" data-name="Group 25076">
            <rect id="Rectangle_2143" data-name="Rectangle 2143" width="1.5" height="12.4" transform="translate(159.9 262.1)" fill="#022d2d"/>
            <rect id="Rectangle_2144" data-name="Rectangle 2144" width="12.4" height="1.5" transform="matrix(0.866, -0.5, 0.5, 0.866, 154.867, 270.802)" fill="#022d2d"/>
            <rect id="Rectangle_2145" data-name="Rectangle 2145" width="1.5" height="8.8" transform="matrix(0.5, -0.866, 0.866, 0.5, 156.478, 266.794)" fill="#022d2d"/>
            <rect id="Rectangle_2146" data-name="Rectangle 2146" width="15.2" height="1.5" transform="matrix(0.5, -0.866, 0.866, 0.5, 156.161, 274.567)" fill="#022d2d"/>
          </g>
          <g id="Group_25077" data-name="Group 25077">
            <rect id="Rectangle_2147" data-name="Rectangle 2147" width="1.5" height="12.4" transform="translate(185.4 248.2)" fill="#022d2d"/>
            <rect id="Rectangle_2148" data-name="Rectangle 2148" width="12.4" height="1.5" transform="matrix(0.866, -0.5, 0.5, 0.866, 180.476, 256.882)" fill="#022d2d"/>
            <rect id="Rectangle_2149" data-name="Rectangle 2149" width="1.5" height="8.8" transform="matrix(0.5, -0.866, 0.866, 0.5, 181.95, 252.89)" fill="#022d2d"/>
            <rect id="Rectangle_2150" data-name="Rectangle 2150" width="15.2" height="1.5" transform="matrix(0.5, -0.866, 0.866, 0.5, 181.769, 260.626)" fill="#022d2d"/>
          </g>
          <g id="Group_25078" data-name="Group 25078">
            <rect id="Rectangle_2151" data-name="Rectangle 2151" width="1.5" height="12.4" transform="translate(211 234.3)" fill="#022d2d"/>
            <rect id="Rectangle_2152" data-name="Rectangle 2152" width="12.4" height="1.5" transform="matrix(0.866, -0.5, 0.5, 0.866, 205.928, 242.936)" fill="#022d2d"/>
            <rect id="Rectangle_2153" data-name="Rectangle 2153" width="1.5" height="8.8" transform="matrix(0.5, -0.866, 0.866, 0.5, 207.558, 238.951)" fill="#022d2d"/>
            <rect id="Rectangle_2154" data-name="Rectangle 2154" width="15.2" height="1.5" transform="matrix(0.5, -0.866, 0.866, 0.5, 207.222, 246.708)" fill="#022d2d"/>
          </g>
        </g>
      </g>
      <g id="Group_25081" data-name="Group 25081">
        <path id="Path_18745" data-name="Path 18745" d="M227.3,261.8c1,0,1.5,1.6,1.5,3.1v11.7c0,3.6-2.2,7.9-4.8,9.4l-77.5,44.8a2.421,2.421,0,0,1-1.3.4c-1,0-1.5-1.6-1.5-3.1V316.4c0-3.6,2.2-7.9,4.8-9.4L226,262.2a3.259,3.259,0,0,1,1.3-.4m0-2a4.35,4.35,0,0,0-2.3.7l-77.5,44.8c-3.2,1.9-5.8,6.8-5.8,11.1v11.7c0,3.2,1.4,5.1,3.5,5.1a4.35,4.35,0,0,0,2.3-.7L225,287.7c3.2-1.9,5.8-6.8,5.8-11.1V264.9c0-3.2-1.5-5.1-3.5-5.1Z" fill="#fff"/>
      </g>
    </g>
    <g id="Icons">
      <g id="Group_25082" data-name="Group 25082">
        <path id="Path_18746" data-name="Path 18746" d="M341.4,128.3a4.908,4.908,0,0,0,2.3,3.9c1.3.7,2.3.1,2.3-1.3a4.908,4.908,0,0,0-2.3-3.9C342.4,126.3,341.4,126.9,341.4,128.3Z" fill="#455a64"/>
        <path id="Path_18747" data-name="Path 18747" d="M310.4,137.6a11.97,11.97,0,0,1-5.7-1.7l-7.3-4.2a.515.515,0,1,1,.5-.9l7.3,4.2c3.2,1.8,6.1,2.1,8.3.8,2.1-1.2,3.3-3.9,3.3-7.4,0-3.9,1.3-6.8,3.8-8.2,2.5-1.5,5.8-1.2,9.3.8l11.8,6.7a.515.515,0,1,1-.5.9l-11.8-6.7c-3.2-1.8-6.1-2.1-8.3-.8-2.1,1.2-3.3,3.9-3.3,7.4,0,3.9-1.3,6.8-3.8,8.2A7.4,7.4,0,0,1,310.4,137.6Z" fill="#455a64"/>
        <path id="Path_18748" data-name="Path 18748" d="M294.3,129.5a3.921,3.921,0,0,0,1.9,3.2,1.166,1.166,0,0,0,1.9-1.1,3.921,3.921,0,0,0-1.9-3.2C295.1,127.9,294.3,128.3,294.3,129.5Z" fill="#455a64"/>
      </g>
      <g id="Group_25083" data-name="Group 25083">
        <path id="Path_18749" data-name="Path 18749" d="M341.4,215.7a4.908,4.908,0,0,0,2.3,3.9c1.3.7,2.3.1,2.3-1.3a4.908,4.908,0,0,0-2.3-3.9C342.4,213.7,341.4,214.3,341.4,215.7Z" fill="#455a64"/>
        <path id="Path_18750" data-name="Path 18750" d="M341.5,216.8c-.1,0-.2,0-.2-.1L329.5,210c-6.9-3.9-12.6-13.5-12.6-21.4,0-7.5-5.4-16.7-12.1-20.5l-7.4-4.2a.515.515,0,1,1,.5-.9l7.4,4.2c6.9,3.9,12.6,13.5,12.6,21.4,0,7.5,5.4,16.7,12.1,20.5l11.8,6.7a.574.574,0,0,1,.2.7C341.8,216.7,341.7,216.8,341.5,216.8Z" fill="#455a64"/>
        <path id="Path_18751" data-name="Path 18751" d="M294.3,161.5a3.921,3.921,0,0,0,1.9,3.2,1.166,1.166,0,0,0,1.9-1.1,3.921,3.921,0,0,0-1.9-3.2C295.1,159.9,294.3,160.4,294.3,161.5Z" fill="#455a64"/>
      </g>
      <g id="Group_25084" data-name="Group 25084">
        <path id="Path_18752" data-name="Path 18752" d="M412.6,118.9l-49-27.7a3.136,3.136,0,0,0-3.6,0l-4.2,2.9,2.9,3.6v51.6c0,3.6,2.2,7.8,4.9,9.4l47.8,27,.2,3.8,4.5-3.1a4.621,4.621,0,0,0,1.4-3.8V128.2C417.5,124.6,415.3,120.4,412.6,118.9Z" fill="#dee965"/>
        <path id="Path_18753" data-name="Path 18753" d="M412.6,118.9l-49-27.7a3.136,3.136,0,0,0-3.6,0l-4.2,2.9,2.9,3.6v51.6c0,3.6,2.2,7.8,4.9,9.4l47.8,27,.2,3.8,4.5-3.1a4.621,4.621,0,0,0,1.4-3.8V128.2C417.5,124.6,415.3,120.4,412.6,118.9Z" opacity="0.3"/>
        <path id="Path_18754" data-name="Path 18754" d="M408.4,189.2l-49-27.7c-2.7-1.6-4.9-5.8-4.9-9.4V97.7c0-3.6,2.2-5.3,4.9-3.7l49,27.7c2.7,1.6,4.9,5.8,4.9,9.4v54.4C413.3,189.1,411.1,190.8,408.4,189.2Z" fill="#dee965"/>
      </g>
      <g id="Group_25085" data-name="Group 25085">
        <path id="Path_18755" data-name="Path 18755" d="M398.1,142.2a.51.51,0,0,1-.5-.4,39.362,39.362,0,0,0-4.8-10.9.515.515,0,0,1,.9-.5,38.57,38.57,0,0,1,4.9,11.2c.1.3-.1.5-.4.6C398.2,142.1,398.2,142.2,398.1,142.2Z" fill="#fff"/>
        <path id="Path_18756" data-name="Path 18756" d="M399.3,152.3h0a.536.536,0,0,1-.5-.5c0-.5.1-1.1.1-1.7a30.353,30.353,0,0,0-.5-5.1.51.51,0,1,1,1-.2,32.7,32.7,0,0,1,.5,5.3,9.149,9.149,0,0,1-.1,1.7C399.7,152.1,399.5,152.3,399.3,152.3Z" fill="#fff"/>
        <path id="Path_18757" data-name="Path 18757" d="M368.7,135.7a.472.472,0,0,1-.5-.5,22.6,22.6,0,0,1-.1-2.6c0-4.9,1.3-8.9,3.7-11.3a.495.495,0,1,1,.7.7c-2.2,2.2-3.4,6-3.4,10.6a21.749,21.749,0,0,0,.1,2.5c0,.4-.2.6-.5.6Z" fill="#fff"/>
        <path id="Path_18758" data-name="Path 18758" d="M390.8,127.6a.758.758,0,0,1-.4-.2,25.843,25.843,0,0,0-6.7-5.9c-3.3-1.9-6.4-2.2-9-1a.663.663,0,0,1-.7-.2.618.618,0,0,1,.2-.7c2.9-1.3,6.3-1,9.9,1.1a26.236,26.236,0,0,1,7,6.1.494.494,0,0,1-.1.7C391,127.6,390.9,127.6,390.8,127.6Z" fill="#fff"/>
        <path id="Path_18759" data-name="Path 18759" d="M372.1,136.1a.472.472,0,0,1-.5-.5v-.9c0-3.6.9-6.5,2.5-8.4a.5.5,0,0,1,.8.6c-1.5,1.7-2.3,4.4-2.3,7.7v.9c0,.4-.2.6-.5.6Z" fill="#fff"/>
        <path id="Path_18760" data-name="Path 18760" d="M376,125.8a.52.52,0,0,1-.4-.2.527.527,0,0,1,.2-.7,6.222,6.222,0,0,1,4.2-.9c.3,0,.5.3.4.5,0,.3-.3.5-.5.4a5.514,5.514,0,0,0-3.6.8A.367.367,0,0,1,376,125.8Z" fill="#fff"/>
        <path id="Path_18761" data-name="Path 18761" d="M398.1,158.7a.55.55,0,0,1-.5-.3l-.6-1.5a23.47,23.47,0,0,1-1.8-8.8c0-8.5-5.2-18.3-11.6-21.9a.515.515,0,1,1,.5-.9c6.7,3.8,12.1,14,12.1,22.7a23.832,23.832,0,0,0,1.7,8.5l.6,1.4c.1.3,0,.5-.3.7C398.3,158.7,398.2,158.7,398.1,158.7Z" fill="#fff"/>
        <path id="Path_18762" data-name="Path 18762" d="M375.2,153a.55.55,0,0,1-.5-.3,62.794,62.794,0,0,1-3.1-14.6.472.472,0,0,1,.5-.5.536.536,0,0,1,.5.5,62.732,62.732,0,0,0,3,14.3.419.419,0,0,1-.3.6Z" fill="#fff"/>
        <path id="Path_18763" data-name="Path 18763" d="M395.2,162.1a.55.55,0,0,1-.5-.3l-1.3-3.6a32.587,32.587,0,0,1-2.2-11v-3.9c0-4.7-3.4-10.4-7.5-12.7-1.9-1.1-3.7-1.3-5-.5-1.3.7-2,2.3-2,4.5v3.5a48.88,48.88,0,0,0,3.3,16.5l1.7,4.3a.474.474,0,1,1-.9.3l-1.7-4.3a48.438,48.438,0,0,1-3.4-16.9v-3.5c0-2.5.9-4.4,2.5-5.3s3.8-.8,6,.5c4.4,2.5,8,8.6,8,13.6v3.9a29.8,29.8,0,0,0,2.1,10.6l1.3,3.6a.419.419,0,0,1-.3.6C395.3,162.1,395.3,162.1,395.2,162.1Z" fill="#fff"/>
        <path id="Path_18764" data-name="Path 18764" d="M390.8,163.6a.51.51,0,0,1-.5-.4l-.7-2.4a46.5,46.5,0,0,1-2-12.8v-6a8.6,8.6,0,0,0-4-6.8,2.368,2.368,0,0,0-2.5-.3,2.651,2.651,0,0,0-1,2.3c0,6.8,2.1,14.5,5.8,21.9l1.4,2.8a.515.515,0,0,1-.9.5l-1.4-2.8c-3.8-7.5-5.9-15.5-5.9-22.4a3.185,3.185,0,0,1,1.5-3.1,3.241,3.241,0,0,1,3.5.3,9.792,9.792,0,0,1,4.5,7.7v6.1a44.492,44.492,0,0,0,2,12.5l.7,2.4a.486.486,0,0,1-.3.6C390.9,163.5,390.8,163.6,390.8,163.6Z" fill="#fff"/>
        <path id="Path_18765" data-name="Path 18765" d="M385.2,153a.664.664,0,0,1-.5-.4l-.5-2.1a33.764,33.764,0,0,1-.7-6.3v-5.6a.5.5,0,1,1,1,0v5.6a29.784,29.784,0,0,0,.6,6l.5,2.1c.1.3-.1.5-.4.6C385.3,153,385.2,153,385.2,153Z" fill="#fff"/>
        <path id="Path_18766" data-name="Path 18766" d="M369.8,142.2a.472.472,0,0,1-.5-.5l-.3-2.9a.453.453,0,0,1,.9-.1l.3,2.9c.1.3-.1.5-.4.6Z" fill="#fff"/>
      </g>
      <g id="Group_25086" data-name="Group 25086">
        <path id="Path_18767" data-name="Path 18767" d="M412.6,211.5l-49-27.7a3.136,3.136,0,0,0-3.6,0l-4.2,2.9,2.9,3.6v51.6c0,3.6,2.2,7.8,4.9,9.4l47.8,27,.2,3.8,4.5-3.1a4.621,4.621,0,0,0,1.4-3.8V220.8C417.5,217.3,415.3,213.1,412.6,211.5Z" fill="#dee965"/>
        <path id="Path_18768" data-name="Path 18768" d="M412.6,211.5l-49-27.7a3.136,3.136,0,0,0-3.6,0l-4.2,2.9,2.9,3.6v51.6c0,3.6,2.2,7.8,4.9,9.4l47.8,27,.2,3.8,4.5-3.1a4.621,4.621,0,0,0,1.4-3.8V220.8C417.5,217.3,415.3,213.1,412.6,211.5Z" opacity="0.3"/>
        <path id="Path_18769" data-name="Path 18769" d="M408.4,281.9l-49-27.7c-2.7-1.6-4.9-5.8-4.9-9.4V190.4c0-3.6,2.2-5.3,4.9-3.7l49,27.7c2.7,1.6,4.9,5.8,4.9,9.4v54.4C413.3,281.8,411.1,283.4,408.4,281.9Z" fill="#dee965"/>
      </g>
      <g id="Group_25087" data-name="Group 25087">
        <path id="Path_18770" data-name="Path 18770" d="M365.4,205.5a.472.472,0,0,1-.5-.5v-3.4a1.893,1.893,0,0,1,.9-1.6,1.654,1.654,0,0,1,1.9,0l3.5,2a.515.515,0,1,1-.5.9l-3.5-2a.908.908,0,0,0-1,0,1.02,1.02,0,0,0-.5.8v3.4C365.9,205.3,365.7,205.5,365.4,205.5Z" fill="#fff"/>
        <path id="Path_18771" data-name="Path 18771" d="M371.1,251.9c-.1,0-.2,0-.2-.1l-3.3-1.9a5.128,5.128,0,0,1-2.6-4.5v-3.1a.5.5,0,1,1,1,0v3.1a4.08,4.08,0,0,0,2.1,3.6l3.3,1.9a.574.574,0,0,1,.2.7A.55.55,0,0,1,371.1,251.9Z" fill="#fff"/>
        <path id="Path_18772" data-name="Path 18772" d="M401,268.6a1.93,1.93,0,0,1-1-.3l-3.5-2a.515.515,0,0,1,.5-.9l3.5,2a.908.908,0,0,0,1,0,1.02,1.02,0,0,0,.5-.8v-3.4a.5.5,0,0,1,1,0v3.4a1.893,1.893,0,0,1-.9,1.6A1.862,1.862,0,0,1,401,268.6Z" fill="#fff"/>
        <path id="Path_18773" data-name="Path 18773" d="M402.4,226.5a.472.472,0,0,1-.5-.5v-3.1a4.08,4.08,0,0,0-2.1-3.6l-3.3-1.9a.515.515,0,1,1,.5-.9l3.3,1.9a5.128,5.128,0,0,1,2.6,4.5V226A.472.472,0,0,1,402.4,226.5Z" fill="#fff"/>
      </g>
      <g id="Group_25088" data-name="Group 25088">
        <path id="Path_18774" data-name="Path 18774" d="M369.9,222.4a69.493,69.493,0,0,0,2.4,16.8c3.8,14.3,18.8,23.1,22.9,13.4a39.084,39.084,0,0,0,2.8-15.1c0-8.8-6.3-19.5-14.1-23.9C376,209.2,369.8,213.3,369.9,222.4Z" fill="#fff"/>
      </g>
      <path id="Path_18775" data-name="Path 18775" d="M383.4,230.4v9.4l-4.1-3.1Z" fill="#e0e0e0"/>
      <g id="Group_25089" data-name="Group 25089">
        <path id="Path_18776" data-name="Path 18776" d="M375.8,224.8a3.037,3.037,0,0,0,1.3,2.3c.7.4,1.3.1,1.3-.8a3.037,3.037,0,0,0-1.3-2.3C376.4,223.6,375.8,223.9,375.8,224.8Z" fill="#e0e0e0"/>
        <path id="Path_18777" data-name="Path 18777" d="M388.4,231.9a3.037,3.037,0,0,0,1.3,2.3c.7.4,1.3.1,1.3-.8a3.037,3.037,0,0,0-1.3-2.3C389,230.7,388.4,231.1,388.4,231.9Z" fill="#e0e0e0"/>
      </g>
      <path id="Path_18778" data-name="Path 18778" d="M382.1,244.4l4.6-.8S385.7,248.5,382.1,244.4Z" fill="#e0e0e0"/>
    </g>
    <g id="Character">
      <g id="Group_25091" data-name="Group 25091">
        <path id="Path_18779" data-name="Path 18779" d="M308.4,253.2s7.3-.5,11.4,9.6c2.6,6.3,5.7,16,7.7,22.5a10.422,10.422,0,0,1-3.3,11.1l-12.7,10.7-4.5-8.3a87.169,87.169,0,0,1,8.7-9.9l-8.7-26Z" fill="#ffb087"/>
        <path id="Path_18780" data-name="Path 18780" d="M311.7,284.1s11.6,1.5,14.5-7.4c0,0-5-13.1-7.2-17.4-2.3-4.3-6.9-7.5-10.6-6.1S311.7,284.1,311.7,284.1Z" fill="#dee965"/>
        <path id="Path_18781" data-name="Path 18781" d="M311.7,284.1s11.6,1.5,14.5-7.4c0,0-5-13.1-7.2-17.4-2.3-4.3-6.9-7.5-10.6-6.1S311.7,284.1,311.7,284.1Z" fill="#fff" opacity="0.4"/>
        <path id="Path_18782" data-name="Path 18782" d="M304,401.4s-5.5-4.7-7.6-4.9-5.8,3.4-2.7,9.8c.9,1.8,4.4,3.7,6.6,7.1s4.2,5.9,7.6,5.5c3.4-.5,3.8-2.4,3.6-4.6a49.238,49.238,0,0,0-1.2-6Z" fill="#37474f"/>
        <path id="Path_18783" data-name="Path 18783" d="M308,417.8c-3.5.5-5.5-2.1-7.8-5.6s-5.9-5.5-6.8-7.3a13.566,13.566,0,0,1-.9-2.3,12.6,12.6,0,0,0,1.1,3.7c.9,1.8,4.4,3.7,6.6,7.1s4.2,5.9,7.6,5.5c2.6-.4,3.5-1.6,3.6-3.1C311,416.7,310,417.5,308,417.8Z" fill="#263238"/>
        <path id="Path_18784" data-name="Path 18784" d="M301.1,407.5a.367.367,0,0,1-.3-.1.443.443,0,0,1-.2-.7,8.99,8.99,0,0,1,5.2-4.1.51.51,0,1,1,.2,1,7.99,7.99,0,0,0-4.5,3.5A.366.366,0,0,1,301.1,407.5Z" fill="#ebebeb"/>
        <path id="Path_18785" data-name="Path 18785" d="M299,405.6a.367.367,0,0,1-.3-.1.443.443,0,0,1-.2-.7,8.99,8.99,0,0,1,5.2-4.1.51.51,0,1,1,.2,1,7.99,7.99,0,0,0-4.5,3.5A.366.366,0,0,1,299,405.6Z" fill="#ebebeb"/>
        <path id="Path_18786" data-name="Path 18786" d="M296.7,403.7a.367.367,0,0,1-.3-.1.443.443,0,0,1-.2-.7,8.99,8.99,0,0,1,5.2-4.1.441.441,0,0,1,.6.4c0,.3-.1.6-.4.6a7.99,7.99,0,0,0-4.5,3.5C297,403.6,296.9,403.7,296.7,403.7Z" fill="#ebebeb"/>
        <path id="Path_18787" data-name="Path 18787" d="M274.7,416.9s-7.4-2.4-9.6-1.7-4.4,5.8,1.3,10.8c1.6,1.4,5.9,1.8,9.4,4.3,3.6,2.4,6.6,4.1,9.7,2.3,3.2-1.8,2.9-4,2.3-6.3-.7-2.9-1.3-5.1-1.3-5.1Z" fill="#37474f"/>
        <path id="Path_18788" data-name="Path 18788" d="M285.4,431.4c-3.3,1.9-6.4.2-10-2.4-3.7-2.5-8.1-3-9.7-4.4a15.728,15.728,0,0,1-1.8-1.9,14.055,14.055,0,0,0,2.6,3.2c1.6,1.4,5.9,1.8,9.4,4.3,3.6,2.4,6.6,4.1,9.7,2.3,2.4-1.4,2.8-3,2.3-4.6C288,429.1,287.3,430.3,285.4,431.4Z" fill="#263238"/>
        <path id="Path_18789" data-name="Path 18789" d="M273,423.7h0a.5.5,0,0,1-.5-.6,8.907,8.907,0,0,1,3.4-6.1.5.5,0,0,1,.6.8,8.423,8.423,0,0,0-3,5.3A.562.562,0,0,1,273,423.7Z" fill="#ebebeb"/>
        <path id="Path_18790" data-name="Path 18790" d="M276,424.7h0a.5.5,0,0,1-.5-.6,8.907,8.907,0,0,1,3.4-6.1.5.5,0,0,1,.6.8,8.423,8.423,0,0,0-3,5.3A.56.56,0,0,1,276,424.7Z" fill="#ebebeb"/>
        <path id="Path_18791" data-name="Path 18791" d="M270.2,422.6h0a.5.5,0,0,1-.5-.6,8.907,8.907,0,0,1,3.4-6.1.5.5,0,1,1,.6.8,8.423,8.423,0,0,0-3,5.3A.562.562,0,0,1,270.2,422.6Z" fill="#ebebeb"/>
        <g id="Group_25090" data-name="Group 25090">
          <path id="Path_18792" data-name="Path 18792" d="M310.6,402.8c.7-7.3,2.1-18.7,2.7-24.1a66.4,66.4,0,0,0-.6-20.3,15.494,15.494,0,0,1-.2-4.8c1.4-14.5,2.4-38.1,1.6-43.3l-20.4,4.3s2.5,33.1,3.6,44.1c1.1,11.1,5.2,44.2,5.2,44.2A7.342,7.342,0,0,0,310.6,402.8Z" fill="#455a64"/>
          <path id="Path_18793" data-name="Path 18793" d="M307.7,410.3a3.836,3.836,0,0,0,2.6-2.1c0-1.2.1-3.1.3-5.4a7.342,7.342,0,0,1-8.1.1l.7,6.1A5.038,5.038,0,0,0,307.7,410.3Z" fill="#ffb087"/>
        </g>
        <path id="Path_18794" data-name="Path 18794" d="M287.6,415.6c.8-11.1,2.4-32.5,2.7-35.8a57.071,57.071,0,0,0-.7-11.1,17.275,17.275,0,0,1,0-6l9-49.8-24.7-.4-1.6,52.1a13.4,13.4,0,0,0,.1,2l5.2,48.6h0C277.6,415.3,282.7,419.6,287.6,415.6Z" fill="#455a64"/>
        <path id="Path_18795" data-name="Path 18795" d="M283.5,424.8a4.708,4.708,0,0,0,3.6-2.5s.2-2.6.5-6.6c-4.9,4-10-.3-10-.3h0l.8,7.3C278.4,422.6,279.6,425.1,283.5,424.8Z" fill="#ffb087"/>
        <path id="Path_18796" data-name="Path 18796" d="M285.3,256.5l-5.8,2-6.3,29.6.3,26.3s4.5,3.6,21.9,3.6c9.8,0,16.2-3.7,18.6-7.6l-1.6-15.9s1.6-15.6,1.6-23.4c0-7.7.3-14.1-5.7-17.9l-5.4.4Z" fill="#dee965"/>
        <path id="Path_18797" data-name="Path 18797" d="M285.3,256.5l-5.8,2-6.3,29.6.3,26.3s4.5,3.6,21.9,3.6c9.8,0,16.2-3.7,18.6-7.6l-1.6-15.9s1.6-15.6,1.6-23.4c0-7.7.3-14.1-5.7-17.9l-5.4.4Z" fill="#fff" opacity="0.2"/>
        <path id="Path_18798" data-name="Path 18798" d="M279,231.1l-2.9,5.8a.608.608,0,0,0,.4.9L280,239Z" fill="#ffb087"/>
        <path id="Path_18799" data-name="Path 18799" d="M283,221.4s-4.4,2.4-4.4,16c0,7.5.5,12.3,4.4,12s15.1-1.8,15.1-1.8V221.3H283Z" fill="#ffb087"/>
        <path id="Path_18800" data-name="Path 18800" d="M283,249.4c1.4-.1,3.7-.4,6-.6v-1.4a31.418,31.418,0,0,1-6.7,2A.846.846,0,0,0,283,249.4Z" fill="#ffb087"/>
        <path id="Path_18801" data-name="Path 18801" d="M288.4,246.8v8.6h11.7v-12Z" fill="#ffb087"/>
        <path id="Path_18802" data-name="Path 18802" d="M288.4,252.1s4.2,1.5,7.6.9,4.1-2.7,4.1-2.7,1.1-.1,2.9,3.2a8.7,8.7,0,0,1-6.8,4.4,26.041,26.041,0,0,1-10.8-1.5S287,251.7,288.4,252.1Z" fill="#ef4b0e"/>
        <path id="Path_18803" data-name="Path 18803" d="M288.4,252.1s4.2,1.5,7.6.9,4.1-2.7,4.1-2.7,1.1-.1,2.9,3.2a8.7,8.7,0,0,1-6.8,4.4,26.041,26.041,0,0,1-10.8-1.5S287,251.7,288.4,252.1Z" fill="#ffb087" opacity="0.4"/>
        <path id="Path_18804" data-name="Path 18804" d="M262.2,277.6l-3.2,4.8s-7.6-3.4-13-5.5a31.456,31.456,0,0,1-8.6-4.9,47.6,47.6,0,0,1,1-6.2c.6-2.1.8-3.9-1-2.9-1.9.9-3.1,4.5-3.2,5,0,0-10.8-10.8-12.1-10.6s-1,1.9,1.9,5.2l2.9,3.3s-6.6,3.8-5.5,7.9,9.8,6,9.8,6,25.4,19.5,31.1,16c5.6-3.5,13.6-13.6,13.6-13.6Z" fill="#ffb087"/>
        <path id="Path_18805" data-name="Path 18805" d="M281.8,257.8s4.7,3.9,1.6,11.8c-3.1,8-10.9,17.6-10.9,17.6s-8.2-2.5-11.3-9.2l10.3-16.1a8.865,8.865,0,0,1,6.8-4C279.3,257.8,280.4,257.8,281.8,257.8Z" fill="#dee965"/>
        <path id="Path_18806" data-name="Path 18806" d="M281.8,257.8s4.7,3.9,1.6,11.8c-3.1,8-10.9,17.6-10.9,17.6s-8.2-2.5-11.3-9.2l10.3-16.1a8.865,8.865,0,0,1,6.8-4C279.3,257.8,280.4,257.8,281.8,257.8Z" fill="#fff" opacity="0.4"/>
        <path id="Path_18807" data-name="Path 18807" d="M281.3,213.4s-4.6-.6-5.8,2.6c-.7,2,1.6,3.5,1.6,3.5s-3,2.8,1.5,3.7a2.917,2.917,0,0,0,3.6,3.3s-.5,3,3.4,4.1c0,0-2,5.3,1.7,5.3h3.5l-1.4,4.1s2.6,6.3,10.7,6.3a58.843,58.843,0,0,1,3-5.5c1-1.3,6-7.7,6-12.7,0-5.1-2-8.1-4.7-8.8a11.729,11.729,0,0,0-3.9-4.6c-2.7-1.8-8.5-3.5-11.7-1.2,0,0-2.9-3.8-4.9-3.8C282,209.5,281.3,211.6,281.3,213.4Z" fill="#263238"/>
        <path id="Path_18808" data-name="Path 18808" d="M287.4,235.9s-.3-5.3,4.2-5.3,3.4,9.4-2.1,9.4Z" fill="#ffb087"/>
      </g>
    </g>
  </g>
</svg>
