<svg xmlns="http://www.w3.org/2000/svg" width="453.52" height="460.078" viewBox="0 0 453.52 460.078">
  <g id="illustration" transform="translate(-23.24 -18.687)">
    <g id="freepik--background-complete--inject-6">
      <path id="Path_14" data-name="Path 14" d="M184.2,60.9a34.22,34.22,0,1,1-13.551-22.434A34.27,34.27,0,0,1,184.2,60.9Z" fill="#ffb087"/>
      <path id="Path_15" data-name="Path 15" d="M176.14,62.12a26.12,26.12,0,1,1-29.71-21.87,26.12,26.12,0,0,1,29.71,21.87Z" fill="#2e5338"/>
      <path id="Path_16" data-name="Path 16" d="M176,61.31a17.877,17.877,0,0,1-1.15-3,27.72,27.72,0,0,0-4.17-7.47,26.561,26.561,0,0,0-4.13-4.17,25.712,25.712,0,0,0-12.83-5.5,25.231,25.231,0,0,0-3.91-.2,26.351,26.351,0,0,0-4,.41,27.43,27.43,0,0,0-3.89,1A24.57,24.57,0,0,0,138.34,44a23.05,23.05,0,0,0-3.19,2,24.337,24.337,0,0,0-2.75,2.36,26.27,26.27,0,0,0-4.12,5.3A27.309,27.309,0,0,0,125.9,59a27.6,27.6,0,0,0-1.25,8.46,19.376,19.376,0,0,1,0,3.21c-.14.03-.51-1.08-.77-3.17a24.12,24.12,0,0,1,.67-8.89,26.37,26.37,0,0,1,6.54-11.57,26.93,26.93,0,0,1,6.32-4.82,26.251,26.251,0,0,1,3.85-1.73,27.92,27.92,0,0,1,4.2-1.13,29.13,29.13,0,0,1,4.33-.43,26.61,26.61,0,0,1,4.21.25,25.32,25.32,0,0,1,4,.88,24.73,24.73,0,0,1,3.64,1.4A26.25,26.25,0,0,1,171.83,50a24.43,24.43,0,0,1,3.78,8.08C176.11,60.12,176.13,61.29,176,61.31Z" fill="#fff"/>
      <path id="Path_17" data-name="Path 17" d="M155.56,81l.74,4.49-4,.66-.73-4.36c-4,.41-8-.2-10.5-1.56L142.46,75a16.4,16.4,0,0,0,8.25,1.56l-1.11-6.69c-4.63-.35-9.84-1-10.79-6.74-.7-4.25,1.78-8.4,8-10.17l-.74-4.45,4-.66.72,4.36a18.44,18.44,0,0,1,8.54,1.1l-1.19,5.26a16.68,16.68,0,0,0-6.47-1.07l1.13,6.82c4.61.3,9.75,1,10.68,6.62C164.17,75.06,161.73,79.17,155.56,81Zm-6.94-17-.94-5.69c-2,.83-2.69,2.13-2.47,3.45s1.56,1.9,3.41,2.17Zm8.49,8.51c-.23-1.4-1.52-2-3.34-2.29l.92,5.53c1.93-.84,2.64-2.02,2.42-3.31Z" fill="#fff"/>
      <path id="Path_18" data-name="Path 18" d="M389.65,246.8a21,21,0,1,1-23.92-17.61,21,21,0,0,1,23.92,17.61Z" fill="#ffb087"/>
      <path id="Path_19" data-name="Path 19" d="M384.7,247.54a16,16,0,1,1-18.23-13.42A16,16,0,0,1,384.7,247.54Z" fill="#2e5338"/>
      <path id="Path_20" data-name="Path 20" d="M384.62,247.05a9.591,9.591,0,0,1-.7-1.84,17.451,17.451,0,0,0-2.56-4.59,17,17,0,0,0-2.54-2.56,16,16,0,0,0-3.51-2.15,15.719,15.719,0,0,0-4.36-1.23,16.131,16.131,0,0,0-4.86.13,17.119,17.119,0,0,0-2.39.63,16.11,16.11,0,0,0-2.2,1,15.509,15.509,0,0,0-2,1.24,16.122,16.122,0,0,0-5.69,8,17,17,0,0,0-.77,5.19,8.8,8.8,0,0,1,0,2,4.82,4.82,0,0,1-.47-1.95,14.891,14.891,0,0,1,.41-5.46,16.178,16.178,0,0,1,5.8-8.69,16.091,16.091,0,0,1,2.1-1.36,15.309,15.309,0,0,1,2.36-1.07,18.108,18.108,0,0,1,2.58-.69,17.11,17.11,0,0,1,2.65-.26,15.82,15.82,0,0,1,2.59.15,16,16,0,0,1,2.44.54,15.619,15.619,0,0,1,2.23.86,16,16,0,0,1,6.27,5.21,14.8,14.8,0,0,1,2.32,5,4.72,4.72,0,0,1,.3,1.9Z" fill="#e0e0e0"/>
      <path id="Path_21" data-name="Path 21" d="M372.07,259.11l.46,2.76-2.46.41-.45-2.68a11.77,11.77,0,0,1-6.44-1l.85-3.22a10,10,0,0,0,5.06,1l-.68-4.1c-2.84-.21-6-.62-6.62-4.14-.43-2.6,1.09-5.15,4.9-6.24l-.45-2.73,2.46-.41.44,2.68a11.32,11.32,0,0,1,5.24.68l-.72,3.23a10.08,10.08,0,0,0-4-.66l.69,4.18c2.84.19,6,.6,6.56,4.07C377.36,255.49,375.85,258,372.07,259.11Zm-4.26-10.46-.58-3.49c-1.25.51-1.65,1.31-1.51,2.12s.95,1.21,2.09,1.37Zm5.21,5.23c-.14-.86-.93-1.21-2-1.41l.56,3.4c1.14-.48,1.57-1.2,1.42-1.99Z" fill="#e0e0e0"/>
      <path id="Path_22" data-name="Path 22" d="M92.56,267.33a28.53,28.53,0,1,1-32.46-23.9,28.53,28.53,0,0,1,32.46,23.9Z" fill="#ffb087"/>
      <path id="Path_23" data-name="Path 23" d="M85.85,268.34a21.74,21.74,0,1,1-24.74-18.21A21.74,21.74,0,0,1,85.85,268.34Z" fill="#2d5237"/>
      <path id="Path_24" data-name="Path 24" d="M85.74,267.66a12.79,12.79,0,0,1-1-2.5A23.15,23.15,0,0,0,81.31,259a22.07,22.07,0,0,0-3.44-3.48,21.68,21.68,0,0,0-4.76-2.91,19.92,19.92,0,0,0-2.84-1,21,21,0,0,0-6.34-.81,22.251,22.251,0,0,0-3.33.34,21.229,21.229,0,0,0-11.18,5.83,21.63,21.63,0,0,0-5.4,8.88,23,23,0,0,0-1.05,7,12.75,12.75,0,0,1,0,2.68,6.56,6.56,0,0,1-.63-2.64,20,20,0,0,1,.56-7.4,21.59,21.59,0,0,1,5.44-9.63,22.32,22.32,0,0,1,5.26-4,21.639,21.639,0,0,1,3.21-1.44,22.281,22.281,0,0,1,7.1-1.3,22.67,22.67,0,0,1,3.51.21,22.111,22.111,0,0,1,3.31.73,22.384,22.384,0,0,1,3,1.17,22,22,0,0,1,5,3.24,22.64,22.64,0,0,1,3.49,3.83A20.11,20.11,0,0,1,85.4,265a6.5,6.5,0,0,1,.34,2.66Z" fill="#e0e0e0"/>
      <path id="Path_25" data-name="Path 25" d="M68.71,284l.62,3.74-3.34.55-.6-3.63a16.12,16.12,0,0,1-8.75-1.3L57.8,279a13.74,13.74,0,0,0,6.87,1.3l-.92-5.58c-3.86-.28-8.2-.83-9-5.6-.58-3.54,1.48-7,6.66-8.47L60.8,257l3.34-.55.6,3.64a15.27,15.27,0,0,1,7.11.91l-1,4.38a14,14,0,0,0-5.39-.89l.94,5.67c3.84.26,8.12.82,8.9,5.52C75.88,279.11,73.84,282.53,68.71,284Zm-5.78-14.19-.78-4.74c-1.7.7-2.24,1.78-2.06,2.88s1.3,1.67,2.84,1.89ZM70,276.93c-.19-1.17-1.26-1.64-2.78-1.9l.76,4.6C69.59,279,70.18,278,70,276.93Z" fill="#fff"/>
      <path id="Path_26" data-name="Path 26" d="M428.88,197.14,254.66,142.91a8.5,8.5,0,0,1-5.59-10.63L282.58,24.66a8.49,8.49,0,0,1,10.62-5.59L467.43,73.31A8.49,8.49,0,0,1,473,83.93L439.5,191.56A8.5,8.5,0,0,1,428.88,197.14Z" fill="#dee965"/>
      <path id="Path_27" data-name="Path 27" d="M277.3,101,274,111.6l-1.08-.34,3-9.6-2.5-.78.31-1Z" fill="#fff"/>
      <path id="Path_28" data-name="Path 28" d="M285.19,114l-.31,1-7.41-2.31.24-.77,5.73-2.94c1.56-.8,2-1.44,2.24-2.17.38-1.22-.25-2.24-1.86-2.75a3.81,3.81,0,0,0-3.26.28l-.56-.9a5,5,0,0,1,4.22-.35c2.14.67,3.16,2.18,2.61,4-.31,1-.91,1.82-2.76,2.77l-4.7,2.41Z" fill="#fff"/>
      <path id="Path_29" data-name="Path 29" d="M296.88,115.67l-2.12-.66-.86,2.78-1.09-.34.87-2.77-6-1.86L288,112l7.78-5.26,1.21.38-7.53,5.14,4.59,1.43.76-2.45,1.06.33-.77,2.45,2.12.66Z" fill="#fff"/>
      <path id="Path_30" data-name="Path 30" d="M313.08,120.72l-2.11-.66-.87,2.78-1.1-.34.87-2.78-6-1.86.25-.78,7.78-5.27,1.21.38-7.53,5.14,4.59,1.43.76-2.44,1.06.32-.76,2.45,2.11.66Z" fill="#fff"/>
      <path id="Path_31" data-name="Path 31" d="M322.42,123.26c-.56,1.8-2.25,2.81-4.83,2a5.76,5.76,0,0,1-3.37-2.54l.8-.7a4.8,4.8,0,0,0,2.86,2.23c1.8.56,3,0,3.43-1.3s-.17-2.47-2.85-3.3l-2.25-.7,2.19-5.14,5.79,1.8-.31,1-4.83-1.5-1.41,3.25,1.36.42C322.19,119.76,323,121.39,322.42,123.26Z" fill="#fff"/>
      <path id="Path_32" data-name="Path 32" d="M332.89,126.47c-.62,2-2.57,2.76-4.63,2.12-2.8-.87-3.72-3.3-2.68-6.64,1.11-3.59,3.66-4.85,6.53-4a5.1,5.1,0,0,1,2.33,1.36l-.71.74a3.82,3.82,0,0,0-1.9-1.14c-2.28-.71-4.2.3-5.1,3.17-.07.24-.15.55-.22.87a3.53,3.53,0,0,1,3.8-.8C332.41,122.84,333.49,124.53,332.89,126.47Zm-1.09-.31c.44-1.39-.31-2.6-1.95-3.11a2.56,2.56,0,0,0-3.43,1.47c-.36,1.16.26,2.56,2.09,3.13a2.41,2.41,0,0,0,3.29-1.49Z" fill="#fff"/>
      <path id="Path_33" data-name="Path 33" d="M347.31,131.09c-.55,1.77-2.26,2.73-4.81,1.93a5.77,5.77,0,0,1-3.38-2.54l.8-.7a4.8,4.8,0,0,0,2.89,2.24c1.75.55,3,0,3.38-1.28s-.23-2.38-2.2-3l-.75-.23.25-.8,4.07-2.76-5.41-1.68.3-1,6.8,2.12-.24.77L344.85,127C347.08,127.85,347.84,129.4,347.31,131.09Z" fill="#fff"/>
      <path id="Path_34" data-name="Path 34" d="M358,134.27c-.62,2-2.57,2.76-4.62,2.12-2.81-.87-3.73-3.3-2.69-6.63,1.12-3.6,3.66-4.86,6.53-4a5,5,0,0,1,2.33,1.36l-.71.74a3.84,3.84,0,0,0-1.9-1.14c-2.28-.71-4.2.3-5.09,3.17a6.862,6.862,0,0,0-.22.87,3.54,3.54,0,0,1,3.79-.8C357.47,130.64,358.55,132.33,358,134.27Zm-1.08-.31c.43-1.39-.32-2.6-1.95-3.1a2.56,2.56,0,0,0-3.44,1.46c-.36,1.16.26,2.57,2.09,3.14a2.43,2.43,0,0,0,3.25-1.46Z" fill="#fff"/>
      <path id="Path_35" data-name="Path 35" d="M370,129.88l-.24.77-7.48,8.42-1.17-.36,7.34-8.25-5.44-1.7-.62,2-1.07-.33.92-3Z" fill="#fff"/>
      <path id="Path_36" data-name="Path 36" d="M385.09,134.58l-.24.77-7.47,8.43-1.18-.37,7.34-8.25-5.44-1.69-.61,2-1.08-.34.92-2.94Z" fill="#002323"/>
      <path id="Path_37" data-name="Path 37" d="M393.12,145.45c-.58,1.87-2.53,2.54-5.05,1.76s-3.72-2.44-3.13-4.31a2.75,2.75,0,0,1,2.84-2,2.48,2.48,0,0,1-.93-2.84c.53-1.73,2.33-2.34,4.57-1.65s3.39,2.24,2.86,4a2.53,2.53,0,0,1-2.42,1.8,2.79,2.79,0,0,1,1.26,3.24Zm-1.11-.36c.4-1.3-.46-2.47-2.33-3.05s-3.23-.11-3.64,1.19.44,2.47,2.32,3.05,3.24.12,3.64-1.19Zm-2.07-3.91c1.65.51,2.86.08,3.22-1.07s-.44-2.24-2-2.74-2.84-.08-3.2,1.09S388.3,140.67,389.94,141.18Z" fill="#002323"/>
      <path id="Path_38" data-name="Path 38" d="M404.15,146.21c-1.12,3.6-3.67,4.86-6.54,4a5.1,5.1,0,0,1-2.33-1.36l.71-.74a4,4,0,0,0,1.9,1.14c2.28.71,4.2-.3,5.1-3.17.07-.24.15-.55.22-.87a3.55,3.55,0,0,1-3.8.8c-2.1-.65-3.18-2.35-2.57-4.28a3.478,3.478,0,0,1,4.62-2.12C404.27,140.45,405.18,142.87,404.15,146.21Zm-.85-2.56c.37-1.16-.26-2.57-2.08-3.14a2.43,2.43,0,0,0-3.3,1.5c-.43,1.38.31,2.59,1.95,3.1a2.55,2.55,0,0,0,3.43-1.46Z" fill="#002323"/>
      <path id="Path_39" data-name="Path 39" d="M416.48,144.35l-3.29,10.58-1.09-.34,3-9.61-2.49-.77.3-1Z" fill="#002323"/>
      <path id="Path_40" data-name="Path 40" d="M424.36,157.34l-.3,1L416.65,156l.24-.77,5.73-2.94c1.56-.8,2-1.44,2.24-2.17.38-1.22-.25-2.24-1.87-2.74a3.73,3.73,0,0,0-3.25.28l-.56-.91a5,5,0,0,1,4.22-.34c2.14.66,3.16,2.18,2.61,3.94-.32,1-.91,1.82-2.77,2.77l-4.69,2.41Z" fill="#002323"/>
      <path id="Path_41" data-name="Path 41" d="M434.49,158.23c-.55,1.76-2.26,2.72-4.81,1.93a5.78,5.78,0,0,1-3.38-2.55l.8-.69a4.83,4.83,0,0,0,2.89,2.24c1.75.55,3,0,3.38-1.28s-.24-2.38-2.2-3l-.75-.23.25-.81,4.07-2.75-5.41-1.69.3-1,6.8,2.11-.24.77L432,154.16C434.26,155,435,156.53,434.49,158.23Z" fill="#002323"/>
      <rect id="Rectangle_4" data-name="Rectangle 4" width="4.81" height="88.68" transform="matrix(0.297, -0.955, 0.955, 0.297, 348.515, 148.41)" fill="#002323"/>
      <rect id="Rectangle_5" data-name="Rectangle 5" width="4.81" height="45.48" transform="matrix(0.297, -0.955, 0.955, 0.297, 386.916, 170.423)" fill="#002323"/>
      <g id="Group_11" data-name="Group 11" opacity="0.5">
        <rect id="Rectangle_6" data-name="Rectangle 6" width="37.07" height="27.696" rx="4.941" transform="translate(280.43 63.811) rotate(17.526)" fill="#ebebeb"/>
      </g>
      <path id="Path_42" data-name="Path 42" d="M276,82.56l.53-1.7,18.29,5.69a4.007,4.007,0,1,0,2.39-7.65l-18.3-5.7.53-1.7,18.3,5.69a5.8,5.8,0,0,1-3.45,11.07Z" fill="#e0e0e0"/>
      <rect id="Rectangle_7" data-name="Rectangle 7" width="1.78" height="13.15" transform="translate(300.392 85.013) rotate(-72.66)" fill="#e0e0e0"/>
      <rect id="Rectangle_8" data-name="Rectangle 8" width="95.7" height="8.21" transform="matrix(0.955, 0.297, -0.297, 0.955, 292.952, 42.82)" fill="#002323"/>
      <rect id="Rectangle_9" data-name="Rectangle 9" width="19.26" height="19.26" rx="3.15" transform="matrix(0.955, 0.297, -0.297, 0.955, 433.035, 80.645)" fill="#002323"/>
    </g>
    <g id="freepik--Floor--inject-6">
      <path id="Path_43" data-name="Path 43" d="M476.76,462c0,.14-101.53.26-226.75.26S23.24,462.09,23.24,462s101.51-.26,226.77-.26S476.76,461.8,476.76,462Z" fill="#263238"/>
    </g>
    <g id="freepik--Wallet--inject-6">
      <rect id="Rectangle_10" data-name="Rectangle 10" width="157.25" height="137.83" rx="8.76" transform="translate(36.49 324.09)" fill="#ffb087"/>
      <g id="Group_12" data-name="Group 12" opacity="0.3">
        <path id="Path_44" data-name="Path 44" d="M36.49,414.47H93.77a4,4,0,0,0,4-4H36.65Z"/>
      </g>
      <rect id="Rectangle_11" data-name="Rectangle 11" width="67.84" height="35.77" rx="4.99" transform="translate(32.28 375.21)" fill="#f8f4ef"/>
      <path id="Path_45" data-name="Path 45" d="M95.13,411a6,6,0,0,0,1.94-.45A5.26,5.26,0,0,0,99,409.06a5,5,0,0,0,1-3.06c0-5-.05-12.31-.08-21.28v-3.45a14.413,14.413,0,0,0-.06-1.75,4.66,4.66,0,0,0-.55-1.65,4.78,4.78,0,0,0-2.71-2.23,5.6,5.6,0,0,0-1.84-.23H37.24a4.73,4.73,0,0,0-4,2.27,4.49,4.49,0,0,0-.68,2.27v26.48A4.75,4.75,0,0,0,34.74,410a4.84,4.84,0,0,0,2,.69c.68.07,1.44,0,2.16,0H66.04l21.28.09h5.79l-5.79.05L66,411.16H36.66a5.1,5.1,0,0,1-2.17-.77,5.22,5.22,0,0,1-2.43-3.87c-.06-1.57,0-3.07,0-4.64V379.97a5.14,5.14,0,0,1,.75-2.52A5.27,5.27,0,0,1,37.27,375H94.79a6,6,0,0,1,2,.25,5.2,5.2,0,0,1,2.94,2.44,5.1,5.1,0,0,1,.58,1.78,13.91,13.91,0,0,1,.06,1.81q0,1.77,0,3.45c0,9-.07,16.24-.09,21.29a5,5,0,0,1-4.57,5Z" fill="#263238"/>
      <g id="Group_13" data-name="Group 13" opacity="0.3">
        <circle id="Ellipse_1" data-name="Ellipse 1" cx="10.04" cy="10.04" r="10.04" transform="translate(73.35 386.93)"/>
      </g>
      <circle id="Ellipse_2" data-name="Ellipse 2" cx="10.04" cy="10.04" r="10.04" transform="translate(69.194 393.471) rotate(-45)" fill="#ffb087"/>
      <path id="Path_46" data-name="Path 46" d="M93.44,393.47a18.919,18.919,0,0,0-.42-2.43,10,10,0,0,0-3.66-5.4,9.81,9.81,0,0,0-9.31-1.37,9.25,9.25,0,0,0-2.47,1.33,9.131,9.131,0,0,0-2.07,2.09,9.76,9.76,0,0,0,0,11.57,9.9,9.9,0,0,0,17.54-3.36,24.3,24.3,0,0,0,.42-2.43,8,8,0,0,1-.22,2.48,9.94,9.94,0,0,1-3.64,5.65,10.09,10.09,0,0,1-4.29,1.95,10.29,10.29,0,0,1-5.4-.42,9.68,9.68,0,0,1-2.61-1.39,9.8,9.8,0,0,1-2.18-2.18,10.22,10.22,0,0,1,0-12.17,9.59,9.59,0,0,1,2.18-2.18,9.71,9.71,0,0,1,2.61-1.4,10.29,10.29,0,0,1,5.4-.41,10.1,10.1,0,0,1,7.93,7.6A8,8,0,0,1,93.44,393.47Z" fill="#263238"/>
    </g>
    <g id="freepik--Coins--inject-6">
      <path id="Path_271" data-name="Path 271" d="M34.88,0A34.88,34.88,0,1,1,0,34.88,34.88,34.88,0,0,1,34.88,0Z" transform="translate(363.588 314.504) rotate(-9.95)" fill="#ffb087"/>
      <g id="Group_14" data-name="Group 14" opacity="0.1">
        <path id="Path_47" data-name="Path 47" d="M391.45,310.26a34.86,34.86,0,0,0-20,45.07s23.27-7.77,25.23-19.1S391.45,310.26,391.45,310.26Z" fill="#fff"/>
      </g>
      <circle id="Ellipse_4" data-name="Ellipse 4" cx="26.447" cy="26.447" r="26.447" transform="translate(368.511 324.525) rotate(-21.161)" fill="#022d2d"/>
      <g id="Group_15" data-name="Group 15" transform="translate(2.487)" opacity="0.2">
        <circle id="Ellipse_5" data-name="Ellipse 5" cx="26.447" cy="26.447" r="26.447" transform="translate(368.511 324.525) rotate(-21.161)"/>
      </g>
      <path id="Path_48" data-name="Path 48" d="M429.1,333.74a26.16,26.16,0,1,1-33.8-15A26.16,26.16,0,0,1,429.1,333.74Z" fill="#022d2d"/>
      <g id="Group_16" data-name="Group 16" transform="translate(0.484)" opacity="0.2">
        <path id="Path_49" data-name="Path 49" d="M429.1,333.74a26.16,26.16,0,1,1-33.8-15A26.16,26.16,0,0,1,429.1,333.74Z" fill="#dee965"/>
      </g>
      <path id="Path_50" data-name="Path 50" d="M404.84,340.64l-2.4-6.24h0a14,14,0,0,1,3.66-.41,11.486,11.486,0,0,1,1.93.39v-.23l.1-2.62v-.6l-1.56-.74-.45.44a12.62,12.62,0,0,0-5,.44l-1.33-3.44-1.4-.45.33.86-1.46.57,1.34,3.5c-4.65,2.32-5.88,6-4.67,9.11,1.66,4.3,5.77,4,9.53,3.51l2.38,6.19a12.69,12.69,0,0,1-7.1,0l-.19,3.66c2.15.78,5.47.64,8.57-.34l1,2.59-1.2.49,1.52.35,2.54-1-1.33-3.47c4.67-2.36,5.94-6,4.73-9.14C412.76,339.8,408.6,340.16,404.84,340.64Zm-2.78.33c-2,.16-3.59,0-4.17-1.49s0-2.84,2.05-4ZM402.44,334.39Zm5.95,15.48-2.11-5.48c2.06-.19,3.7,0,4.28,1.51.51,1.34-.04,2.76-2.17,3.97Z" fill="#022d2d"/>
      <g id="Group_17" data-name="Group 17" transform="translate(-2.765 0.407)" opacity="0.3">
        <path id="Path_51" data-name="Path 51" d="M404.84,340.64l-2.4-6.24h0a14,14,0,0,1,3.66-.41,11.486,11.486,0,0,1,1.93.39v-.23l.1-2.62v-.6l-1.56-.74-.45.44a12.62,12.62,0,0,0-5,.44l-1.33-3.44-1.4-.45.33.86-1.46.57,1.34,3.5c-4.65,2.32-5.88,6-4.67,9.11,1.66,4.3,5.77,4,9.53,3.51l2.38,6.19a12.69,12.69,0,0,1-7.1,0l-.19,3.66c2.15.78,5.47.64,8.57-.34l1,2.59-1.2.49,1.52.35,2.54-1-1.33-3.47c4.67-2.36,5.94-6,4.73-9.14C412.76,339.8,408.6,340.16,404.84,340.64Zm-2.78.33c-2,.16-3.59,0-4.17-1.49s0-2.84,2.05-4ZM402.44,334.39Zm5.95,15.48-2.11-5.48c2.06-.19,3.7,0,4.28,1.51.51,1.34-.04,2.76-2.17,3.97Z" fill="#002323"/>
      </g>
      <path id="Path_52" data-name="Path 52" d="M408.31,352.79l1.34,3.47-2.54,1-1.32-3.44c-3.11,1-6.43,1.12-8.58.35l.19-3.66a12.78,12.78,0,0,0,7.1,0l-2.38-6.19c-3.76.48-7.87.78-9.52-3.52-1.22-3.16,0-6.79,4.66-9.11l-1.34-3.5,2.54-1,1.32,3.44a14.19,14.19,0,0,1,7-.53l-.07,3.62a13.809,13.809,0,0,0-5.66.25l2.41,6.26c3.76-.49,7.92-.85,9.57,3.46C414.26,346.81,413,350.43,408.31,352.79Zm-7.63-12.27L398.56,335c-2.07,1.19-2.57,2.66-2,4s2.12,1.69,4.12,1.52Zm8.51,4.94c-.59-1.52-2.22-1.71-4.28-1.52l2.11,5.48c2.12-1.21,2.68-2.63,2.17-3.96Z" fill="#ffb087"/>
      <path id="Path_53" data-name="Path 53" d="M382.12,368.75s-.09-.06-.25-.19l-.68-.6q-.525-.475-1-1c-.38-.4-.85-.83-1.3-1.37l-.72-.83c-.25-.29-.48-.62-.74-.94-.52-.64-1-1.38-1.53-2.14a37.706,37.706,0,0,1-2.86-5.31,38.751,38.751,0,0,1-1.9-5.73c-.19-.91-.39-1.77-.5-2.59-.06-.41-.13-.8-.17-1.18s-.07-.74-.11-1.09c-.08-.7-.08-1.34-.1-1.89a13.53,13.53,0,0,1,0-1.43v-.9a.16.16,0,1,1,.06,0v2.32a13.359,13.359,0,0,0,.15,1.88c0,.35.08.71.12,1.09s.12.76.18,1.17c.12.81.33,1.66.53,2.56a37.485,37.485,0,0,0,1.9,5.68,39,39,0,0,0,2.82,5.29c.52.76,1,1.5,1.5,2.14.25.32.48.65.73.94l.7.84c.44.54.89,1,1.27,1.39s.71.74,1,1l.65.63C382.05,368.66,382.13,368.74,382.12,368.75Z" fill="#fff"/>
      <path id="Path_54" data-name="Path 54" d="M395.71,342.53a2.27,2.27,0,0,1-1-.44,4.18,4.18,0,0,1-1.59-2.07,4.1,4.1,0,0,1,0-2.62,2.14,2.14,0,0,1,.51-1,6.93,6.93,0,0,0-.33,1,4.33,4.33,0,0,0,.08,2.48,4.41,4.41,0,0,0,1.46,2A9.993,9.993,0,0,0,395.71,342.53Z" fill="#fff"/>
      <path id="Path_55" data-name="Path 55" d="M397.59,330.92a2.513,2.513,0,0,1-.51-1c-.21-.59-.34-1-.27-1.06s.29.41.51,1S397.66,330.9,397.59,330.92Z" fill="#fff"/>
      <path id="Path_56" data-name="Path 56" d="M395.73,316.25a4.292,4.292,0,0,1-.8.28,8.57,8.57,0,0,0-.95.31c-.37.13-.79.26-1.24.46s-.95.38-1.46.63-1.07.52-1.64.82a28.385,28.385,0,0,0-3.51,2.3,30.112,30.112,0,0,0-3.12,2.8c-.44.48-.86.92-1.22,1.37s-.7.86-1,1.26-.54.75-.76,1.07-.4.6-.54.84a4.821,4.821,0,0,1-.48.71,5.439,5.439,0,0,1,.39-.76,9.069,9.069,0,0,1,.51-.87c.21-.32.44-.71.73-1.1s.6-.84,1-1.29.78-.91,1.21-1.39a27.62,27.62,0,0,1,3.14-2.85,28.79,28.79,0,0,1,3.56-2.3c.58-.29,1.12-.58,1.66-.81s1-.43,1.49-.61.88-.3,1.25-.42a8.982,8.982,0,0,1,1-.27A5.369,5.369,0,0,1,395.73,316.25Z" fill="#fff"/>
      <path id="Path_57" data-name="Path 57" d="M419.81,372.16a2.909,2.909,0,0,1-.52.38,15.74,15.74,0,0,1-1.51.9,25.121,25.121,0,0,1-11.1,3h-1.76a3.758,3.758,0,0,1-.64-.06,3,3,0,0,1,.64,0c.42,0,1,0,1.75-.06a29.613,29.613,0,0,0,5.67-.93,29,29,0,0,0,5.36-2.06c.65-.33,1.18-.62,1.53-.82a3.2,3.2,0,0,1,.58-.35Z" fill="#fff"/>
      <rect id="Rectangle_12" data-name="Rectangle 12" width="73.84" height="14.89" transform="translate(443.9 390.32) rotate(180)" fill="#ffb087"/>
      <path id="Path_58" data-name="Path 58" d="M439.15,375.68c-.17,0-.32,3.24-.32,7.22s.15,7.22.32,7.22.32-3.23.32-7.22S439.33,375.68,439.15,375.68Z" fill="#263238"/>
      <path id="Path_59" data-name="Path 59" d="M432.31,375.68c-.18,0-.32,3.24-.32,7.22s.14,7.22.32,7.22.32-3.23.32-7.22S432.48,375.68,432.31,375.68Z" fill="#263238"/>
      <path id="Path_60" data-name="Path 60" d="M425.54,375.68c-.18,0-.32,3.24-.32,7.22s.14,7.22.32,7.22.32-3.23.32-7.22S425.72,375.68,425.54,375.68Z" fill="#263238"/>
      <path id="Path_61" data-name="Path 61" d="M418.81,375.68c-.18,0-.32,3.24-.32,7.22s.14,7.22.32,7.22.32-3.23.32-7.22S419,375.68,418.81,375.68Z" fill="#263238"/>
      <path id="Path_62" data-name="Path 62" d="M412.08,375.68c-.18,0-.32,3.24-.32,7.22s.14,7.22.32,7.22.32-3.23.32-7.22S412.26,375.68,412.08,375.68Z" fill="#263238"/>
      <path id="Path_63" data-name="Path 63" d="M405.35,375.68c-.18,0-.32,3.24-.32,7.22s.14,7.22.32,7.22.32-3.23.32-7.22S405.53,375.68,405.35,375.68Z" fill="#263238"/>
      <path id="Path_64" data-name="Path 64" d="M398.62,375.68c-.18,0-.32,3.24-.32,7.22s.14,7.22.32,7.22.32-3.23.32-7.22S398.8,375.68,398.62,375.68Z" fill="#263238"/>
      <path id="Path_65" data-name="Path 65" d="M391.89,375.68c-.18,0-.32,3.24-.32,7.22s.14,7.22.32,7.22.32-3.23.32-7.22S392.07,375.68,391.89,375.68Z" fill="#263238"/>
      <path id="Path_66" data-name="Path 66" d="M385.16,375.68c-.18,0-.32,3.24-.32,7.22s.14,7.22.32,7.22.32-3.23.32-7.22S385.34,375.68,385.16,375.68Z" fill="#263238"/>
      <path id="Path_67" data-name="Path 67" d="M378.43,375.68c-.18,0-.32,3.24-.32,7.22s.14,7.22.32,7.22.32-3.23.32-7.22S378.61,375.68,378.43,375.68Z" fill="#263238"/>
      <path id="Path_68" data-name="Path 68" d="M371.7,375.68c-.18,0-.32,3.24-.32,7.22s.14,7.22.32,7.22.32-3.23.32-7.22S371.87,375.68,371.7,375.68Z" fill="#263238"/>
      <g id="Group_18" data-name="Group 18" opacity="0.3">
        <path id="Path_69" data-name="Path 69" d="M442.71,375.45a269.33,269.33,0,0,1-71.47,0Z"/>
      </g>
      <path id="Path_70" data-name="Path 70" d="M370,375.48c0,.18,16.5.32,36.85.32s36.86-.14,36.86-.32-16.5-.32-36.86-.32S370,375.3,370,375.48Z" fill="#263238"/>
      <rect id="Rectangle_13" data-name="Rectangle 13" width="73.84" height="14.89" transform="translate(442.24 404.96) rotate(180)" fill="#ffb087"/>
      <path id="Path_71" data-name="Path 71" d="M437.5,390.33c-.18,0-.32,3.23-.32,7.21s.14,7.22.32,7.22.32-3.23.32-7.22S437.67,390.33,437.5,390.33Z" fill="#263238"/>
      <path id="Path_72" data-name="Path 72" d="M430.65,390.33c-.18,0-.32,3.23-.32,7.21s.14,7.22.32,7.22.32-3.23.32-7.22S430.83,390.33,430.65,390.33Z" fill="#263238"/>
      <path id="Path_73" data-name="Path 73" d="M423.88,390.33c-.17,0-.32,3.23-.32,7.21s.15,7.22.32,7.22.32-3.23.32-7.22S424.06,390.33,423.88,390.33Z" fill="#263238"/>
      <path id="Path_74" data-name="Path 74" d="M417.15,390.33c-.18,0-.32,3.23-.32,7.21s.14,7.22.32,7.22.32-3.23.32-7.22S417.33,390.33,417.15,390.33Z" fill="#263238"/>
      <path id="Path_75" data-name="Path 75" d="M410.42,390.33c-.18,0-.32,3.23-.32,7.21s.14,7.22.32,7.22.32-3.23.32-7.22S410.6,390.33,410.42,390.33Z" fill="#263238"/>
      <path id="Path_76" data-name="Path 76" d="M403.69,390.33c-.18,0-.32,3.23-.32,7.21s.14,7.22.32,7.22.32-3.23.32-7.22S403.87,390.33,403.69,390.33Z" fill="#263238"/>
      <path id="Path_77" data-name="Path 77" d="M397,390.33c-.18,0-.32,3.23-.32,7.21s.14,7.22.32,7.22.32-3.23.32-7.22A45.515,45.515,0,0,0,397,390.33Z" fill="#263238"/>
      <path id="Path_78" data-name="Path 78" d="M390.23,390.33c-.18,0-.32,3.23-.32,7.21s.14,7.22.32,7.22.32-3.23.32-7.22S390.41,390.33,390.23,390.33Z" fill="#263238"/>
      <path id="Path_79" data-name="Path 79" d="M383.5,390.33c-.18,0-.32,3.23-.32,7.21s.14,7.22.32,7.22.32-3.23.32-7.22S383.68,390.33,383.5,390.33Z" fill="#263238"/>
      <path id="Path_80" data-name="Path 80" d="M376.77,390.33c-.18,0-.32,3.23-.32,7.21s.14,7.22.32,7.22.32-3.23.32-7.22S377,390.33,376.77,390.33Z" fill="#263238"/>
      <path id="Path_81" data-name="Path 81" d="M370,390.33c-.18,0-.32,3.23-.32,7.21s.14,7.22.32,7.22.32-3.23.32-7.22S370.22,390.33,370,390.33Z" fill="#263238"/>
      <g id="Group_19" data-name="Group 19" opacity="0.3">
        <path id="Path_82" data-name="Path 82" d="M441.06,390.09a269.4,269.4,0,0,1-71.48,0Z"/>
      </g>
      <path id="Path_83" data-name="Path 83" d="M368.38,390.12c0,.18,16.5.32,36.86.32s36.85-.14,36.85-.32-16.49-.32-36.85-.32S368.38,390,368.38,390.12Z" fill="#263238"/>
      <rect id="Rectangle_14" data-name="Rectangle 14" width="73.84" height="14.89" transform="translate(449.26 419.37) rotate(180)" fill="#ffb087"/>
      <path id="Path_84" data-name="Path 84" d="M444.51,404.73c-.18,0-.32,3.24-.32,7.22s.14,7.22.32,7.22.32-3.23.32-7.22S444.68,404.73,444.51,404.73Z" fill="#263238"/>
      <path id="Path_85" data-name="Path 85" d="M437.66,404.73c-.18,0-.32,3.24-.32,7.22s.14,7.22.32,7.22.32-3.23.32-7.22S437.84,404.73,437.66,404.73Z" fill="#263238"/>
      <path id="Path_86" data-name="Path 86" d="M430.89,404.73c-.17,0-.32,3.24-.32,7.22s.15,7.22.32,7.22.32-3.23.32-7.22S431.07,404.73,430.89,404.73Z" fill="#263238"/>
      <path id="Path_87" data-name="Path 87" d="M424.16,404.73c-.17,0-.32,3.24-.32,7.22s.15,7.22.32,7.22.32-3.23.32-7.22S424.34,404.73,424.16,404.73Z" fill="#263238"/>
      <path id="Path_88" data-name="Path 88" d="M417.43,404.73c-.17,0-.32,3.24-.32,7.22s.15,7.22.32,7.22.32-3.23.32-7.22S417.61,404.73,417.43,404.73Z" fill="#263238"/>
      <path id="Path_89" data-name="Path 89" d="M410.7,404.73c-.17,0-.32,3.24-.32,7.22s.15,7.22.32,7.22.32-3.23.32-7.22S410.88,404.73,410.7,404.73Z" fill="#263238"/>
      <path id="Path_90" data-name="Path 90" d="M404,404.73c-.18,0-.32,3.24-.32,7.22s.14,7.22.32,7.22.32-3.23.32-7.22A44.314,44.314,0,0,0,404,404.73Z" fill="#263238"/>
      <path id="Path_91" data-name="Path 91" d="M397.24,404.73c-.18,0-.32,3.24-.32,7.22s.14,7.22.32,7.22.32-3.23.32-7.22S397.42,404.73,397.24,404.73Z" fill="#263238"/>
      <path id="Path_92" data-name="Path 92" d="M390.51,404.73c-.18,0-.32,3.24-.32,7.22s.14,7.22.32,7.22.32-3.23.32-7.22S390.69,404.73,390.51,404.73Z" fill="#263238"/>
      <path id="Path_93" data-name="Path 93" d="M383.78,404.73c-.18,0-.32,3.24-.32,7.22s.14,7.22.32,7.22.32-3.23.32-7.22S384,404.73,383.78,404.73Z" fill="#263238"/>
      <path id="Path_94" data-name="Path 94" d="M377.05,404.73c-.18,0-.32,3.24-.32,7.22s.14,7.22.32,7.22.32-3.23.32-7.22S377.23,404.73,377.05,404.73Z" fill="#263238"/>
      <g id="Group_20" data-name="Group 20" opacity="0.3">
        <path id="Path_95" data-name="Path 95" d="M448.07,404.5a269.4,269.4,0,0,1-71.48,0Z"/>
      </g>
      <path id="Path_96" data-name="Path 96" d="M375.39,404.53c0,.18,16.5.32,36.86.32s36.85-.14,36.85-.32-16.49-.32-36.85-.32S375.39,404.36,375.39,404.53Z" fill="#263238"/>
      <rect id="Rectangle_15" data-name="Rectangle 15" width="73.84" height="14.32" transform="translate(440.61 433.58) rotate(180)" fill="#ffb087"/>
      <path id="Path_97" data-name="Path 97" d="M435.86,419.51c-.18,0-.32,3.1-.32,6.94s.14,6.94.32,6.94.32-3.11.32-6.94A42.3,42.3,0,0,0,435.86,419.51Z" fill="#263238"/>
      <path id="Path_98" data-name="Path 98" d="M429,419.51c-.18,0-.32,3.1-.32,6.94s.14,6.94.32,6.94.32-3.11.32-6.94S429.19,419.51,429,419.51Z" fill="#263238"/>
      <path id="Path_99" data-name="Path 99" d="M422.24,419.51c-.17,0-.32,3.1-.32,6.94s.15,6.94.32,6.94.32-3.11.32-6.94S422.42,419.51,422.24,419.51Z" fill="#263238"/>
      <path id="Path_100" data-name="Path 100" d="M415.51,419.51c-.17,0-.32,3.1-.32,6.94s.15,6.94.32,6.94.32-3.11.32-6.94S415.69,419.51,415.51,419.51Z" fill="#263238"/>
      <path id="Path_101" data-name="Path 101" d="M408.78,419.51c-.17,0-.32,3.1-.32,6.94s.15,6.94.32,6.94.32-3.11.32-6.94S409,419.51,408.78,419.51Z" fill="#263238"/>
      <path id="Path_102" data-name="Path 102" d="M402.05,419.51c-.18,0-.32,3.1-.32,6.94s.14,6.94.32,6.94.32-3.11.32-6.94S402.23,419.51,402.05,419.51Z" fill="#263238"/>
      <path id="Path_103" data-name="Path 103" d="M395.32,419.51c-.18,0-.32,3.1-.32,6.94s.14,6.94.32,6.94.32-3.11.32-6.94S395.5,419.51,395.32,419.51Z" fill="#263238"/>
      <path id="Path_104" data-name="Path 104" d="M388.59,419.51c-.18,0-.32,3.1-.32,6.94s.14,6.94.32,6.94.32-3.11.32-6.94S388.77,419.51,388.59,419.51Z" fill="#263238"/>
      <path id="Path_105" data-name="Path 105" d="M381.86,419.51c-.18,0-.32,3.1-.32,6.94s.14,6.94.32,6.94.32-3.11.32-6.94A42.3,42.3,0,0,0,381.86,419.51Z" fill="#263238"/>
      <path id="Path_106" data-name="Path 106" d="M375.13,419.51c-.18,0-.32,3.1-.32,6.94s.14,6.94.32,6.94.32-3.11.32-6.94S375.31,419.51,375.13,419.51Z" fill="#263238"/>
      <path id="Path_107" data-name="Path 107" d="M368.4,419.51c-.18,0-.32,3.1-.32,6.94s.14,6.94.32,6.94.32-3.11.32-6.94S368.58,419.51,368.4,419.51Z" fill="#263238"/>
      <g id="Group_21" data-name="Group 21" opacity="0.3">
        <path id="Path_108" data-name="Path 108" d="M439.42,419.28a211.27,211.27,0,0,1-71.48,0Z"/>
      </g>
      <path id="Path_109" data-name="Path 109" d="M366.74,419.31c0,.18,16.5.32,36.86.32s36.85-.14,36.85-.32S424,419,403.6,419,366.74,419.13,366.74,419.31Z" fill="#263238"/>
      <rect id="Rectangle_16" data-name="Rectangle 16" width="73.84" height="14.32" transform="translate(445.35 447.91) rotate(180)" fill="#ffb087"/>
      <path id="Path_110" data-name="Path 110" d="M440.6,433.83c-.17,0-.32,3.11-.32,6.95s.15,6.94.32,6.94.33-3.11.33-6.94S440.78,433.83,440.6,433.83Z" fill="#263238"/>
      <path id="Path_111" data-name="Path 111" d="M433.76,433.83c-.18,0-.32,3.11-.32,6.95s.14,6.94.32,6.94.32-3.11.32-6.94S433.93,433.83,433.76,433.83Z" fill="#263238"/>
      <path id="Path_112" data-name="Path 112" d="M427,433.83c-.18,0-.32,3.11-.32,6.95s.14,6.94.32,6.94.32-3.11.32-6.94S427.17,433.83,427,433.83Z" fill="#263238"/>
      <path id="Path_113" data-name="Path 113" d="M420.26,433.83c-.18,0-.32,3.11-.32,6.95s.14,6.94.32,6.94.32-3.11.32-6.94S420.44,433.83,420.26,433.83Z" fill="#263238"/>
      <path id="Path_114" data-name="Path 114" d="M413.53,433.83c-.18,0-.32,3.11-.32,6.95s.14,6.94.32,6.94.32-3.11.32-6.94S413.71,433.83,413.53,433.83Z" fill="#263238"/>
      <path id="Path_115" data-name="Path 115" d="M406.8,433.83c-.18,0-.32,3.11-.32,6.95s.14,6.94.32,6.94.32-3.11.32-6.94S407,433.83,406.8,433.83Z" fill="#263238"/>
      <path id="Path_116" data-name="Path 116" d="M400.07,433.83c-.18,0-.32,3.11-.32,6.95s.14,6.94.32,6.94.32-3.11.32-6.94S400.25,433.83,400.07,433.83Z" fill="#263238"/>
      <path id="Path_117" data-name="Path 117" d="M393.34,433.83c-.18,0-.32,3.11-.32,6.95s.14,6.94.32,6.94.32-3.11.32-6.94S393.52,433.83,393.34,433.83Z" fill="#263238"/>
      <path id="Path_118" data-name="Path 118" d="M386.61,433.83c-.18,0-.32,3.11-.32,6.95s.14,6.94.32,6.94.32-3.11.32-6.94S386.79,433.83,386.61,433.83Z" fill="#263238"/>
      <path id="Path_119" data-name="Path 119" d="M379.88,433.83c-.18,0-.32,3.11-.32,6.95s.14,6.94.32,6.94.32-3.11.32-6.94S380.06,433.83,379.88,433.83Z" fill="#263238"/>
      <path id="Path_120" data-name="Path 120" d="M373.15,433.83c-.18,0-.32,3.11-.32,6.95s.14,6.94.32,6.94.32-3.11.32-6.94S373.32,433.83,373.15,433.83Z" fill="#263238"/>
      <g id="Group_22" data-name="Group 22" opacity="0.3">
        <path id="Path_121" data-name="Path 121" d="M444.16,433.61a187,187,0,0,1-71.47,0Z"/>
      </g>
      <path id="Path_122" data-name="Path 122" d="M371.49,433.64c0,.18,16.5.32,36.85.32s36.86-.14,36.86-.32-16.5-.32-36.86-.32S371.49,433.46,371.49,433.64Z" fill="#263238"/>
      <rect id="Rectangle_17" data-name="Rectangle 17" width="73.84" height="14.32" transform="translate(441.13 462.04) rotate(180)" fill="#ffb087"/>
      <path id="Path_123" data-name="Path 123" d="M436.39,448c-.18,0-.32,3.11-.32,6.94s.14,7,.32,7,.32-3.11.32-7S436.56,448,436.39,448Z" fill="#263238"/>
      <path id="Path_124" data-name="Path 124" d="M429.54,448c-.18,0-.32,3.11-.32,6.94s.14,7,.32,7,.32-3.11.32-7S429.72,448,429.54,448Z" fill="#263238"/>
      <path id="Path_125" data-name="Path 125" d="M422.77,448c-.17,0-.32,3.11-.32,6.94s.15,7,.32,7,.32-3.11.32-7S423,448,422.77,448Z" fill="#263238"/>
      <path id="Path_126" data-name="Path 126" d="M416,448c-.18,0-.32,3.11-.32,6.94s.14,7,.32,7,.32-3.11.32-7S416.22,448,416,448Z" fill="#263238"/>
      <path id="Path_127" data-name="Path 127" d="M409.31,448c-.18,0-.32,3.11-.32,6.94s.14,7,.32,7,.32-3.11.32-7S409.49,448,409.31,448Z" fill="#263238"/>
      <path id="Path_128" data-name="Path 128" d="M402.58,448c-.18,0-.32,3.11-.32,6.94s.14,7,.32,7,.32-3.11.32-7S402.76,448,402.58,448Z" fill="#263238"/>
      <path id="Path_129" data-name="Path 129" d="M395.85,448c-.18,0-.32,3.11-.32,6.94s.14,7,.32,7,.32-3.11.32-7A40.413,40.413,0,0,0,395.85,448Z" fill="#263238"/>
      <path id="Path_130" data-name="Path 130" d="M389.12,448c-.18,0-.32,3.11-.32,6.94s.14,7,.32,7,.32-3.11.32-7S389.3,448,389.12,448Z" fill="#263238"/>
      <path id="Path_131" data-name="Path 131" d="M382.39,448c-.18,0-.32,3.11-.32,6.94s.14,7,.32,7,.32-3.11.32-7S382.57,448,382.39,448Z" fill="#263238"/>
      <path id="Path_132" data-name="Path 132" d="M375.66,448c-.18,0-.32,3.11-.32,6.94s.14,7,.32,7,.32-3.11.32-7S375.84,448,375.66,448Z" fill="#263238"/>
      <path id="Path_133" data-name="Path 133" d="M368.93,448c-.18,0-.32,3.11-.32,6.94s.14,7,.32,7,.32-3.11.32-7S369.11,448,368.93,448Z" fill="#263238"/>
      <g id="Group_23" data-name="Group 23" opacity="0.3">
        <path id="Path_134" data-name="Path 134" d="M440,447.74a211.27,211.27,0,0,1-71.48,0Z"/>
      </g>
      <path id="Path_135" data-name="Path 135" d="M367.27,447.77c0,.17,16.5.32,36.86.32s36.85-.15,36.85-.32-16.5-.32-36.85-.32S367.27,447.59,367.27,447.77Z" fill="#263238"/>
      <path id="Path_136" data-name="Path 136" d="M441.13,462v-3.75c0-2.46-.05-6-.08-10.37v-.16h4.23l-.17.18V433.57l.22.22h-5V419.11h8.89l-.24.24V404.18l.22.23h-7.22V390.13h2l-.16.17V375.71a1.331,1.331,0,0,1,0-.26.9.9,0,0,1,0,.26c0,.19,0,.44,0,.76,0,.7,0,1.67.07,2.92,0,2.59.11,6.29.19,10.9v.17h-2l.17-.17c0,4,0,8.7.05,13.88l-.22-.21h7.23V419.6h-8.9l.25-.24v14.21l-.23-.23h5v14.73h-4.25l.16-.16c0,4.39-.05,7.91-.07,10.37v3.51A.748.748,0,0,1,441.13,462Z" fill="#263238"/>
      <path id="Path_137" data-name="Path 137" d="M468.18,251.66a30.38,30.38,0,1,1-31.43-29.3,30.38,30.38,0,0,1,31.43,29.3Z" fill="#ffb087"/>
      <g id="Group_24" data-name="Group 24" opacity="0.1">
        <path id="Path_138" data-name="Path 138" d="M436.75,222.36a30.38,30.38,0,0,0-29.29,31.43s21.36.21,26.19-8.57S436.75,222.36,436.75,222.36Z" fill="#fff"/>
      </g>
      <path id="Path_139" data-name="Path 139" d="M460.4,251.45a23.09,23.09,0,1,1-23.89-22.27,23.09,23.09,0,0,1,23.89,22.27Z" fill="#022d2d"/>
      <g id="Group_25" data-name="Group 25" transform="translate(4)" opacity="0.2">
        <path id="Path_140" data-name="Path 140" d="M460.4,251.45a23.09,23.09,0,1,1-23.89-22.27,23.09,23.09,0,0,1,23.89,22.27Z"/>
      </g>
      <path id="Path_141" data-name="Path 141" d="M461.08,252.39a22.78,22.78,0,1,1-7.22-15.883,22.78,22.78,0,0,1,7.22,15.883Z" fill="#022d2d"/>
      <g id="Group_26" data-name="Group 26" transform="translate(-0.733 -0.988)" opacity="0.2">
        <path id="Path_142" data-name="Path 142" d="M461.08,252.39a22.78,22.78,0,1,1-7.22-15.883,22.78,22.78,0,0,1,7.22,15.883Z" fill="#dee965"/>
      </g>
      <path id="Path_143" data-name="Path 143" d="M439.15,251.18l-.2-5.82h0a11.65,11.65,0,0,1,3.12.7,9.17,9.17,0,0,1,1.48.86l.07-.18.83-2.13.19-.49-1.08-1.06-.49.25a10.59,10.59,0,0,0-4.26-1.07l-.11-3.21-1-.77v.81h-1.37l.11,3.27c-4.48.59-6.53,3.23-6.43,6.17.14,4,3.62,4.93,6.85,5.6l.2,5.77a11,11,0,0,1-5.85-2l-1.2,3A12.6,12.6,0,0,0,437.2,263l.08,2.42-1.12.06,1.15.73,2.37-.09-.12-3.23c4.52-.62,6.59-3.24,6.49-6.18C445.91,252.74,442.38,251.85,439.15,251.18Zm-2.39-.52c-1.69-.43-2.95-1-3-2.41s.79-2.34,2.82-2.73ZM438.95,245.35Zm.5,14.43-.18-5.1c1.75.43,3.05,1,3.1,2.46.04,1.24-.82,2.25-2.92,2.64Z" fill="#022d2d"/>
      <g id="Group_27" data-name="Group 27" opacity="0.3">
        <path id="Path_144" data-name="Path 144" d="M439.15,251.18l-.2-5.82h0a11.65,11.65,0,0,1,3.12.7,9.17,9.17,0,0,1,1.48.86l.07-.18.83-2.13.19-.49-1.08-1.06-.49.25a10.59,10.59,0,0,0-4.26-1.07l-.11-3.21-1-.77v.81h-1.37l.11,3.27c-4.48.59-6.53,3.23-6.43,6.17.14,4,3.62,4.93,6.85,5.6l.2,5.77a11,11,0,0,1-5.85-2l-1.2,3A12.6,12.6,0,0,0,437.2,263l.08,2.42-1.12.06,1.15.73,2.37-.09-.12-3.23c4.52-.62,6.59-3.24,6.49-6.18C445.91,252.74,442.38,251.85,439.15,251.18Zm-2.39-.52c-1.69-.43-2.95-1-3-2.41s.79-2.34,2.82-2.73ZM438.95,245.35Zm.5,14.43-.18-5.1c1.75.43,3.05,1,3.1,2.46.04,1.24-.82,2.25-2.92,2.64Z" fill="#022d2d"/>
      </g>
      <path id="Path_145" data-name="Path 145" d="M438.56,262.17l.11,3.24-2.37.08-.11-3.2a12.78,12.78,0,0,1-7.16-2.15l1.2-3a11.2,11.2,0,0,0,5.85,2l-.2-5.78c-3.23-.66-6.7-1.58-6.84-5.59-.11-3,1.94-5.59,6.43-6.18l-.12-3.27,2.37-.08.11,3.21a12.42,12.42,0,0,1,5.92,1.55l-1.08,3a12,12,0,0,0-4.73-1.4l.21,5.83c3.23.67,6.76,1.56,6.9,5.57C445.15,258.94,443.07,261.55,438.56,262.17Zm-2.8-12.27-.18-5.14c-2,.39-2.87,1.46-2.83,2.73s1.32,1.98,3.01,2.41Zm5.6,6.48c-.05-1.41-1.34-2-3.09-2.46l.18,5.11c2.09-.39,2.95-1.41,2.91-2.65Z" fill="#ffb087"/>
      <path id="Path_146" data-name="Path 146" d="M438.7,276.2h.19l.54-.06.89-.08a8.541,8.541,0,0,0,1.21-.17l1.5-.29a5.607,5.607,0,0,0,.85-.22l.9-.27a9.7,9.7,0,0,0,1-.31l1-.4a9.157,9.157,0,0,0,1-.45l1.07-.56a24.39,24.39,0,0,0,4.39-3.05l1.05-1c.18-.17.36-.34.53-.52l.5-.59c.32-.39.68-.78,1-1.2s.61-.87.92-1.31l.23-.34a4.051,4.051,0,0,0,.21-.35l.4-.72.41-.73a6.763,6.763,0,0,0,.36-.77c.22-.52.47-1,.68-1.57l.54-1.67a22.69,22.69,0,0,0-.5-14.32q-.33-.83-.66-1.62c-.24-.53-.53-1-.79-1.53a6.645,6.645,0,0,0-.41-.74c-.15-.23-.3-.47-.46-.7l-.45-.69-.23-.34-.25-.31-1-1.25c-.34-.4-.72-.76-1.08-1.13l-.53-.55-.57-.49-1.12-1a24.13,24.13,0,0,0-4.6-2.73l-1.09-.49c-.36-.15-.73-.25-1.08-.37l-1-.34c-.33-.11-.67-.16-1-.24l-.92-.2a5.61,5.61,0,0,0-.86-.16l-1.52-.19a9.171,9.171,0,0,0-1.21-.08h0a8.928,8.928,0,0,1,1.22.05l1.53.17a7.066,7.066,0,0,1,.86.15l.93.2c.31.08.65.12,1,.23l1,.33c.35.13.72.22,1.08.37l1.11.48a24.369,24.369,0,0,1,4.64,2.73l1.14,1c.19.16.39.32.57.49l.54.55c.36.37.75.73,1.09,1.13l1,1.26.26.32.23.34c.15.23.31.46.46.7l.47.7c.16.23.27.5.41.75.26.5.55,1,.8,1.53s.44,1.09.67,1.64a25,25,0,0,1,1.42,7.19,24.57,24.57,0,0,1-.92,7.28c-.18.56-.37,1.12-.55,1.67a17.324,17.324,0,0,1-.69,1.59,7.836,7.836,0,0,1-.36.78l-.41.73-.41.73-.21.36-.24.33-.92,1.33c-.32.42-.68.81-1,1.2l-.5.59-.54.53-1.07,1a23.831,23.831,0,0,1-4.44,3.05l-1.07.56c-.35.17-.72.29-1.06.44l-1,.4a9.753,9.753,0,0,1-1,.3l-.91.27a7.51,7.51,0,0,1-.85.21l-1.51.27a8.463,8.463,0,0,1-1.22.14l-.89.07h-.55Z" fill="#263238"/>
      <path id="Path_147" data-name="Path 147" d="M412.46,267.87a1.572,1.572,0,0,1-.15-.23l-.39-.68c-.17-.29-.37-.66-.58-1.1s-.46-.93-.68-1.5c-.11-.29-.23-.58-.36-.89s-.22-.64-.34-1c-.25-.68-.44-1.42-.65-2.2a30,30,0,0,1-.78-10.44c.09-.8.17-1.57.32-2.27.06-.36.11-.7.19-1s.15-.64.23-.94c.12-.59.31-1.12.44-1.58a11.256,11.256,0,0,1,.41-1.18c.13-.32.21-.54.28-.73a1,1,0,0,1,.12-.25,1.293,1.293,0,0,1-.07.27c-.07.19-.15.44-.25.74s-.24.72-.36,1.18-.3,1-.42,1.59q-.1.45-.21.93c-.07.33-.11.67-.18,1-.13.7-.2,1.46-.3,2.26a35.994,35.994,0,0,0-.05,5.22,34.66,34.66,0,0,0,.83,5.15c.21.77.39,1.51.63,2.19.11.34.21.67.33,1l.34.89c.21.57.45,1.06.65,1.5s.38.82.54,1.12l.35.7A1,1,0,0,1,412.46,267.87Z" fill="#fff"/>
      <path id="Path_148" data-name="Path 148" d="M431.09,250.14a1.93,1.93,0,0,1-.69-.64,3.63,3.63,0,0,1-.73-2.16,3.67,3.67,0,0,1,.73-2.16,1.921,1.921,0,0,1,.7-.65,4.869,4.869,0,0,0-.57.74,3.72,3.72,0,0,0,0,4.14C430.84,249.88,431.12,250.11,431.09,250.14Z" fill="#fff"/>
      <path id="Path_149" data-name="Path 149" d="M435.94,241.12a2.12,2.12,0,0,1-.15-.94,2.15,2.15,0,0,1,.08-1c.07,0,.13.42.15.95A2.09,2.09,0,0,1,435.94,241.12Z" fill="#fff"/>
      <path id="Path_150" data-name="Path 150" d="M438.58,228.51a3.621,3.621,0,0,1-.75,0h-2.01a6.276,6.276,0,0,0-1.39.11c-.5.11-1,.13-1.58.21a27,27,0,0,0-3.54.89,25.87,25.87,0,0,0-3.37,1.43c-.49.27-1,.51-1.39.78s-.82.51-1.17.75-.66.47-.93.67-.51.38-.69.53a3.171,3.171,0,0,1-.59.45,5.271,5.271,0,0,1,.53-.51c.18-.17.4-.36.67-.57s.56-.46.92-.7.73-.52,1.16-.78.9-.53,1.39-.81a24.843,24.843,0,0,1,3.39-1.45,25.136,25.136,0,0,1,3.58-.88c.57-.08,1.1-.17,1.6-.2s1-.07,1.4-.08.82,0,1.16,0h.87Z" fill="#fff"/>
      <path id="Path_151" data-name="Path 151" d="M442.52,281.39a3.187,3.187,0,0,1-.53.16,13.083,13.083,0,0,1-1.5.31,22,22,0,0,1-5,.24,22.289,22.289,0,0,1-5-.91c-.61-.2-1.11-.37-1.44-.52a3.1,3.1,0,0,1-.51-.23,2.211,2.211,0,0,1,.54.15c.34.12.84.27,1.46.44a25,25,0,0,0,4.93.85,25.532,25.532,0,0,0,5-.17c.64-.09,1.15-.18,1.51-.24a2,2,0,0,1,.54-.08Z" fill="#fff"/>
    </g>
    <g id="freepik--Device--inject-6">
      <path id="Path_152" data-name="Path 152" d="M339.7,461.65,204.25,461a29.51,29.51,0,0,1-29.37-29.64L176.31,91.8A29.52,29.52,0,0,1,206,62.41L341.41,63a29.51,29.51,0,0,1,29.37,29.63l-1.43,339.6a29.5,29.5,0,0,1-29.65,29.42Z"/>
      <path id="Path_153" data-name="Path 153" d="M341.22,74.76,315,74.64l-76.71-.36h-9.23l-23-.1A20.66,20.66,0,0,0,185.3,94.75l-1.4,331.48a20.66,20.66,0,0,0,20.57,20.75l135.19.62A20.66,20.66,0,0,0,360.39,427l1.4-331.48a20.66,20.66,0,0,0-20.57-20.76Z" fill="#fafafa"/>
      <path id="Path_154" data-name="Path 154" d="M342.22,104.88a1.69,1.69,0,1,1-1.68-1.69,1.69,1.69,0,0,1,1.68,1.69Z" fill="#022d2d"/>
      <path id="Path_155" data-name="Path 155" d="M342.2,111a1.69,1.69,0,1,1-1.69-1.7,1.69,1.69,0,0,1,1.69,1.7Z" fill="#022d2d"/>
      <path id="Path_156" data-name="Path 156" d="M342.18,117.05a1.7,1.7,0,1,1-1.69-1.69,1.7,1.7,0,0,1,1.69,1.69Z" fill="#022d2d"/>
      <rect id="Rectangle_18" data-name="Rectangle 18" width="144.1" height="91.42" rx="4.3" transform="translate(208.37 162.65)" fill="#ebebeb"/>
      <rect id="Rectangle_19" data-name="Rectangle 19" width="144.1" height="91.42" rx="4.3" transform="translate(204.41 156.71)" fill="#e0e0e0"/>
      <rect id="Rectangle_20" data-name="Rectangle 20" width="144.1" height="91.42" rx="4.3" transform="translate(199.84 151.78)" fill="#ffb087"/>
      <path id="Path_157" data-name="Path 157" d="M223.57,172.66c0,1.17-.93,1.85-2.71,1.85h-3.49v-6.77h3.3c1.69,0,2.56.71,2.56,1.76a1.63,1.63,0,0,1-.9,1.49,1.66,1.66,0,0,1,1.24,1.67Zm-4.65-3.74v1.6h1.56c.76,0,1.18-.27,1.18-.8s-.42-.8-1.18-.8ZM222,172.5c0-.57-.44-.84-1.25-.84h-1.83v1.67h1.83C221.56,173.33,222,173.08,222,172.5Z" fill="#fff"/>
      <path id="Path_158" data-name="Path 158" d="M229.21,173.06h-3.14l-.6,1.45h-1.61l3-6.77h1.55l3,6.77h-1.64Zm-.49-1.19-1.08-2.59-1.07,2.59Z" fill="#fff"/>
      <path id="Path_159" data-name="Path 159" d="M238.36,167.74v6.77h-1.29l-3.37-4.11v4.11h-1.55v-6.77h1.3l3.36,4.11v-4.11Z" fill="#fff"/>
      <path id="Path_160" data-name="Path 160" d="M242.42,171.85l-.91,1v1.71H240v-6.77h1.56v3.16l3-3.16h1.74l-2.8,3,3,3.75h-1.83Z" fill="#fff"/>
      <path id="Path_161" data-name="Path 161" d="M222.3,200.79h-1.24v1.63h-.64v-1.63h-3.5v-.46l3.29-4.12h.71l-3.17,4h2.69v-1.43h.62v1.43h1.24Z" fill="#fff"/>
      <path id="Path_162" data-name="Path 162" d="M226.86,200.64c0,1-.75,1.84-2.25,1.84a3.23,3.23,0,0,1-2.24-.8l.32-.51a2.69,2.69,0,0,0,1.92.72c1,0,1.6-.48,1.6-1.25s-.53-1.23-1.68-1.23h-.44v-.47l1.72-2.16h-3.18v-.57h4v.46l-1.75,2.21C226.2,199,226.86,199.65,226.86,200.64Z" fill="#fff"/>
      <path id="Path_163" data-name="Path 163" d="M231.88,200.6c0,1.05-.73,1.88-2.25,1.88a3.22,3.22,0,0,1-2.23-.8l.32-.51a2.64,2.64,0,0,0,1.9.72c1.06,0,1.62-.51,1.62-1.27s-.5-1.29-2.08-1.29h-1.32l.32-3.12h3.4v.57h-2.84l-.22,2h.8C231.17,198.76,231.88,199.5,231.88,200.6Z" fill="#fff"/>
      <path id="Path_164" data-name="Path 164" d="M237.36,200.57a1.94,1.94,0,0,1-2.12,1.91c-1.65,0-2.55-1.15-2.55-3.11,0-2.11,1.15-3.21,2.84-3.21a2.83,2.83,0,0,1,1.47.34l-.26.51a2.16,2.16,0,0,0-1.2-.29c-1.34,0-2.2.86-2.2,2.55v.5a2,2,0,0,1,1.9-1.06,1.88,1.88,0,0,1,2.12,1.86Zm-.63,0c0-.82-.61-1.34-1.56-1.34a1.44,1.44,0,0,0-1.6,1.35c0,.69.57,1.34,1.64,1.34a1.36,1.36,0,0,0,1.52-1.33Z" fill="#fff"/>
      <path id="Path_165" data-name="Path 165" d="M250.77,202.42l-1.48-1.95-1.49,1.95h-.71l1.85-2.39-1.76-2.27h.71l1.4,1.82,1.4-1.82h.7L249.63,200l1.86,2.39Z" fill="#fff"/>
      <path id="Path_166" data-name="Path 166" d="M255.51,202.42,254,200.47l-1.49,1.95h-.71l1.85-2.39-1.76-2.27h.71l1.4,1.82,1.4-1.82h.69L254.37,200l1.86,2.39Z" fill="#fff"/>
      <path id="Path_167" data-name="Path 167" d="M260.25,202.42l-1.48-1.95-1.49,1.95h-.71l1.84-2.39-1.76-2.27h.71l1.41,1.82,1.4-1.82h.69L259.1,200l1.87,2.39Z" fill="#fff"/>
      <path id="Path_168" data-name="Path 168" d="M265,202.42l-1.48-1.95L262,202.42h-.71l1.85-2.39-1.76-2.27h.71l1.4,1.82,1.4-1.82h.7L263.84,200l1.86,2.39Z" fill="#fff"/>
      <path id="Path_169" data-name="Path 169" d="M281.34,202.42l-1.48-1.95-1.49,1.95h-.71L279.5,200l-1.75-2.27h.71l1.4,1.82,1.4-1.82H282L280.19,200l1.87,2.39Z" fill="#fff"/>
      <path id="Path_170" data-name="Path 170" d="M286.07,202.42l-1.48-1.95-1.49,1.95h-.71l1.85-2.39-1.76-2.27h.71l1.4,1.82,1.4-1.82h.7L284.93,200l1.86,2.39Z" fill="#fff"/>
      <path id="Path_171" data-name="Path 171" d="M290.81,202.42l-1.48-1.95-1.49,1.95h-.71L289,200l-1.76-2.27h.71l1.4,1.82,1.4-1.82h.69L289.67,200l1.86,2.39Z" fill="#fff"/>
      <path id="Path_172" data-name="Path 172" d="M295.55,202.42l-1.48-1.95-1.49,1.95h-.71l1.84-2.39L292,197.76h.71l1.41,1.82,1.4-1.82h.69L294.4,200l1.87,2.39Z" fill="#fff"/>
      <path id="Path_173" data-name="Path 173" d="M310.24,196.21v6.21h-.64v-5.64h-1.47v-.57Z" fill="#fff"/>
      <path id="Path_174" data-name="Path 174" d="M315.82,200.64c0,1-.75,1.84-2.25,1.84a3.23,3.23,0,0,1-2.24-.8l.32-.51a2.67,2.67,0,0,0,1.92.72c1,0,1.6-.48,1.6-1.25s-.53-1.23-1.68-1.23h-.44v-.47l1.72-2.16h-3.18v-.57h4v.46l-1.75,2.21C315.16,199,315.82,199.65,315.82,200.64Z" fill="#fff"/>
      <path id="Path_175" data-name="Path 175" d="M322,200.79h-1.25v1.63h-.63v-1.63h-3.51v-.46l3.29-4.12h.71l-3.17,4h2.69v-1.43h.62v1.43H322Z" fill="#fff"/>
      <path id="Path_176" data-name="Path 176" d="M326.79,201.86v.56h-4.36V202l2.58-2.53c.7-.69.84-1.11.84-1.53,0-.72-.51-1.16-1.46-1.16a2.08,2.08,0,0,0-1.69.69l-.46-.39a2.8,2.8,0,0,1,2.2-.89c1.26,0,2.06.64,2.06,1.68a2.54,2.54,0,0,1-1,1.94l-2.11,2.08Z" fill="#fff"/>
      <path id="Path_177" data-name="Path 177" d="M213.73,215.31a1.52,1.52,0,0,1,1.61-1.53,1.54,1.54,0,0,1,1.21.52l-.44.41a.94.94,0,0,0-.74-.35.95.95,0,0,0,0,1.9.94.94,0,0,0,.74-.35l.44.4a1.49,1.49,0,0,1-1.22.53,1.52,1.52,0,0,1-1.6-1.53Z" fill="#fff"/>
      <path id="Path_178" data-name="Path 178" d="M218.91,216.16h-1.37l-.27.63h-.7l1.32-3h.68l1.32,3h-.71Zm-.21-.52-.47-1.14-.47,1.14Z" fill="#fff"/>
      <path id="Path_179" data-name="Path 179" d="M222.1,216.79l-.58-.82h-.63v.82h-.68v-3h1.28c.79,0,1.29.41,1.29,1.07a1,1,0,0,1-.61.94l.66.95Zm-.65-2.4h-.56v1h.56c.42,0,.63-.19.63-.52s-.21-.48-.63-.48Z" fill="#fff"/>
      <path id="Path_180" data-name="Path 180" d="M223.09,216.5l.23-.52a1.7,1.7,0,0,0,1,.31c.41,0,.57-.13.57-.31,0-.56-1.72-.18-1.72-1.28,0-.5.41-.92,1.25-.92a2,2,0,0,1,1,.26l-.21.52a1.76,1.76,0,0,0-.82-.23c-.41,0-.57.15-.57.34,0,.54,1.73.17,1.73,1.25,0,.5-.42.92-1.26.92A2.14,2.14,0,0,1,223.09,216.5Z" fill="#fff"/>
      <path id="Path_181" data-name="Path 181" d="M230,213.83v3h-.69v-1.21h-1.35v1.21h-.68v-3h.68V215h1.35v-1.17Z" fill="#fff"/>
      <path id="Path_182" data-name="Path 182" d="M230.47,215.31a1.62,1.62,0,1,1,1.62,1.53,1.53,1.53,0,0,1-1.62-1.53Zm2.55,0a.93.93,0,1,0-.93.95.91.91,0,0,0,.91-.95Z" fill="#fff"/>
      <path id="Path_183" data-name="Path 183" d="M234.23,213.83h.69v2.4h1.48v.56h-2.17Z" fill="#fff"/>
      <path id="Path_184" data-name="Path 184" d="M236.79,213.83h1.35a1.5,1.5,0,0,1,0,3h-1.35Zm1.32,2.4a.92.92,0,0,0,0-1.84h-.63v1.84Z" fill="#fff"/>
      <path id="Path_185" data-name="Path 185" d="M242.59,216.24v.55H240.3v-3h2.23v.55H241V215h1.37v.54H241v.68Z" fill="#fff"/>
      <path id="Path_186" data-name="Path 186" d="M245,216.79l-.58-.82h-.63v.82h-.68v-3h1.28c.79,0,1.29.41,1.29,1.07a1,1,0,0,1-.61.94l.66.95Zm-.65-2.4h-.56v1h.56c.42,0,.63-.19.63-.52s-.18-.48-.6-.48Z" fill="#fff"/>
      <rect id="Rectangle_21" data-name="Rectangle 21" width="43.95" height="3.8" rx="1.59" transform="translate(213.05 224.16)" fill="#fff"/>
      <rect id="Rectangle_22" data-name="Rectangle 22" width="24.42" height="3.8" rx="1.59" transform="translate(305.23 224.16)" fill="#fff"/>
      <g id="Group_28" data-name="Group 28" opacity="0.2">
        <path id="Path_187" data-name="Path 187" d="M339.17,151.78H204.62a4.78,4.78,0,0,0-4.78,4.77v24.14c8.5,5.93,20.18,7,30.54,4.81,12.21-2.55,23.27-8.8,34.64-13.92s23.88-9.22,36.17-7.11c11.61,2,21.5,9.21,32,14.56a62.07,62.07,0,0,0,10.76,4.34V156.55a4.78,4.78,0,0,0-4.78-4.77Z" fill="#fff"/>
      </g>
      <rect id="Rectangle_23" data-name="Rectangle 23" width="37.41" height="37.41" rx="8.78" transform="translate(202.85 278.82)" fill="#022d2d"/>
      <path id="Path_188" data-name="Path 188" d="M225.25,303.25h-8.18a.47.47,0,0,1-.46-.37l-3-12h-2.84a.5.5,0,0,1,0-1H214a.49.49,0,0,1,.47.37l3,12h7.8a.5.5,0,1,1,0,1Z" fill="#fff"/>
      <circle id="Ellipse_6" data-name="Ellipse 6" cx="1.53" cy="1.53" r="1.53" transform="translate(217.09 304.03)" fill="#022d2d"/>
      <path id="Path_189" data-name="Path 189" d="M218.62,307.57a2,2,0,1,1,2-2A2,2,0,0,1,218.62,307.57Zm0-3.06a1,1,0,1,0,1,1.05,1.06,1.06,0,0,0-1-1.05Z" fill="#fff"/>
      <circle id="Ellipse_7" data-name="Ellipse 7" cx="1.53" cy="1.53" r="1.53" transform="translate(225.6 304.03)" fill="#022d2d"/>
      <path id="Path_190" data-name="Path 190" d="M227.13,307.57a2,2,0,1,1,2-2A2,2,0,0,1,227.13,307.57Zm0-3.06a1,1,0,1,0,.758.292A1,1,0,0,0,227.13,304.51Z" fill="#fff"/>
      <path id="Path_191" data-name="Path 191" d="M228.44,301H216.8a.48.48,0,0,1-.49-.48.49.49,0,0,1,.49-.48H228l1.28-7.21H214.63a.5.5,0,0,1,0-1H229.9a.5.5,0,0,1,.37.17.47.47,0,0,1,.1.4l-1.45,8.17a.48.48,0,0,1-.48.43Z" fill="#fff"/>
      <rect id="Rectangle_24" data-name="Rectangle 24" width="75.89" height="9.03" rx="3.77" transform="translate(252.67 285.39)" fill="#e0e0e0"/>
      <rect id="Rectangle_25" data-name="Rectangle 25" width="38.36" height="9.03" rx="3.77" transform="translate(252.67 303.14)" fill="#e0e0e0"/>
      <path id="Path_192" data-name="Path 192" d="M360.09,264.73c0,.14-39.49.26-88.19.26s-88.21-.12-88.21-.26,39.49-.26,88.21-.26S360.09,264.59,360.09,264.73Z" fill="#e0e0e0"/>
      <rect id="Rectangle_26" data-name="Rectangle 26" width="115.04" height="38.79" rx="19" transform="translate(215.31 331.22)" fill="#022d2d"/>
      <path id="Path_193" data-name="Path 193" d="M270.56,348.78c0,2-1.46,3.16-3.8,3.16h-1.5v2.24h-2.42v-8.57h3.92C269.1,345.61,270.56,346.83,270.56,348.78Zm-2.44,0c0-.79-.51-1.26-1.51-1.26h-1.35V350h1.35C267.61,350,268.12,349.57,268.12,348.78Z" fill="#fff"/>
      <path id="Path_194" data-name="Path 194" d="M277.05,352.52h-3.62l-.68,1.66h-2.47l3.78-8.57h2.39l3.79,8.57h-2.52Zm-.71-1.79-1.1-2.74-1.1,2.74Z" fill="#fff"/>
      <path id="Path_195" data-name="Path 195" d="M285,351.11v3.07h-2.42v-3.11l-3.27-5.46h2.56l2,3.41,2-3.41h2.35Z" fill="#fff"/>
      <circle id="Ellipse_8" data-name="Ellipse 8" cx="7.47" cy="7.47" r="7.47" transform="matrix(0.231, -0.973, 0.973, 0.231, 196.163, 119.245)" fill="#022d2d"/>
      <rect id="Rectangle_27" data-name="Rectangle 27" width="55.94" height="6.55" rx="2.74" transform="translate(243.92 109.85)" fill="#e0e0e0"/>
      <rect id="Rectangle_28" data-name="Rectangle 28" width="114.19" height="7.63" transform="translate(221.39 381.2)" fill="#263238"/>
      <path id="Path_196" data-name="Path 196" d="M226.8,385c1,.34,14.38.34,14.38,26.75s-.67,59.18,13.37,60.18,87.93,0,87.93,0V405.65a20.09,20.09,0,0,0-20-20.09Z" fill="#fafafa"/>
      <path id="Path_197" data-name="Path 197" d="M226.8,385l55.54.17,28.18.1h7.72a44.942,44.942,0,0,1,8,.39,20.517,20.517,0,0,1,16.31,17.5,36.141,36.141,0,0,1,.18,4.41V472.2h-.26c-25.84.31-50.41.54-72.75.36-2.79,0-5.54-.07-8.26-.12a67.738,67.738,0,0,1-8.07-.44,9,9,0,0,1-3.62-1.7,13.25,13.25,0,0,1-2.6-2.95,26.439,26.439,0,0,1-3-7,77.27,77.27,0,0,1-2.38-14.17c-.41-4.58-.59-9-.69-13.21-.22-8.43,0-16.05-.15-22.73s-1.16-12.43-3.22-16.65a18.21,18.21,0,0,0-3.58-5.05,13.59,13.59,0,0,0-3.77-2.51,18.511,18.511,0,0,0-3.61-1l.95.15a12.341,12.341,0,0,1,2.7.78,13.67,13.67,0,0,1,3.84,2.5,18.29,18.29,0,0,1,3.65,5.07c2.11,4.24,3.17,10.05,3.33,16.73s0,14.31.23,22.73c.11,4.2.3,8.61.72,13.19a77.67,77.67,0,0,0,2.39,14.08,26.139,26.139,0,0,0,2.94,6.87,12.8,12.8,0,0,0,2.51,2.84,8.809,8.809,0,0,0,3.43,1.61c2.56.34,5.29.32,8,.41s5.47.1,8.26.12c22.32.15,46.9-.1,72.74-.41l-.26.26V407.54a34.73,34.73,0,0,0-.16-4.35,19.78,19.78,0,0,0-15.93-17,45.312,45.312,0,0,0-7.88-.4l-7.69-.05-28-.22Z" fill="#263238"/>
      <path id="Path_198" data-name="Path 198" d="M254.89,471.94s11.56,0,14-17.05c2.95-20.32,0-38.12,15.71-38.79s57.84,0,57.84,0v55.84Z" fill="#e0e0e0"/>
      <path id="Path_199" data-name="Path 199" d="M282.67,416.3s12.67-1.53,12.67,19.53.33,35,14.37,36.55,100.31,0,100.31,0-13.71-6.46-14.71-25.52-5-30.68-18.73-31.05S282.67,416.3,282.67,416.3Z" fill="#fafafa"/>
      <path id="Path_200" data-name="Path 200" d="M282.67,416.3h3.34l9.61-.15,35.35-.38,24.44-.17h13.63c2.34,0,4.72,0,7.13.07a20.281,20.281,0,0,1,7.24,1.39,14.66,14.66,0,0,1,5.88,4.72,24.5,24.5,0,0,1,3.47,6.91,68,68,0,0,1,2.63,15.66c.09,1.35.16,2.7.31,4l.2,2,.38,2,.18,1,.28,1,.56,2a35,35,0,0,0,1.59,3.8,27.49,27.49,0,0,0,11.24,12.08l.87.48h-3.39c-23.15.38-45.2.63-65.26.62-10,0-19.57,0-28.49-.42a40.639,40.639,0,0,1-6.56-.71,13.29,13.29,0,0,1-5.69-2.87,13.94,13.94,0,0,1-3.52-5,26.432,26.432,0,0,1-1.69-5.6,69.4,69.4,0,0,1-1.08-10.78c-.13-3.42-.14-6.64-.14-9.66,0-1.5,0-3-.07-4.35a13.872,13.872,0,0,0-.1-2.05c-.1-.67-.16-1.32-.24-1.95l-.12-.95c-.06-.31-.13-.61-.2-.91-.13-.6-.27-1.19-.39-1.76l-.56-1.62-.27-.77-.36-.72a12.19,12.19,0,0,0-3.32-4.45,9.79,9.79,0,0,0-3.56-2,9.53,9.53,0,0,0-2.48-.45h-.86a1.921,1.921,0,0,1,.21,0,5.659,5.659,0,0,1,.65,0,9.418,9.418,0,0,1,2.51.41,9.711,9.711,0,0,1,3.63,1.95,12.38,12.38,0,0,1,3.41,4.48c2,3.83,2.43,9.18,2.41,15.17,0,3,0,6.24.18,9.65a71.1,71.1,0,0,0,1.11,10.72,26.129,26.129,0,0,0,1.68,5.52A13.55,13.55,0,0,0,301.9,469a12.691,12.691,0,0,0,5.52,2.76,39,39,0,0,0,6.48.68c8.91.37,18.44.38,28.47.38,20.05,0,42.1-.29,65.25-.66l2.39-.05-.11.5a28,28,0,0,1-11.48-12.32,36.276,36.276,0,0,1-1.61-3.87l-.57-2-.28-1-.19-1-.38-2-.2-2c-.15-1.37-.22-2.71-.31-4a67.24,67.24,0,0,0-2.6-15.55A23.929,23.929,0,0,0,388.9,422a14.17,14.17,0,0,0-5.68-4.58,20,20,0,0,0-7.06-1.37c-2.41,0-4.78-.06-7.12-.08H355.41l-24.44.1-35.35.22-9.61.05h-2.5Z" fill="#263238"/>
      <path id="Path_201" data-name="Path 201" d="M286,416.27c0,.06-1,0-2.8.21a12.11,12.11,0,0,0-6.73,3.27c-2.35,2.19-4.11,5.78-5,9.93s-1,8.92-1.17,13.87a68.842,68.842,0,0,1-1.62,13.91,32.862,32.862,0,0,1-2.07,5.77,21.259,21.259,0,0,1-2.73,4.6,11.509,11.509,0,0,1-3.37,2.85,11.9,11.9,0,0,1-3.16,1.09,12.893,12.893,0,0,1-2.09.19,4.067,4.067,0,0,1-.73,0,3.54,3.54,0,0,1,.73-.09,13.544,13.544,0,0,0,2-.28,11.69,11.69,0,0,0,3.05-1.15,11.071,11.071,0,0,0,3.24-2.83,21.571,21.571,0,0,0,2.62-4.54,34.458,34.458,0,0,0,2-5.71,70.569,70.569,0,0,0,1.56-13.82c.21-4.93.28-9.7,1.22-13.94s2.75-7.87,5.21-10.1a12,12,0,0,1,6.95-3.2,9.328,9.328,0,0,1,1.21-.09,8.39,8.39,0,0,1,.89,0,3.811,3.811,0,0,1,.79.06Z" fill="#263238"/>
      <path id="Path_202" data-name="Path 202" d="M328.08,400.32c0,.14-16.2.26-36.18.26s-36.18-.12-36.18-.26,16.19-.26,36.18-.26S328.08,400.17,328.08,400.32Z" fill="#e0e0e0"/>
      <path id="Path_203" data-name="Path 203" d="M329.58,411.08c0,.14-15.67.26-35,.26s-35-.12-35-.26,15.66-.26,35-.26S329.58,410.94,329.58,411.08Z" fill="#e0e0e0"/>
      <path id="Path_204" data-name="Path 204" d="M378.91,432c0,.15-16.2.26-36.18.26s-36.18-.11-36.18-.26,16.2-.26,36.18-.26S378.91,431.87,378.91,432Z" fill="#e0e0e0"/>
      <path id="Path_205" data-name="Path 205" d="M379.81,444.57c0,.14-14.86.26-33.19.26s-33.19-.12-33.19-.26,14.86-.26,33.19-.26S379.81,444.43,379.81,444.57Z" fill="#e0e0e0"/>
      <rect id="Rectangle_29" data-name="Rectangle 29" width="13.34" height="13.34" rx="3.15" transform="translate(309.15 164.45)" fill="#fff"/>
    </g>
    <g id="freepik--speech-bubble--inject-6">
      <path id="Path_206" data-name="Path 206" d="M72.85,149.81l-6.61-.8a25.41,25.41,0,1,1,6.54-6.33h0Z" fill="#dee965"/>
      <path id="Path_207" data-name="Path 207" d="M72.85,149.81v-1.87c0-1.22-.06-3-.1-5.27l.15.07h0a.09.09,0,0,1-.13,0,.11.11,0,0,1,0-.12,25.16,25.16,0,0,0,4.45-11.3,25.6,25.6,0,0,0-.21-8,25.34,25.34,0,0,0-3.27-8.47,25.81,25.81,0,0,0-6.85-7.33,24.59,24.59,0,0,0-9.94-4.29,25.66,25.66,0,0,0-11.5.49,24.65,24.65,0,0,0-10.48,6,25.36,25.36,0,0,0-4,4.77c-.51.89-1,1.77-1.48,2.68l-.6,1.4-.29.69-.23.72a25.82,25.82,0,0,0-1,11.58,24.58,24.58,0,0,0,3.92,10.21,25.28,25.28,0,0,0,15.52,10.78l2.1.36c.69.11,1.38.12,2,.19a22.651,22.651,0,0,0,3.88-.08,25.28,25.28,0,0,0,11.42-4h.06l4.87.64,1.28.18.45.07h-.42l-1.26-.13-4.94-.54h.06a25.23,25.23,0,0,1-11.49,4.19,22.171,22.171,0,0,1-3.93.1c-.68-.06-1.37-.07-2.07-.17L46.69,153a25.58,25.58,0,0,1-8.54-3.62A26.26,26.26,0,0,1,30.87,142a24.91,24.91,0,0,1-4-10.37,26.15,26.15,0,0,1,1-11.79l.23-.73.3-.71c.21-.47.41-1,.61-1.42.45-.94,1-1.83,1.5-2.74a26.28,26.28,0,0,1,4-4.86,25,25,0,0,1,10.66-6.06A26,26,0,0,1,57,102.79a24.83,24.83,0,0,1,10.1,4.39,26,26,0,0,1,6.9,7.46,25.52,25.52,0,0,1,3.29,8.61,26.18,26.18,0,0,1,.17,8.11,25.28,25.28,0,0,1-4.59,11.37l-.14-.12h0a.09.09,0,0,1,.13,0,.07.07,0,0,1,0,.06v6.69C72.86,149.72,72.85,149.81,72.85,149.81Z" fill="#263238"/>
      <path id="Path_208" data-name="Path 208" d="M40.97,129.45l3.17-3.4,6.54,5.43,12.05-12.41,3.16,3.18L50.43,137.84Z" fill="#002323"/>
    </g>
    <g id="freepik--Character--inject-6">
      <path id="Path_209" data-name="Path 209" d="M96.91,117.45a19.19,19.19,0,0,1,20.36-16.21l1,.07c10.64,1.4,15.39,11.23,13.7,21.83l-3.71,37.62-.18,7.77-25.35,2.3.55-16.42s-10.16-2.34-9.54-12.62C94,136.82,95.49,126.64,96.91,117.45Z" fill="#ffbf9d"/>
      <path id="Path_210" data-name="Path 210" d="M103.19,154.39a24.9,24.9,0,0,0,13.75-3s-3.57,7.42-13.75,5.75Z" fill="#ff9a6c"/>
      <path id="Path_211" data-name="Path 211" d="M100.89,127.7a1.47,1.47,0,0,0,1.31,1.58,1.42,1.42,0,0,0,1.61-1.21,1.47,1.47,0,0,0-1.31-1.59,1.42,1.42,0,0,0-1.61,1.22Z" fill="#263238"/>
      <path id="Path_212" data-name="Path 212" d="M98.75,122.64c.17.2,1.34-.54,2.92-.42s2.68,1,2.86.81-.07-.44-.54-.84a4.07,4.07,0,0,0-2.28-.89,4,4,0,0,0-2.34.57C98.86,122.21,98.67,122.55,98.75,122.64Z" fill="#263238"/>
      <path id="Path_213" data-name="Path 213" d="M115.69,129.11a1.46,1.46,0,0,0,1.3,1.58,1.4,1.4,0,0,0,1.61-1.21,1.48,1.48,0,0,0-1.3-1.59,1.4,1.4,0,0,0-1.61,1.22Z" fill="#263238"/>
      <path id="Path_214" data-name="Path 214" d="M114.25,124.06c.17.21,1.34-.53,2.92-.42s2.68,1,2.86.82-.07-.44-.55-.85a4,4,0,0,0-2.27-.88,3.83,3.83,0,0,0-2.34.57C114.36,123.64,114.17,124,114.25,124.06Z" fill="#263238"/>
      <path id="Path_215" data-name="Path 215" d="M107.67,135.35a10.619,10.619,0,0,0-2.53-.65c-.4-.07-.78-.18-.83-.46a2.09,2.09,0,0,1,.36-1.17l1.42-3c2-4.25,3.43-7.76,3.26-7.84s-1.91,3.31-3.89,7.56c-.47,1-.93,2-1.36,3a2.34,2.34,0,0,0-.33,1.57,1,1,0,0,0,.62.63,2.8,2.8,0,0,0,.68.15A10.31,10.31,0,0,0,107.67,135.35Z" fill="#263238"/>
      <path id="Path_216" data-name="Path 216" d="M112.23,136.78c-.25,0-.38,1.68-1.93,2.79s-3.37.79-3.4,1,.38.36,1.15.44a4.28,4.28,0,0,0,2.83-.76,3.71,3.71,0,0,0,1.51-2.35C112.51,137.22,112.35,136.78,112.23,136.78Z" fill="#263238"/>
      <path id="Path_217" data-name="Path 217" d="M114.29,117.85c.13.44,1.72.35,3.55.71s3.3,1,3.58.6c.12-.18-.11-.6-.69-1.06a6.33,6.33,0,0,0-5.42-1C114.61,117.32,114.24,117.64,114.29,117.85Z" fill="#263238"/>
      <path id="Path_218" data-name="Path 218" d="M99.67,118.11c.25.38,1.36.09,2.67.16s2.4.42,2.68.06c.13-.17,0-.54-.48-.92a3.92,3.92,0,0,0-4.32-.18C99.74,117.57,99.56,117.93,99.67,118.11Z" fill="#263238"/>
      <path id="Path_219" data-name="Path 219" d="M129.59,133a2.78,2.78,0,0,1,3.2-2.46c1.91.32,4,1.56,3.54,5.51-.73,7-7.62,4.82-7.61,4.62S129.25,135.94,129.59,133Z" fill="#ffbf9d"/>
      <path id="Path_220" data-name="Path 220" d="M130.53,138.2a2.13,2.13,0,0,0,.31.22,1.23,1.23,0,0,0,.91.11,3,3,0,0,0,1.68-2.56,4.16,4.16,0,0,0-.16-1.78,1.42,1.42,0,0,0-.82-1,.64.64,0,0,0-.76.26c-.11.19-.08.33-.12.34s-.14-.13,0-.41a.72.72,0,0,1,.32-.41.91.91,0,0,1,.7-.11A1.72,1.72,0,0,1,133.7,134a4.11,4.11,0,0,1,.21,2c-.19,1.4-1,2.65-2.09,2.83a1.29,1.29,0,0,1-1.1-.3C130.52,138.38,130.5,138.22,130.53,138.2Z" fill="#ff9a6c"/>
      <path id="Path_221" data-name="Path 221" d="M135.2,125.87c-.58,2-.37,5.35-2.16,4.89-3.57-.9-2.71,6.41-4.42,5.69s-3.18-2.78-3.29-7.28c-.13-5.7,2.16-9.82-.08-16.36a8.65,8.65,0,0,0-7.22-4.47,8.8,8.8,0,0,0-7.57,4c-.32-2-1.29-5-3.06-6a5.16,5.16,0,0,0-5.67.47,4.19,4.19,0,0,0-.74,5.45,2,2,0,0,1-2.24-.8,3.36,3.36,0,0,0,.89,2.56,3.11,3.11,0,0,1-1.81-1.26c.18.83.35,1.65.53,2.47-3,.08-5.94-2.83-6.78-5.41-1.26-3.93-.29-7.89,1.91-11.38a12.33,12.33,0,0,1,10.24-5.91,9.446,9.446,0,0,1,9.16,5.79c2.68-1.89,8.1-2.55,11.08-1.19a9.63,9.63,0,0,1,5.49,7.63,5.74,5.74,0,0,1,5.68,1.1l.38.33a8.58,8.58,0,0,1,2.49,7.9c-.22,1.15-.62,2.33-.85,3.25C136.47,120.11,135.2,125.87,135.2,125.87Z"/>
      <path id="Path_222" data-name="Path 222" d="M98.28,111.32s-.09,0-.24-.19a4.38,4.38,0,0,1-.59-.64,6,6,0,0,1-1.18-3,5.7,5.7,0,0,1,1.4-4.49,6.14,6.14,0,0,1,5.36-2,6.89,6.89,0,0,1,2.84,1.12A9.21,9.21,0,0,1,108,104a11.17,11.17,0,0,1,2.5,7.45,2.332,2.332,0,0,1-.09.87,1.21,1.21,0,0,1-.06.3,13.41,13.41,0,0,0-.41-4.31,11.29,11.29,0,0,0-2.16-4.13,7.84,7.84,0,0,0-4.76-2.9,5.91,5.91,0,0,0-5.11,1.91,5.53,5.53,0,0,0-1.39,4.28,6.08,6.08,0,0,0,1.06,2.93C98,111,98.3,111.3,98.28,111.32Z" fill="#455a64"/>
      <path id="Path_223" data-name="Path 223" d="M96.9,114.46a1.67,1.67,0,0,1-.21-.34c-.13-.23-.32-.57-.55-1a22.66,22.66,0,0,1-1.65-3.92,11.16,11.16,0,0,1-.46-2.91,8,8,0,0,1,.61-3.33,6.52,6.52,0,0,1,2.41-2.87,7.88,7.88,0,0,1,3.81-1.26,9.72,9.72,0,0,1,4,.63,12.58,12.58,0,0,1,3.25,1.86,9.64,9.64,0,0,1,3.55,5.14,7,7,0,0,1-.21,4.22,5.061,5.061,0,0,1-.52,1,1.34,1.34,0,0,1-.25.32,8.221,8.221,0,0,0,.66-1.39,7.09,7.09,0,0,0,.11-4.12,9.58,9.58,0,0,0-3.52-5,10.7,10.7,0,0,0-7-2.4,7.59,7.59,0,0,0-3.67,1.21,6.29,6.29,0,0,0-2.31,2.72,7.9,7.9,0,0,0-.61,3.22,10.88,10.88,0,0,0,.41,2.85,23.681,23.681,0,0,0,1.55,3.92l.5,1A1.89,1.89,0,0,1,96.9,114.46Z" fill="#455a64"/>
      <path id="Path_224" data-name="Path 224" d="M132.72,121.33a13.162,13.162,0,0,0,1.51-1.54,10.6,10.6,0,0,0,2.24-4.58,10.44,10.44,0,0,0-.24-5.09c-.38-1.27-.81-2-.76-2a2,2,0,0,1,.33.48,9.471,9.471,0,0,1,.64,1.46,9.89,9.89,0,0,1-2.05,9.88,9.46,9.46,0,0,1-1.17,1.09,1.92,1.92,0,0,1-.5.3Z" fill="#455a64"/>
      <path id="Path_225" data-name="Path 225" d="M126.33,121.13a7.027,7.027,0,0,0,.91-.54,5.11,5.11,0,0,0,1.77-2.13l.29-.67-.06.73c-.09,1-.19,2.13-.3,3.36l-.23-.14a9.2,9.2,0,0,0,3.86-5.94,9.54,9.54,0,0,0,0-3.3,13.212,13.212,0,0,0-1-2.9,1.22,1.22,0,0,1,.13.17,5,5,0,0,1,.31.54,8.73,8.73,0,0,1,.77,2.15,9.22,9.22,0,0,1-3.9,9.53l-.26.17v-.31c.13-1.23.25-2.37.36-3.35l.23.06a5.1,5.1,0,0,1-1.92,2.15,5.591,5.591,0,0,1-.71.35A.75.75,0,0,1,126.33,121.13Z" fill="#455a64"/>
      <path id="Path_226" data-name="Path 226" d="M124.38,106.35a6.65,6.65,0,0,0-1.62-2,5.89,5.89,0,0,0-2.53-1.17,6.19,6.19,0,0,0-3.37.3,7.25,7.25,0,0,0-2.83,1.92,8.69,8.69,0,0,0-1.53,2.37,16.381,16.381,0,0,0-.76,2.51,2.25,2.25,0,0,1,.05-.71,8.9,8.9,0,0,1,.51-1.89,8.6,8.6,0,0,1,1.51-2.48,7.4,7.4,0,0,1,2.94-2,6.41,6.41,0,0,1,3.54-.29,5.92,5.92,0,0,1,2.61,1.28,5.3,5.3,0,0,1,1.23,1.53,4.71,4.71,0,0,1,.21.49C124.38,106.28,124.39,106.34,124.38,106.35Z" fill="#455a64"/>
      <path id="Path_227" data-name="Path 227" d="M122.74,101a9.8,9.8,0,0,0-1.93-.75,7.08,7.08,0,0,0-4.82.68,8.75,8.75,0,0,0-3.41,3.55c-.61,1.14-.81,1.93-.86,1.91a1.75,1.75,0,0,1,.1-.56,8.71,8.71,0,0,1,.56-1.45,8.51,8.51,0,0,1,3.46-3.72,6.92,6.92,0,0,1,5-.62,5.37,5.37,0,0,1,1.43.61,1.79,1.79,0,0,1,.47.35Z" fill="#455a64"/>
      <path id="Path_228" data-name="Path 228" d="M100.17,432.13l.71,19.23s-19.31,7.18-19.53,10.75h37.34l.13-30Z"/>
      <path id="Path_229" data-name="Path 229" d="M112.42,449.74a1.52,1.52,0,0,1,1.06,1.74,1.47,1.47,0,0,1-1.72,1.06,1.61,1.61,0,0,1-1.1-1.85,1.51,1.51,0,0,1,1.9-.91" fill="#e0e0e0"/>
      <path id="Path_230" data-name="Path 230" d="M118.69,462.08l-.1-3-35.76,1.16s-1.67.73-1.48,1.9Z" fill="#263238"/>
      <path id="Path_231" data-name="Path 231" d="M100.27,451.18c0,.18.92.26,1.82.84s1.37,1.36,1.54,1.28-.1-1.12-1.2-1.81S100.23,451,100.27,451.18Z" fill="#fff"/>
      <path id="Path_232" data-name="Path 232" d="M96.36,452.8c0,.18.75.48,1.37,1.26s.8,1.58,1,1.57.29-1-.49-2S96.36,452.62,96.36,452.8Z" fill="#fff"/>
      <path id="Path_233" data-name="Path 233" d="M94.14,457.49c.16,0,.42-.88,0-1.87s-1.32-1.4-1.4-1.25.45.69.82,1.51S94,457.47,94.14,457.49Z" fill="#fff"/>
      <path id="Path_234" data-name="Path 234" d="M100.6,446.77c.08.17.91-.08,1.94,0s1.84.39,1.93.23-.68-.8-1.89-.87S100.51,446.63,100.6,446.77Z" fill="#fff"/>
      <path id="Path_235" data-name="Path 235" d="M143,433.89l1.48,23.24-4.12,18.72a2.39,2.39,0,0,0,2,2.87h0a2.36,2.36,0,0,0,2.06-.7c3.41-3.55,15.9-16.68,15.69-18.37-.23-2,.06-24.61.06-24.61Z"/>
      <path id="Path_236" data-name="Path 236" d="M142.36,478.72l17.69-20.64v1a3.59,3.59,0,0,1-.76,2.36c-1.4,1.79-5.39,6.67-14.84,16.59a2.38,2.38,0,0,1-2.13.7Z" fill="#263238"/>
      <g id="Group_29" data-name="Group 29" opacity="0.6">
        <path id="Path_237" data-name="Path 237" d="M155,450.77a1.43,1.43,0,0,0-.32,1.9,1.39,1.39,0,0,0,1.88.33,1.52,1.52,0,0,0,.32-2,1.43,1.43,0,0,0-2-.13" fill="#fff"/>
      </g>
      <path id="Path_238" data-name="Path 238" d="M147.26,468.34a7.38,7.38,0,0,0-2.12-1.73,7.191,7.191,0,0,0-2.7-.4c0-.06.27-.25.81-.35a3.77,3.77,0,0,1,3.72,1.65C147.26,468,147.31,468.31,147.26,468.34Z" fill="#fff"/>
      <path id="Path_239" data-name="Path 239" d="M145.73,471.52a20.005,20.005,0,0,0-2.1-.92,22.44,22.44,0,0,0-2.29-.2,2.68,2.68,0,0,1,2.41-.29C145.14,470.45,145.85,471.45,145.73,471.52Z" fill="#fff"/>
      <path id="Path_240" data-name="Path 240" d="M150.18,464.22a24.082,24.082,0,0,0-3.15-1.64,25.047,25.047,0,0,0-3.48-.66,6.51,6.51,0,0,1,6.63,2.3Z" fill="#fff"/>
      <path id="Path_241" data-name="Path 241" d="M150.32,457.12c-.06.14-1.37-.35-3-.34s-3,.47-3,.32a5.92,5.92,0,0,1,6.08,0Z" fill="#fff"/>
      <path id="Path_242" data-name="Path 242" d="M150.05,450.28a12,12,0,0,0-3.15-.43,11.941,11.941,0,0,0-3.05.9,2.239,2.239,0,0,1,.72-.68,5.24,5.24,0,0,1,2.29-.73,5.1,5.1,0,0,1,2.37.38C149.8,450,150.08,450.23,150.05,450.28Z" fill="#fff"/>
      <path id="Path_243" data-name="Path 243" d="M146.89,448.55a1.94,1.94,0,0,1-.07-.88,6.26,6.26,0,0,1,.6-2.33,2.78,2.78,0,0,1,1.11-1.34,1,1,0,0,1,1.09.17,1.49,1.49,0,0,1,.41,1,3.37,3.37,0,0,1-2.82,3.24,3.93,3.93,0,0,1-3.93-1.89,1.39,1.39,0,0,1-.11-1.12,1,1,0,0,1,1-.54,3.29,3.29,0,0,1,1.56.73,6.82,6.82,0,0,1,1.66,1.75c.32.47.42.77.39.78a10.73,10.73,0,0,0-2.26-2.23,3.07,3.07,0,0,0-1.38-.61.5.5,0,0,0-.52.29,1,1,0,0,0,.11.74,3.49,3.49,0,0,0,3.42,1.59,2.92,2.92,0,0,0,2.44-2.71,1.11,1.11,0,0,0-.26-.73.5.5,0,0,0-.59-.11,2.45,2.45,0,0,0-1,1.12,9,9,0,0,0-.85,3.08Z" fill="#fff"/>
      <path id="Path_244" data-name="Path 244" d="M83.81,269.59a82.66,82.66,0,0,0-2.36,24.26c.27,5.18,16.9,154.7,16.9,154.7l21.14-1.9-3.65-139.8.88.79s12.6,58.82,13.44,68.12c.75,8.35,10.8,75.49,10.8,75.49l20.52-1-4.65-84.88-6.22-77-2.49-22.44Z"/>
      <path id="Path_245" data-name="Path 245" d="M119.91,294.8a5,5,0,0,1-1,.53,11.339,11.339,0,0,1-2.94.95,6.36,6.36,0,0,1-2.17,0,4.57,4.57,0,0,1-2.24-1.14,5.53,5.53,0,0,1-1.32-2.44c-.25-.92-.39-1.88-.56-2.85-.66-3.89-1.09-7.44-1.33-10-.12-1.28-.19-2.33-.23-3.05a4.75,4.75,0,0,1,0-1.13,5.569,5.569,0,0,1,.2,1.11c.1.82.23,1.84.38,3,.33,2.57.81,6.1,1.47,10,.33,1.92.55,3.87,1.72,5a4.86,4.86,0,0,0,4,1.15,13.8,13.8,0,0,0,2.92-.78,4.49,4.49,0,0,1,1.1-.35Z" fill="#455a64"/>
      <path id="Path_246" data-name="Path 246" d="M113.24,276.42a.96.96,0,0,1,.49-.14,2.18,2.18,0,0,1,1.31.46,2.249,2.249,0,1,1-3.45,1.24,2,2,0,0,1,.74-1.17c.27-.2.45-.22.46-.2a2.62,2.62,0,0,0-.86,1.44,2,2,0,0,0,.41,1.66,1.75,1.75,0,0,0,1.94.41,1.78,1.78,0,0,0,1.26-1.52,2.08,2.08,0,0,0-.72-1.56,2.67,2.67,0,0,0-1.58-.62Z" fill="#455a64"/>
      <path id="Path_247" data-name="Path 247" d="M150.32,287a2.721,2.721,0,0,1-.81.1,15,15,0,0,1-2.21,0,21.42,21.42,0,0,1-13.08-5.87,15.284,15.284,0,0,1-1.49-1.64c-.32-.41-.48-.65-.45-.67s.8.83,2.18,2.05a23.73,23.73,0,0,0,12.88,5.78A21.287,21.287,0,0,1,150.32,287Z" fill="#455a64"/>
      <path id="Path_248" data-name="Path 248" d="M93.32,276.39A10.35,10.35,0,0,1,92,278.76a26.889,26.889,0,0,1-4.2,5,26.539,26.539,0,0,1-5.27,3.82,10.169,10.169,0,0,1-2.46,1.1,25.161,25.161,0,0,1,2.28-1.4,34.469,34.469,0,0,0,5.11-3.88,34,34,0,0,0,4.25-4.81A23.1,23.1,0,0,1,93.32,276.39Z" fill="#455a64"/>
      <path id="Path_249" data-name="Path 249" d="M72.33,191.93c-3.14,9.17-2.79,8.38-8.67,35.78-1.08,5.06.83,13,5.39,15.4s12.66-.24,15.37-4.64l4.36-41.35Z" fill="#ffbf9d"/>
      <path id="Path_250" data-name="Path 250" d="M148.13,241.62,148,219.83l.09-2.14,22.11-5.16s-4.34-14.3-8.32-29.67c-2.3-8.88-9.95-13.34-11.8-14.3h0l-.41-.19h0l-21.28-9c-4.3,4.58-10.56,8.26-16.59,6.5a18.89,18.89,0,0,1-8.76-6L88.71,164.8h0a18.68,18.68,0,0,0-9.92,8c-3,5.35-12.59,29.7-12.79,30.2l17.76,1.59s-3.15,57.62-2,67.91c0,0,4.32,3,15.2,3.5,22.08,1,54.93-.53,54.93-.53-.52-3.32-1.06-8.87-1.36-11.68Z" fill="#dee965"/>
      <path id="Path_251" data-name="Path 251" d="M84.4,183.18c.09,0-.38,13.74-1.05,30.68S82.06,244.54,82,244.54s.38-13.74,1-30.69S84.31,183.17,84.4,183.18Z" fill="#263238"/>
      <path id="Path_252" data-name="Path 252" d="M145.7,187c-.15,0,.29,12.2,1,27.23s1.41,27.21,1.57,27.2-.29-12.19-1-27.23S145.86,187,145.7,187Z" fill="#263238"/>
      <path id="Path_253" data-name="Path 253" d="M170.31,222.9c-.72-5.41-1.32-10.19-1.32-10.19l-17.68,4.11.76,2.85L138.4,205.78l-2.17.19-6.88,7.15s6,12.67,9.49,17.6c4.54,6.42,11.67,16.2,21.44,15.38C169.31,245.34,171.6,232.6,170.31,222.9Z" fill="#ffbf9d"/>
      <path id="Path_254" data-name="Path 254" d="M160.73,226.14a15,15,0,0,0-3.88-3.57,15.71,15.71,0,0,0-4.62-2.56c-.08.15,2,1.33,4.28,3S160.62,226.26,160.73,226.14Z" fill="#ff9a6c"/>
      <path id="Path_255" data-name="Path 255" d="M114.53,187.66l6.08-3.1,7.88,2.5,3.9,3.6,6,15.12,4.81,6.09-8.49,11-5.37-9.8s-4.55-2-6.38-4.86-2.64-4.44-2.64-4.44-2.63-1.26-3.12-2.48a5.82,5.82,0,0,1-.46-2.15l1.33-1.95a4.9,4.9,0,0,1,.4-2.48,2.43,2.43,0,0,1,1-.83s-.39-1.64.22-2.23a19.33,19.33,0,0,1,3.64-1.66h0l-2.65-1.51S114.86,190.35,114.53,187.66Z" fill="#ffbf9d"/>
      <path id="Path_256" data-name="Path 256" d="M123.55,193.15c0,.08-.93.1-2,.34s-2,.58-2,.51a4.78,4.78,0,0,1,2-.76A4.53,4.53,0,0,1,123.55,193.15Z" fill="#ff9a6c"/>
      <path id="Path_257" data-name="Path 257" d="M121.73,196.54a16,16,0,0,1-1.76.23,14.79,14.79,0,0,1-1.74.3,3.83,3.83,0,0,1,1.7-.56,4,4,0,0,1,1.8.03Z" fill="#ff9a6c"/>
      <path id="Path_258" data-name="Path 258" d="M119.16,201.86c-.07,0-.12-.35-.11-.78s.07-.77.14-.77.12.35.12.78S119.23,201.86,119.16,201.86Z" fill="#ff9a6c"/>
      <path id="Path_259" data-name="Path 259" d="M120.32,203.5a3.4,3.4,0,0,0-.56-1.4,3.79,3.79,0,0,0-1.22-.89,1.235,1.235,0,0,1,.48,0,2,2,0,0,1,1,.68,2.08,2.08,0,0,1,.43,1.08C120.42,203.32,120.35,203.5,120.32,203.5Z" fill="#ff9a6c"/>
      <path id="Path_260" data-name="Path 260" d="M125.07,198.65a3.7,3.7,0,0,0-1.06-1,4,4,0,0,0-1.44-.36.98.98,0,0,1,.46-.13,2.08,2.08,0,0,1,1.92,1.07C125.09,198.46,125.1,198.64,125.07,198.65Z" fill="#ff9a6c"/>
      <path id="Path_261" data-name="Path 261" d="M127.84,195.29a3.7,3.7,0,0,0-1-1,4.66,4.66,0,0,0-1.33-.46.963.963,0,0,1,.44-.09,2.12,2.12,0,0,1,1,.33,2,2,0,0,1,.73.79C127.86,195.11,127.87,195.28,127.84,195.29Z" fill="#ff9a6c"/>
      <path id="Path_262" data-name="Path 262" d="M129.7,193.64a2.612,2.612,0,0,0-.07-.52,2.38,2.38,0,0,0-.44-1.11,2.41,2.41,0,0,0-.94-.75c-.29-.13-.49-.17-.48-.21s.22-.06.54,0a2.1,2.1,0,0,1,1.09.76,2.15,2.15,0,0,1,.41,1.26C129.81,193.45,129.73,193.65,129.7,193.64Z" fill="#ff9a6c"/>
      <path id="Path_263" data-name="Path 263" d="M127.12,189.69c0,.09-1.27.11-2.8.34a26.236,26.236,0,0,0-2.73.71,6.31,6.31,0,0,1,2.69-1,12.183,12.183,0,0,1,2-.15A2.41,2.41,0,0,1,127.12,189.69Z" fill="#ff9a6c"/>
      <g id="Group_30" data-name="Group 30" opacity="0.3">
        <path id="Path_264" data-name="Path 264" d="M109.82,223.83a10.78,10.78,0,0,0-1.5-5c-1.78-2.51-5.27-3-8.33-2.89s-6.26.75-9.14-.3l-8.62,25.58A12.79,12.79,0,0,0,90,235.53c.88-1.43,1.52-3.09,2.85-4.11,1.84-1.41,4.38-1.21,6.7-1.23a27,27,0,0,0,7.15-1.05,4.77,4.77,0,0,0,2.63-1.5C110.12,226.58,110,225.14,109.82,223.83Z"/>
      </g>
      <path id="Path_265" data-name="Path 265" d="M87.63,193.89l2.68,28.47a4,4,0,0,0,1.76,3.27l17.27-.36a6.87,6.87,0,0,0,1.32-4.84l-1.92-27.25c-.11-1.64-.72-2.82-1.46-2.84l-18.19-.42C88.16,189.9,87.44,191.86,87.63,193.89Z" fill="#022d2d"/>
      <path id="Path_266" data-name="Path 266" d="M85.12,199.61a2.49,2.49,0,0,1,.06-3.08,3.82,3.82,0,0,1,3-1.32,8.38,8.38,0,0,1,3.24.75A21.14,21.14,0,0,1,95,197.89a3.49,3.49,0,0,1,1.79,2.19c.14,1-.93,2-1.76,1.53a4.09,4.09,0,0,1,2.32,2.9c.15,1.21-.52,1.85-1.7,2.17a1.84,1.84,0,0,1,1,2.37,2.1,2.1,0,0,1-2.65.74,6.09,6.09,0,0,1-2.25-2,6.91,6.91,0,0,1,.31,4.34c-2.58-1-5.12-3.81-4.35-6.53a3.69,3.69,0,0,1-1-4.41,3.61,3.61,0,0,1-2.08-3.07" fill="#ffbf9d"/>
      <path id="Path_267" data-name="Path 267" d="M84.84,197.13l-.21,12.17-3.16,4.75L67,227s2.14,17.59,8.68,15.67,8.11-3.17,12-10.26c2.06-3.81,3.34-10,4.53-13.53.7-2.08.09-8.78.09-8.78Z" fill="#ffbf9d"/>
      <path id="Path_268" data-name="Path 268" d="M95.65,206.7a9.231,9.231,0,0,1-1.11-.89,7.56,7.56,0,0,0-2.92-1.58,4.08,4.08,0,0,0-1.8,0,3.3,3.3,0,0,0-1.33.63,4.34,4.34,0,0,0-.88,1.05.959.959,0,0,1,.11-.37,2.58,2.58,0,0,1,.64-.84,3.37,3.37,0,0,1,1.4-.73,4.16,4.16,0,0,1,1.92,0,7,7,0,0,1,3,1.71A5.579,5.579,0,0,1,95.65,206.7Z" fill="#ff9a6c"/>
      <path id="Path_269" data-name="Path 269" d="M95.47,201.74a6,6,0,0,1-1.35-.6c-.4-.2-.88-.45-1.43-.67a12.468,12.468,0,0,0-1.86-.52,5.6,5.6,0,0,0-1.9-.07,3.51,3.51,0,0,0-1.41.58,3.63,3.63,0,0,0-1,1.07,1,1,0,0,1,.12-.38,2.59,2.59,0,0,1,.7-.85,3.41,3.41,0,0,1,1.5-.67,5.16,5.16,0,0,1,2,0,10.63,10.63,0,0,1,1.9.56,12.732,12.732,0,0,1,1.44.73,11.318,11.318,0,0,1,1.29.82Z" fill="#ff9a6c"/>
      <path id="Path_270" data-name="Path 270" d="M68.56,234a11.63,11.63,0,0,1-.18-4.53,13.72,13.72,0,0,1,1.71-4.61,22.45,22.45,0,0,1,3.82-4.68c1.56-1.51,3.16-2.82,4.59-4a49.292,49.292,0,0,0,3.66-3.45A21.832,21.832,0,0,0,84.27,210a5.57,5.57,0,0,0,.6-1.09,8.62,8.62,0,0,0-.75,1,26.06,26.06,0,0,1-2.21,2.53c-1,1-2.25,2.14-3.7,3.35s-3,2.52-4.63,4a21.809,21.809,0,0,0-3.87,4.81A13.57,13.57,0,0,0,68,229.4a9.47,9.47,0,0,0,.12,3.4,6.42,6.42,0,0,0,.26.89A2.406,2.406,0,0,0,68.56,234Z" fill="#ff9a6c"/>
    </g>
  </g>
</svg>
