<svg xmlns="http://www.w3.org/2000/svg" width="16.258" height="16.258" viewBox="0 0 16.258 16.258">
  <path id="instagram" d="M11.129,3c-2.208,0-2.484.01-3.351.049A5.982,5.982,0,0,0,5.8,3.427,4.154,4.154,0,0,0,3.426,5.8a5.993,5.993,0,0,0-.378,1.973C3.009,8.645,3,8.921,3,11.129s.009,2.484.049,3.351a5.982,5.982,0,0,0,.378,1.973A4.153,4.153,0,0,0,5.8,18.831a5.993,5.993,0,0,0,1.973.378c.867.039,1.144.049,3.351.049s2.484-.01,3.351-.049a5.982,5.982,0,0,0,1.973-.378,4.153,4.153,0,0,0,2.378-2.378,5.993,5.993,0,0,0,.378-1.973c.039-.867.049-1.144.049-3.351s-.01-2.484-.049-3.351A5.982,5.982,0,0,0,18.831,5.8a4.153,4.153,0,0,0-2.378-2.378,5.993,5.993,0,0,0-1.973-.378C13.613,3.01,13.336,3,11.129,3m0,1.465c2.17,0,2.427.008,3.284.047a4.516,4.516,0,0,1,1.51.28,2.691,2.691,0,0,1,1.543,1.543,4.511,4.511,0,0,1,.28,1.509c.039.858.047,1.114.047,3.285s-.008,2.427-.047,3.284a4.545,4.545,0,0,1-.28,1.51,2.691,2.691,0,0,1-1.543,1.543,4.511,4.511,0,0,1-1.509.28c-.857.039-1.114.047-3.285.047s-2.428-.008-3.284-.047a4.545,4.545,0,0,1-1.51-.28,2.691,2.691,0,0,1-1.543-1.543,4.483,4.483,0,0,1-.28-1.509c-.039-.858-.047-1.114-.047-3.285s.008-2.427.047-3.284a4.516,4.516,0,0,1,.28-1.51A2.691,2.691,0,0,1,6.334,4.792a4.483,4.483,0,0,1,1.509-.28c.858-.039,1.114-.047,3.285-.047m0,9.373a2.709,2.709,0,1,1,2.71-2.709,2.709,2.709,0,0,1-2.71,2.709m0-6.883A4.174,4.174,0,1,0,15.3,11.129a4.174,4.174,0,0,0-4.174-4.174m5.315-.165a.975.975,0,1,1-.975-.975.975.975,0,0,1,.975.975" transform="translate(-3 -3)" fill="#fff" fill-rule="evenodd"/>
</svg>
