<svg xmlns="http://www.w3.org/2000/svg" width="62" height="62" viewBox="0 0 62 62">
  <g id="Instant_Settlement" data-name="Instant Settlement" transform="translate(-196 -1449.533)">
    <g id="Group_23559" data-name="Group 23559" transform="translate(1.453 -1.547)">
      <g id="Ellipse_942" data-name="Ellipse 942" transform="translate(194.547 1451.08)" fill="none" stroke="#cc9a00" stroke-width="1">
        <circle cx="31" cy="31" r="31" stroke="none"/>
        <circle cx="31" cy="31" r="30.5" fill="none"/>
      </g>
    </g>
    <g id="Group_23874" data-name="Group 23874" transform="translate(-222.809 1125.348)">
      <path id="Path_18223" data-name="Path 18223" d="M483.291,372.53c-.612,0-1.194-.031-1.806,0-.061,0-.153.122-.153.184a6.323,6.323,0,0,1-.888,1.9,2.334,2.334,0,0,1-.245.337l-6.458-6.458-1.714,1.714-2.571,2.571a1.521,1.521,0,0,1-2.571-.7,1.421,1.421,0,0,1,.367-1.408c1.347-1.377,2.694-2.755,4.1-4.071a5.716,5.716,0,0,1,4.04-1.592h7.927C483.291,367.51,483.291,370.02,483.291,372.53Z" transform="translate(-20.703 -15.405)" fill="#cc9a00"/>
      <path id="Path_18224" data-name="Path 18224" d="M453.284,379.569a1.7,1.7,0,0,1,.153,1.286,1.518,1.518,0,0,1-2.51.612c-.276-.275-.551-.551-.765-.8a3.994,3.994,0,0,1,.092,1.041,1.522,1.522,0,0,1-2.51.888c-.092-.061-.153-.153-.245-.214l-6.856-6.856a6.322,6.322,0,0,1-1.683-2.816c-.031-.153-.122-.184-.245-.184H437V365h7.9a5.942,5.942,0,0,1,3.551,1.163c.092.061.153.122.245.184-.061.061-.122.153-.184.214l-2.969,2.969a2.9,2.9,0,0,0-.8,3.03,2.855,2.855,0,0,0,2.326,2.112,2.9,2.9,0,0,0,2.755-.857c1.01-.979,1.99-1.99,3-3,.061-.061.092-.153.184-.275.214.245.4.429.551.612l5.877,5.877a1.557,1.557,0,0,1,.49,1.622,1.536,1.536,0,0,1-2.54.673c-.275-.245-.52-.52-.826-.765.031.061.031.122.061.153a1.518,1.518,0,0,1-.52,1.836,1.568,1.568,0,0,1-1.928-.122,11.728,11.728,0,0,1-.857-.888Z" transform="translate(0 -15.405)" fill="#cc9a00"/>
      <path id="Path_18225" data-name="Path 18225" d="M477.869,345.8H476.4v-3h1.469Z" transform="translate(-27.34)" fill="#cc9a00"/>
      <path id="Path_18226" data-name="Path 18226" d="M464.363,348.21c-.459.245-.888.459-1.347.7-.429-.826-.857-1.653-1.316-2.51.459-.245.888-.459,1.347-.7C463.506,346.557,463.934,347.383,464.363,348.21Z" transform="translate(-17.14 -2.012)" fill="#cc9a00"/>
      <path id="Path_18227" data-name="Path 18227" d="M488.447,348.914c-.459-.245-.888-.459-1.347-.7.429-.826.857-1.653,1.316-2.51.459.245.888.459,1.347.7C489.3,347.261,488.875,348.057,488.447,348.914Z" transform="translate(-34.765 -2.012)" fill="#cc9a00"/>
    </g>
  </g>
</svg>
