<svg xmlns="http://www.w3.org/2000/svg" width="19.116" height="18.878" viewBox="0 0 19.116 18.878">
  <g id="linkedin" transform="translate(-422.443 -4135.109)">
    <path id="Path_4919" data-name="Path 4919" d="M103.069,103.375h3.878v1.988H107a4.3,4.3,0,0,1,3.83-1.988c4.1,0,4.852,2.549,4.852,5.864v7.01h-4.044v-6.243c0-1.427-.029-3.264-2.1-3.264-2.105,0-2.429,1.553-2.429,3.161v6.346h-4.041Zm-2.292-3.9a2.1,2.1,0,1,1-2.1-2.1A2.1,2.1,0,0,1,100.777,99.473Zm-4.207,3.9h4.207v12.873H96.57Z" transform="translate(325.873 4037.739)" fill="#e8f5d1" fill-rule="evenodd"/>
  </g>
</svg>
