<svg xmlns="http://www.w3.org/2000/svg" width="295.204" height="41.479" viewBox="0 0 295.204 41.479">
  <g id="zerogateway-logo" transform="translate(-6.2 -17)">
    <g id="Group_7" data-name="Group 7" transform="translate(6.2 17)">
      <path id="Path_1" data-name="Path 1" d="M92.1,48.23l9.955-12.38h-8.87V31h15v4.722L98.162,48.1h10.593v4.85H92.1V48.23Z" transform="translate(-37.284 -22.066)" fill="#002323"/>
      <path id="Path_2" data-name="Path 2" d="M131.123,53.32a11.035,11.035,0,0,1-8.1-3.382,11.409,11.409,0,0,1-3.318-8.3,11.41,11.41,0,0,1,3.318-8.3,11.253,11.253,0,0,1,16.209,0,11.41,11.41,0,0,1,3.318,8.3,13.952,13.952,0,0,1-.191,2.3h-17.1a7.64,7.64,0,0,0,1.468,2.616,5.73,5.73,0,0,0,4.467,1.978,6.413,6.413,0,0,0,3.063-.766,5.233,5.233,0,0,0,2.042-2.042h5.552a10.117,10.117,0,0,1-4.02,5.552A11.272,11.272,0,0,1,131.123,53.32Zm5.935-13.592a5.979,5.979,0,0,0-1.6-3,5.889,5.889,0,0,0-8.806,0,8.034,8.034,0,0,0-1.6,3Z" transform="translate(-47.271 -21.668)" fill="#002323"/>
      <path id="Path_3" data-name="Path 3" d="M159.8,30.7h4.85v1.659l.255-.319A5.231,5.231,0,0,1,169.436,30h.319v5.041a6.067,6.067,0,0,0-3.382,1.149,4.744,4.744,0,0,0-1.34,3.765v12.7H159.8Z" transform="translate(-61.782 -21.704)" fill="#002323"/>
      <path id="Path_4" data-name="Path 4" d="M179.082,49.938a11.217,11.217,0,0,1-3.382-8.3,11.467,11.467,0,0,1,3.382-8.3,11.646,11.646,0,0,1,19.91,8.3,11.467,11.467,0,0,1-3.382,8.3,11.217,11.217,0,0,1-8.3,3.382A11.427,11.427,0,0,1,179.082,49.938Zm12.827-3.382a7.449,7.449,0,0,0,0-9.827,6.178,6.178,0,0,0-9.062,0,7.449,7.449,0,0,0,0,9.827,5.861,5.861,0,0,0,4.531,1.978A6.084,6.084,0,0,0,191.909,46.555Z" transform="translate(-67.535 -21.668)" fill="#002323"/>
      <path id="Path_5" data-name="Path 5" d="M225.75,56.7a6.551,6.551,0,0,0,5.041-2.106,7.2,7.2,0,0,0,1.914-4.658,10.368,10.368,0,0,1-7.658,3.382,10.167,10.167,0,0,1-7.658-3.382,11.836,11.836,0,0,1-3.191-8.3,11.836,11.836,0,0,1,3.191-8.3,10.009,10.009,0,0,1,7.658-3.446,9.578,9.578,0,0,1,7.4,3.191V30.666h5.105v17.8a13.392,13.392,0,0,1-3.318,9.508,11.349,11.349,0,0,1-8.742,3.574,11.972,11.972,0,0,1-6.892-1.978,9.359,9.359,0,0,1-3.956-5.3h6.126a4.032,4.032,0,0,0,1.914,1.787A6.75,6.75,0,0,0,225.75,56.7Zm.128-22.016a5.861,5.861,0,0,0-4.531,1.978,7.169,7.169,0,0,0-1.851,4.978,7.01,7.01,0,0,0,1.851,4.914,5.861,5.861,0,0,0,4.531,1.978,6.09,6.09,0,0,0,4.595-1.978,7.122,7.122,0,0,0,1.851-4.914,7.011,7.011,0,0,0-1.851-4.914A5.842,5.842,0,0,0,225.878,34.686Z" transform="translate(-81.467 -21.668)" fill="#002323"/>
      <path id="Path_6" data-name="Path 6" d="M264.112,53.32a10.4,10.4,0,0,1-7.721-3.382,11.836,11.836,0,0,1-3.191-8.3,11.836,11.836,0,0,1,3.191-8.3,10.141,10.141,0,0,1,7.721-3.446,9.742,9.742,0,0,1,7.4,3.127V30.6h4.85V52.554h-4.786V50.129A10.137,10.137,0,0,1,264.112,53.32Zm.893-18.634a5.9,5.9,0,0,0-4.595,1.978,7.169,7.169,0,0,0-1.851,4.978,7.01,7.01,0,0,0,1.851,4.914,6.325,6.325,0,0,0,9.189,0,7.122,7.122,0,0,0,1.851-4.914,7.01,7.01,0,0,0-1.851-4.914A5.842,5.842,0,0,0,265.006,34.686Z" transform="translate(-95.579 -21.668)" fill="#002323"/>
      <path id="Path_7" data-name="Path 7" d="M294.753,48.827V31.533H292.2V26.875h2.553V19.6h5.3v7.339h3.191V31.6h-3.191V48.891h-5.3Z" transform="translate(-109.692 -17.941)" fill="#002323"/>
      <path id="Path_8" data-name="Path 8" d="M321.323,53.32a11.035,11.035,0,0,1-8.1-3.382,11.41,11.41,0,0,1-3.318-8.3,11.41,11.41,0,0,1,3.318-8.3,11.253,11.253,0,0,1,16.209,0,11.41,11.41,0,0,1,3.318,8.3,13.952,13.952,0,0,1-.191,2.3h-17.1a7.64,7.64,0,0,0,1.468,2.616,5.73,5.73,0,0,0,4.467,1.978,6.413,6.413,0,0,0,3.063-.766,5.233,5.233,0,0,0,2.042-2.042h5.552a10.118,10.118,0,0,1-4.02,5.552A11.411,11.411,0,0,1,321.323,53.32Zm5.935-13.592a5.98,5.98,0,0,0-1.6-3,5.889,5.889,0,0,0-8.806,0,8.033,8.033,0,0,0-1.6,3Z" transform="translate(-116.097 -21.668)" fill="#002323"/>
      <path id="Path_9" data-name="Path 9" d="M354.649,52.952,346.8,31h5.488l4.276,13.784h0L360.073,31h4.212l3.51,13.784h0L372.07,31h5.488l-7.849,21.952h-3.382l-4.212-14.231h0L357.9,52.952h-3.255Z" transform="translate(-129.45 -22.066)" fill="#002323"/>
      <path id="Path_10" data-name="Path 10" d="M406.612,53.32a10.4,10.4,0,0,1-7.721-3.382,11.836,11.836,0,0,1-3.191-8.3,11.836,11.836,0,0,1,3.191-8.3,10.141,10.141,0,0,1,7.721-3.446,9.742,9.742,0,0,1,7.4,3.127V30.6h4.85V52.554h-4.85V50.129A10,10,0,0,1,406.612,53.32Zm.83-18.634a5.9,5.9,0,0,0-4.595,1.978A7.169,7.169,0,0,0,401,41.642a7.01,7.01,0,0,0,1.851,4.914,6.325,6.325,0,0,0,9.189,0,7.122,7.122,0,0,0,1.851-4.914,7.01,7.01,0,0,0-1.851-4.914A5.754,5.754,0,0,0,407.442,34.686Z" transform="translate(-147.145 -21.668)" fill="#002323"/>
      <path id="Path_11" data-name="Path 11" d="M443.372,60.354h-5.616l4.084-9.381h0L433.8,31h6l4.977,14.294h0L450.136,31h6Z" transform="translate(-160.931 -22.066)" fill="#002323"/>
      <path id="Path_12" data-name="Path 12" d="M26.552,17H64.776L48.121,43.993H37.528l11.1-17.932H21Z" transform="translate(-11.556 -17)" fill="#dee965" fill-rule="evenodd"/>
      <path id="Path_13" data-name="Path 13" d="M44.425,66.693H6.2L22.855,39.7H33.512l-11.1,17.932H50.04Z" transform="translate(-6.2 -25.214)" fill="#dee965" fill-rule="evenodd"/>
    </g>
  </g>
</svg>
