<svg xmlns="http://www.w3.org/2000/svg" width="208.613" height="29.312" viewBox="0 0 208.613 29.312">
  <g id="zerogateway-logo" transform="translate(-6.2 -17)">
    <g id="Group_7" data-name="Group 7" transform="translate(6.2 17)">
      <path id="Path_1" data-name="Path 1" d="M92.1,43.176l7.035-8.749H92.867V31h10.6v3.337l-7.08,8.749h7.486v3.427H92.1V43.176Z" transform="translate(-53.363 -24.687)" fill="#fff"/>
      <path id="Path_2" data-name="Path 2" d="M127.772,46.45a7.8,7.8,0,0,1-5.727-2.39,8.5,8.5,0,0,1,0-11.725,7.952,7.952,0,0,1,11.454,0,8.063,8.063,0,0,1,2.345,5.862,9.859,9.859,0,0,1-.135,1.623H123.623a5.4,5.4,0,0,0,1.037,1.849,4.05,4.05,0,0,0,3.157,1.4,4.532,4.532,0,0,0,2.165-.541,3.7,3.7,0,0,0,1.443-1.443h3.923a7.15,7.15,0,0,1-2.841,3.923A7.965,7.965,0,0,1,127.772,46.45Zm4.194-9.605a4.225,4.225,0,0,0-1.127-2.12,4.162,4.162,0,0,0-6.223,0,5.677,5.677,0,0,0-1.127,2.12Z" transform="translate(-68.516 -24.083)" fill="#fff"/>
      <path id="Path_3" data-name="Path 3" d="M159.8,30.5h3.427v1.172l.18-.225a3.7,3.7,0,0,1,3.2-1.443h.225v3.563a4.287,4.287,0,0,0-2.39.812,3.352,3.352,0,0,0-.947,2.661v8.974h-3.7Z" transform="translate(-90.533 -24.138)" fill="#fff"/>
      <path id="Path_4" data-name="Path 4" d="M178.09,44.06A7.926,7.926,0,0,1,175.7,38.2a8.1,8.1,0,0,1,2.39-5.862A8.23,8.23,0,0,1,192.16,38.2a8.1,8.1,0,0,1-2.39,5.862,7.927,7.927,0,0,1-5.862,2.39A8.075,8.075,0,0,1,178.09,44.06Zm9.064-2.39a5.264,5.264,0,0,0,0-6.945,4.366,4.366,0,0,0-6.4,0,5.264,5.264,0,0,0,0,6.945,4.142,4.142,0,0,0,3.2,1.4A4.3,4.3,0,0,0,187.154,41.67Z" transform="translate(-99.263 -24.083)" fill="#fff"/>
      <path id="Path_5" data-name="Path 5" d="M222.362,48.84a4.629,4.629,0,0,0,3.563-1.488,5.087,5.087,0,0,0,1.353-3.292,7.327,7.327,0,0,1-5.411,2.39,7.185,7.185,0,0,1-5.412-2.39,8.749,8.749,0,0,1,0-11.725,7.073,7.073,0,0,1,5.412-2.435,6.769,6.769,0,0,1,5.231,2.255V30.441h3.608V43.023a9.464,9.464,0,0,1-2.345,6.719,8.02,8.02,0,0,1-6.178,2.525,8.46,8.46,0,0,1-4.87-1.4,6.614,6.614,0,0,1-2.8-3.743h4.329a2.849,2.849,0,0,0,1.353,1.263A4.77,4.77,0,0,0,222.362,48.84Zm.09-15.558a4.142,4.142,0,0,0-3.2,1.4,5.066,5.066,0,0,0-1.308,3.517,4.954,4.954,0,0,0,1.308,3.472,4.142,4.142,0,0,0,3.2,1.4,4.3,4.3,0,0,0,3.247-1.4,5.033,5.033,0,0,0,1.308-3.472,4.954,4.954,0,0,0-1.308-3.472A4.128,4.128,0,0,0,222.453,33.282Z" transform="translate(-120.401 -24.083)" fill="#fff"/>
      <path id="Path_6" data-name="Path 6" d="M260.911,46.45a7.351,7.351,0,0,1-5.457-2.39,8.749,8.749,0,0,1,0-11.725,7.166,7.166,0,0,1,5.457-2.435,6.884,6.884,0,0,1,5.231,2.21V30.4h3.427V45.909h-3.382V44.2A7.163,7.163,0,0,1,260.911,46.45Zm.631-13.168a4.171,4.171,0,0,0-3.247,1.4,5.066,5.066,0,0,0-1.308,3.517A4.954,4.954,0,0,0,258.3,41.67a4.47,4.47,0,0,0,6.494,0A5.033,5.033,0,0,0,266.1,38.2a4.954,4.954,0,0,0-1.308-3.472A4.128,4.128,0,0,0,261.543,33.282Z" transform="translate(-141.813 -24.083)" fill="#fff"/>
      <path id="Path_7" data-name="Path 7" d="M294,40.254V28.033h-1.8V24.741H294V19.6h3.743v5.186H300v3.292h-2.255V40.3H294Z" transform="translate(-163.226 -18.428)" fill="#fff"/>
      <path id="Path_8" data-name="Path 8" d="M317.972,46.45a7.8,7.8,0,0,1-5.727-2.39,8.5,8.5,0,0,1,0-11.725,7.952,7.952,0,0,1,11.454,0,8.063,8.063,0,0,1,2.345,5.862,9.861,9.861,0,0,1-.135,1.623H313.823a5.4,5.4,0,0,0,1.037,1.849,4.05,4.05,0,0,0,3.157,1.4,4.532,4.532,0,0,0,2.165-.541,3.7,3.7,0,0,0,1.443-1.443h3.923a7.15,7.15,0,0,1-2.841,3.923A8.064,8.064,0,0,1,317.972,46.45Zm4.194-9.605a4.226,4.226,0,0,0-1.127-2.12,4.162,4.162,0,0,0-6.223,0,5.677,5.677,0,0,0-1.127,2.12Z" transform="translate(-172.944 -24.083)" fill="#fff"/>
      <path id="Path_9" data-name="Path 9" d="M352.347,46.513,346.8,31h3.878l3.021,9.741h0L356.18,31h2.976l2.48,9.741h0L364.658,31h3.878l-5.547,15.513H360.6l-2.976-10.056h0l-2.976,10.056h-2.3Z" transform="translate(-193.204 -24.687)" fill="#fff"/>
      <path id="Path_10" data-name="Path 10" d="M403.411,46.45a7.351,7.351,0,0,1-5.457-2.39,8.749,8.749,0,0,1,0-11.725,7.166,7.166,0,0,1,5.457-2.435,6.884,6.884,0,0,1,5.231,2.21V30.4h3.427V45.909h-3.427V44.2A7.065,7.065,0,0,1,403.411,46.45ZM404,33.282a4.17,4.17,0,0,0-3.247,1.4,5.066,5.066,0,0,0-1.308,3.517,4.954,4.954,0,0,0,1.308,3.472,4.47,4.47,0,0,0,6.494,0,5.033,5.033,0,0,0,1.308-3.472,4.954,4.954,0,0,0-1.308-3.472A4.066,4.066,0,0,0,404,33.282Z" transform="translate(-220.052 -24.083)" fill="#fff"/>
      <path id="Path_11" data-name="Path 11" d="M440.564,51.744H436.6l2.886-6.629h0L433.8,31h4.239l3.517,10.1h0L445.344,31h4.239Z" transform="translate(-240.97 -24.687)" fill="#fff"/>
      <path id="Path_12" data-name="Path 12" d="M24.923,17H51.936L40.166,36.076H32.68L40.526,23.4H21Z" transform="translate(-14.326 -17)" fill="#dee965" fill-rule="evenodd"/>
      <path id="Path_13" data-name="Path 13" d="M33.212,58.776H6.2L17.97,39.7H25.5L17.654,52.372H37.181Z" transform="translate(-6.2 -29.463)" fill="#dee965" fill-rule="evenodd"/>
    </g>
  </g>
</svg>
