<svg xmlns="http://www.w3.org/2000/svg" width="34.765" height="43.486" viewBox="0 0 34.765 43.486">
  <g id="logo_6" transform="translate(-48.133 -2)">
    <path id="Path_18242" data-name="Path 18242" d="M66.142,2h.985a6.887,6.887,0,0,1,3.866,1.837A11.277,11.277,0,0,1,74,10.391c.014.166.022.333.038.5-1.383-.018-2.768.021-4.151-.02l-.084-.007A9.2,9.2,0,0,0,68.357,7.54a5.778,5.778,0,0,0-4.506-2.285,5.32,5.32,0,0,0-3.374,1.259,16.748,16.748,0,0,0-3.029,3.339,19.07,19.07,0,0,1,3.3-4.943A8.788,8.788,0,0,1,66.142,2Z" fill="#e8f5d1"/>
    <path id="Path_18243" data-name="Path 18243" d="M60.529,15.677c1.521,0,3.043-.011,4.564,0a5.552,5.552,0,0,1,2.2,1.644,2.86,2.86,0,0,1,.377,2.736,2.42,2.42,0,0,1-1.039,1.013,12.888,12.888,0,0,1-2.493.981c-.021.169-.04.337-.061.507,1.388,1.4,2.842,2.739,4.235,4.138a3.682,3.682,0,0,1-.733.028c-2.351,0-4.7,0-7.052,0Q60.508,21.2,60.529,15.677Z" fill="#e8f5d1"/>
    <path id="Path_18244" data-name="Path 18244" d="M67.195,15.693c1.475-.046,2.95-.005,4.426-.02.026,3.683.006,7.368.009,11.052-.558-.011-1.12.031-1.677-.019-1.359-1.347-2.685-2.731-4.038-4.084a5.06,5.06,0,0,0,2.458-1.36,3.567,3.567,0,0,0-.211-4.795A7.111,7.111,0,0,0,67.195,15.693Z" fill="#e8f5d1"/>
    <path id="Path_18245" data-name="Path 18245" d="M53.021,19.128l.028-.023c.7,1.272,1.413,2.535,2.087,3.821l-.027.007a.825.825,0,0,0-.423.291,9.1,9.1,0,0,0-1.893,2.7,5.613,5.613,0,0,0-.229,3.577,4.957,4.957,0,0,0,2.181,3.1A14.024,14.024,0,0,0,60.1,34.211a17.293,17.293,0,0,1-7.535-1.1A7.226,7.226,0,0,1,48.627,29.4a6.59,6.59,0,0,1-.075-4.821A12.292,12.292,0,0,1,53.021,19.128Z" fill="#e8f5d1"/>
    <path id="Path_18246" data-name="Path 18246" d="M79.705,19.442a16.42,16.42,0,0,1,3.192,7.7v1.4a6.338,6.338,0,0,1-1.59,3.815A7.086,7.086,0,0,1,77.2,34.482a13.1,13.1,0,0,1-6.4-.951l.076-.167c.606-1.207,1.279-2.38,1.92-3.567l.048-.023a8.891,8.891,0,0,0,3.851.278A5.816,5.816,0,0,0,80.5,27.4a4.938,4.938,0,0,0,.706-2.88A15.467,15.467,0,0,0,79.705,19.442Z" fill="#e8f5d1"/>
    <path id="Path_18247" data-name="Path 18247" d="M55.39,38.387c1.147.022,2.3,0,3.443.014a2.652,2.652,0,0,1,1.438.388,1.943,1.943,0,0,1,.34,2.629,2.328,2.328,0,0,1-1.55.788A3.864,3.864,0,0,1,60.3,43.447c.407.648.834,1.284,1.231,1.938a2.719,2.719,0,0,1-1.106,0c-.109-.059-.157-.184-.228-.277-.429-.674-.841-1.36-1.31-2.005a1.693,1.693,0,0,0-1.077-.792c-.5-.033-1-.013-1.5-.014,0,1.033.008,2.066,0,3.1a2.133,2.133,0,0,1-.924-.022C55.4,43.043,55.382,40.716,55.39,38.387Zm.92.788c0,.765.012,1.53-.007,2.295.718.04,1.438.011,2.157.017a1.571,1.571,0,0,0,1.375-.551,1.1,1.1,0,0,0-.06-1.322,1.363,1.363,0,0,0-1.1-.434C57.888,39.169,57.1,39.173,56.31,39.174Z" fill="#e8f5d1"/>
    <path id="Path_18248" data-name="Path 18248" d="M62.888,39.448a3.337,3.337,0,0,1,3.345-1.087A2.57,2.57,0,0,1,68.2,40.329c-.244.052-.487.118-.734.158-.176.08-.2-.152-.265-.254a1.742,1.742,0,0,0-1.248-1.114,2.371,2.371,0,0,0-2.058.5,3.089,3.089,0,0,0-.791,2.125,3.4,3.4,0,0,0,.74,2.4,2.223,2.223,0,0,0,2.788.188,2.425,2.425,0,0,0,.8-1.392c.3.088.611.17.918.253a3.9,3.9,0,0,1-.632,1.306,2.677,2.677,0,0,1-1.826.99h-.88a2.743,2.743,0,0,1-1.785-.73A3.8,3.8,0,0,1,62.2,42.481,4.127,4.127,0,0,1,62.888,39.448Z" fill="#e8f5d1"/>
    <path id="Path_18249" data-name="Path 18249" d="M76.571,38.833a3.535,3.535,0,0,1,2.987-.387,2.627,2.627,0,0,1,1.681,1.883c-.3.066-.6.133-.9.171a2.241,2.241,0,0,0-.7-1.085,2.153,2.153,0,0,0-1.594-.315,2.037,2.037,0,0,0-1.652,1.325,4.408,4.408,0,0,0-.117,2.569,2.292,2.292,0,0,0,.668,1.2,2.229,2.229,0,0,0,2.73.128,2.687,2.687,0,0,0,.812-1.387,7.536,7.536,0,0,0,.865.223,2.767,2.767,0,0,1-2.408,2.324h-.984a2.709,2.709,0,0,1-2.194-1.361,4.8,4.8,0,0,1-.5-3.109A3.21,3.21,0,0,1,76.571,38.833Z" fill="#e8f5d1"/>
    <path id="Path_18250" data-name="Path 18250" d="M52.8,45.36c.037-2.324-.021-4.651.03-6.973.3.011.6.01.9.005.005,2.336.009,4.671,0,7.006A1.719,1.719,0,0,1,52.8,45.36Z" fill="#e8f5d1"/>
    <path id="Path_18251" data-name="Path 18251" d="M68.955,39.219c0-.278,0-.556.019-.833,1.84.025,3.68-.005,5.521.015-.005.274-.005.548-.008.822-.766-.007-1.534-.005-2.3,0,0,2.049-.008,4.1.006,6.147a2.4,2.4,0,0,1-.927.025c-.021-2.061.022-4.123-.022-6.183C70.481,39.229,69.718,39.213,68.955,39.219Z" fill="#e8f5d1"/>
    <path id="Path_18252" data-name="Path 18252" d="M74,10.391c.034.147.073.293.111.439,1.094.081,2.19-.046,3.285-.01a41.716,41.716,0,0,1-.749,8.606,34.337,34.337,0,0,1-3.8,10.3c.3-1.106.709-2.182.981-3.3A31.931,31.931,0,0,0,74.793,15.8a32.78,32.78,0,0,0-.755-4.91C74.021,10.724,74.013,10.557,74,10.391Z" fill="#e8f5d1"/>
    <path id="Path_18253" data-name="Path 18253" d="M62.783,11.619a31.291,31.291,0,0,1,7.021-.756l.084.007a41.739,41.739,0,0,0-5.017,1.285,31.062,31.062,0,0,0-6.348,2.882,34.622,34.622,0,0,0-5.476,4.067l-.028.023c-.532-.985-1.18-1.905-1.671-2.91A39.81,39.81,0,0,1,62.783,11.619Z" fill="#e8f5d1"/>
    <path id="Path_18254" data-name="Path 18254" d="M55.105,22.934l.027-.007.019.034Z" fill="#e8f5d1"/>
    <path id="Path_18255" data-name="Path 18255" d="M55.152,22.961l.059.066Z" fill="#e8f5d1"/>
    <path id="Path_18256" data-name="Path 18256" d="M55.211,23.027c1.09,1.108,2.08,2.323,3.263,3.341a32.809,32.809,0,0,0,11.9,6.968.732.732,0,0,0,.507.029l-.076.167c-.5.921-1.038,1.828-1.555,2.741-.069.173-.247.043-.353-.009a38.122,38.122,0,0,1-12.59-11.446A17.127,17.127,0,0,1,55.211,23.027Z" fill="#e8f5d1"/>
    <path id="Path_18257" data-name="Path 18257" d="M72.8,29.8l.046-.075,0,.052Z" fill="#e8f5d1"/>
    <path id="Path_18258" data-name="Path 18258" d="M69.67,10.259c-.83-2.992-2.785-4.771-5.515-5.018-1.756-.159-3.492.768-5.344,2.851a4.513,4.513,0,0,1-.731.733,3,3,0,0,1,.361-.728,13.469,13.469,0,0,1,5.377-5.39,5.706,5.706,0,0,1,5.374,0c2.359,1.138,3.862,3.364,4.552,6.74.11.539.22,1.075.244,1.191l.044.212h-4.2Z" fill="#e8f5d1"/>
    <path id="Path_18259" data-name="Path 18259" d="M56.7,34.087c-.413-.043-1.169-.168-1.679-.277-3.516-.752-5.7-2.43-6.6-5.079A5.325,5.325,0,0,1,48.25,26.9a4.676,4.676,0,0,1,.289-2.127,9.607,9.607,0,0,1,2.409-3.745,9.749,9.749,0,0,1,2.112-1.761c.033.033.489.848,1.014,1.811l.955,1.751-.463.482c-1.847,1.924-2.516,3.808-2.1,5.894a4.954,4.954,0,0,0,1.33,2.635c.974,1.034,2.267,1.623,4.66,2.121l1.056.22-1.033-.006c-.568,0-1.371-.042-1.784-.085Z" fill="#e8f5d1"/>
    <path id="Path_18260" data-name="Path 18260" d="M74.688,34.468a15.412,15.412,0,0,1-2.928-.682l-.908-.291.382-.712a15.8,15.8,0,0,1,1.7-2.924c.061,0,.418.064.794.143a9.892,9.892,0,0,0,3.346,0A5.9,5.9,0,0,0,81,26.4a4.216,4.216,0,0,0,.212-1.665,9.035,9.035,0,0,0-.759-3.51,5.037,5.037,0,0,1-.292-.922,6.1,6.1,0,0,1,.623.947,16.68,16.68,0,0,1,1.9,4.662,12.408,12.408,0,0,1-.048,3.906A6.628,6.628,0,0,1,81,32.566a4.907,4.907,0,0,1-1.646,1.143,10.173,10.173,0,0,1-1.577.609,10.556,10.556,0,0,1-3.092.15Z" fill="#e8f5d1"/>
    <path id="Path_18261" data-name="Path 18261" d="M60.6,21.2V15.742h2.258c2.538,0,2.525,0,3.548.78,1.43,1.094,1.839,2.881.9,3.924a6.514,6.514,0,0,1-2.416,1.313c-.719.242-.77.276-.8.544s.155.468,2.019,2.319l2.048,2.034-3.78,0-3.78,0Z" fill="#e8f5d1"/>
    <path id="Path_18262" data-name="Path 18262" d="M68.576,25.272c-.749-.764-1.626-1.666-1.949-2l-.588-.616.776-.317a3.41,3.41,0,0,0,1.393-.937,2.535,2.535,0,0,0,.835-1.306,2.744,2.744,0,0,0,.156-1.362,3.748,3.748,0,0,0-1.452-2.668l-.417-.319h4.253V26.66H69.938Z" fill="#e8f5d1"/>
    <path id="Path_18263" data-name="Path 18263" d="M55.43,41.9V38.407l2.043.033c1.917.031,2.07.046,2.49.253a1.64,1.64,0,0,1,.927,1.547,1.791,1.791,0,0,1-1.479,1.848l-.437.11.317.231a5.316,5.316,0,0,1,1.347,1.649c.92,1.406.9,1.311.305,1.311h-.5l-.885-1.34c-1.114-1.687-1.222-1.766-2.4-1.766h-.878v3.106H55.43Zm4.013-.582a1.162,1.162,0,0,0,.028-2,4.724,4.724,0,0,0-1.736-.143h-1.46v2.37l1.432-.033a4.274,4.274,0,0,0,1.736-.2Z" fill="#e8f5d1"/>
    <path id="Path_18264" data-name="Path 18264" d="M52.844,45.29c-.034-.056-.031-1.623.007-3.483l.069-3.382h.726v6.965h-.37a.683.683,0,0,1-.432-.1Z" fill="#e8f5d1"/>
    <path id="Path_18265" data-name="Path 18265" d="M64.611,45.393c-1.853-.336-2.856-2.6-2.181-4.93a2.817,2.817,0,0,1,1.52-1.771,3.383,3.383,0,0,1,3.486.388,2.89,2.89,0,0,1,.676,1.119c0,.048-.169.129-.375.182l-.375.1-.244-.449a1.6,1.6,0,0,0-1.27-.936,2.235,2.235,0,0,0-2.46,1.174,4.529,4.529,0,0,0-.3,2.06c.182,1.589.957,2.41,2.271,2.4a1.885,1.885,0,0,0,1.9-1.246c.209-.474.324-.522.774-.324l.257.113-.24.518a2.937,2.937,0,0,1-3.447,1.6Z" fill="#e8f5d1"/>
    <path id="Path_18266" data-name="Path 18266" d="M71.3,42.29V39.179H70.119c-1.183,0-1.185,0-1.128-.212a1.85,1.85,0,0,0,.058-.376c0-.153.195-.165,2.735-.165,2.454,0,2.728.015,2.677.149a1.287,1.287,0,0,0-.057.376v.228H72.152l-.025,3.083L72.1,45.344l-.4.029-.4.029Z" fill="#e8f5d1"/>
    <path id="Path_18267" data-name="Path 18267" d="M77.573,45.382a2.725,2.725,0,0,1-1.412-.83,4.433,4.433,0,0,1-.411-4.74,2.669,2.669,0,0,1,1.331-1.17,2.526,2.526,0,0,1,1.409-.26,2.276,2.276,0,0,1,1.323.253,3.223,3.223,0,0,1,.787.6c.308.351.618.958.533,1.043a1.52,1.52,0,0,1-.422.1c-.358.048-.384.035-.51-.268a2.483,2.483,0,0,0-.892-.932c-.037,0-.247-.039-.468-.082a2.151,2.151,0,0,0-2.568,1.545,5.248,5.248,0,0,0-.125,1.318,2.937,2.937,0,0,0,.215,1.412A2.052,2.052,0,0,0,78.4,44.727a1.925,1.925,0,0,0,1.963-1.348c.145-.353.16-.361.5-.3a1.866,1.866,0,0,1,.385.1c.081.079-.114.628-.362,1.02a3.048,3.048,0,0,1-3.311,1.182Z" fill="#e8f5d1"/>
    <path id="Path_18268" data-name="Path 18268" d="M69.616,10.071c-.91-2.763-2.463-4.277-4.866-4.743a3.7,3.7,0,0,0-1.5-.065c-1.42.206-2.441.809-3.979,2.351a9.784,9.784,0,0,1-1.057.987,5.316,5.316,0,0,1,.391-.724c1.73-2.887,4.265-5.061,6.564-5.63a6.368,6.368,0,0,1,2.674-.009,8.117,8.117,0,0,1,3.57,2.146A10.248,10.248,0,0,1,73.27,7.789a28.3,28.3,0,0,1,.719,2.979,13.4,13.4,0,0,1-2.058.08H69.872Z" fill="#e8f5d1"/>
    <path id="Path_18269" data-name="Path 18269" d="M73.756,34.283a26.6,26.6,0,0,1-2.845-.8c-.032-.032,1.375-2.625,1.749-3.223.187-.3.294-.386.437-.354a10.939,10.939,0,0,0,3.95.09,5.14,5.14,0,0,0,2.582-1.548,4.6,4.6,0,0,0,1.592-3.627,8.359,8.359,0,0,0-.565-3.046c-.2-.6-.372-1.137-.372-1.189s.17.181.377.517a16.035,16.035,0,0,1,2.086,5.466,9.6,9.6,0,0,1-.333,3.754,6.5,6.5,0,0,1-4.933,4.01,11.7,11.7,0,0,1-3.723-.053Z" fill="#e8f5d1"/>
    <path id="Path_18270" data-name="Path 18270" d="M68.019,24.671l-1.964-1.989.8-.368A4.373,4.373,0,0,0,68.9,20.5a2.4,2.4,0,0,0,.25-1.459,2.639,2.639,0,0,0-.3-1.613,3.822,3.822,0,0,0-.873-1.153l-.569-.528h4.143V26.66H69.983Z" fill="#e8f5d1"/>
    <path id="Path_18271" data-name="Path 18271" d="M60.656,21.191v-5.47l2.23.041c2.495.046,2.589.066,3.436.741a3.4,3.4,0,0,1,1.44,2.333c.146,1.234-.6,2.035-2.6,2.794-1.013.384-1.207.557-1.026.913.059.117.979,1.091,2.045,2.165l1.938,1.953H60.656Z" fill="#e8f5d1"/>
    <path id="Path_18272" data-name="Path 18272" d="M57.32,34.093c-4.525-.323-7.5-2.038-8.743-5.033A4.1,4.1,0,0,1,48.31,26.9a4.551,4.551,0,0,1,.263-2.165,11.581,11.581,0,0,1,1.416-2.581c.751-.978,2.954-2.991,3.09-2.824.047.057,1.61,2.9,1.784,3.25.145.286.142.3-.142.565a10.875,10.875,0,0,0-1.727,2.309,5.119,5.119,0,0,0-.609,2.623A5.339,5.339,0,0,0,56.2,33.354c.3.11,1.1.338,1.775.507C59.321,34.2,59.237,34.23,57.32,34.093Z" fill="#e8f5d1"/>
    <path id="Path_18273" data-name="Path 18273" d="M73.943,34.332a22.834,22.834,0,0,1-3.036-.852,36.059,36.059,0,0,1,1.935-3.455c.142-.125.255-.127.913-.017a11.328,11.328,0,0,0,3.063.042,5.981,5.981,0,0,0,4.259-4,7.72,7.72,0,0,0-.466-4.371,5.633,5.633,0,0,1-.287-1.018c.159-.16,1.434,2.424,1.929,3.91a8.366,8.366,0,0,1,.531,3.6,6.043,6.043,0,0,1-.674,2.817,6.444,6.444,0,0,1-3.988,3.209,12.1,12.1,0,0,1-4.179.14Z" fill="#e8f5d1"/>
    <path id="Path_18274" data-name="Path 18274" d="M53.652,41.909c0-1.941.012-2.736.028-1.765s.015,2.559,0,3.53S53.652,43.85,53.652,41.909Z" fill="#e8f5d1"/>
    <path id="Path_18275" data-name="Path 18275" d="M55.488,41.894V38.4l1.985.066c2.085.069,2.43.135,2.886.556a1.9,1.9,0,0,1-.152,2.685,3.467,3.467,0,0,1-.753.348l-.491.161.4.31a12.457,12.457,0,0,1,1.942,2.739c0,.091-.126.13-.421.13H60.47L59.8,44.379c-1.337-2.011-1.445-2.094-2.708-2.094h-.85v3.106h-.751Zm3.971-.575a1.168,1.168,0,0,0-.035-2.021,6.33,6.33,0,0,0-1.7-.118H56.24v2.373l1.483-.033c1.221-.027,1.528-.063,1.736-.2Z" fill="#e8f5d1"/>
    <path id="Path_18276" data-name="Path 18276" d="M64.7,45.372a2.83,2.83,0,0,1-2.177-1.93,3.622,3.622,0,0,1-.219-1.486c-.012-1.61.414-2.506,1.5-3.15a2.169,2.169,0,0,1,1.412-.365,5.612,5.612,0,0,1,1.252.076,2.705,2.705,0,0,1,1.4,1.208c.237.406.24.425.071.549-.33.242-.574.157-.835-.289a1.892,1.892,0,0,0-2.138-.889,2.04,2.04,0,0,0-1.523,1.113,2.619,2.619,0,0,0-.317,1.373c-.08,1.538.323,2.5,1.224,2.919a2.147,2.147,0,0,0,2.97-1.061.722.722,0,0,1,.251-.344c.126-.049.7.107.7.19a5.7,5.7,0,0,1-.629,1.144,3.05,3.05,0,0,1-2.932.942Z" fill="#e8f5d1"/>
    <path id="Path_18277" data-name="Path 18277" d="M71.36,42.288v-3.1l-1.15-.026-1.15-.026-.03-.259c-.024-.21.02-.278.232-.359a41.978,41.978,0,0,1,5.144.014.635.635,0,0,1,0,.353l-.059.3h-2.23v6.1l-.211.057c-.577.155-.54.361-.54-3.044Z" fill="#e8f5d1"/>
    <path id="Path_18278" data-name="Path 18278" d="M77.668,45.389a3.04,3.04,0,0,1-2.1-1.873,3.779,3.779,0,0,1-.212-1.655,2.978,2.978,0,0,1,.261-1.694,2.732,2.732,0,0,1,1.427-1.47,2.5,2.5,0,0,1,1.414-.271,2.367,2.367,0,0,1,1.338.244,2.77,2.77,0,0,1,.76.575c.314.382.631.943.569,1a1.408,1.408,0,0,1-.372.1c-.315.059-.342.041-.658-.43a1.667,1.667,0,0,0-1.62-.85,2.066,2.066,0,0,0-1.719.7,3.091,3.091,0,0,0-.589,2.357,2.578,2.578,0,0,0,.315,1.467,2.135,2.135,0,0,0,3.756,0,2.4,2.4,0,0,1,.3-.5.7.7,0,0,1,.659.2,2.588,2.588,0,0,1-.764,1.4,3.525,3.525,0,0,1-2.767.686Z" fill="#e8f5d1"/>
    <path id="Path_18279" data-name="Path 18279" d="M74.818,34.434a13.874,13.874,0,0,1-3.9-.989c0-.084.716-1.423,1.393-2.606l.53-.925.424.052a18.165,18.165,0,0,0,3.6.062,5.768,5.768,0,0,0,2.676-1.5c1.764-1.751,2.086-3.52,1.179-6.483-.467-1.525-.467-1.529-.229-1.242a20.678,20.678,0,0,1,1.788,3.812,8.919,8.919,0,0,1,.482,4.062A6.085,6.085,0,0,1,78.388,34.1a9.473,9.473,0,0,1-3.57.335Z" fill="#e8f5d1"/>
    <path id="Path_18280" data-name="Path 18280" d="M52.951,45.3c-.078-.078-.081-6.4,0-6.691.045-.167.124-.212.374-.212h.318v6.965h-.313a.809.809,0,0,1-.376-.063Z" fill="#e8f5d1"/>
    <path id="Path_18281" data-name="Path 18281" d="M64.552,45.365a2.993,2.993,0,0,1-1.961-1.741,3.077,3.077,0,0,1-.263-1.741,3.093,3.093,0,0,1,.244-1.7,2.8,2.8,0,0,1,1.369-1.459,2.5,2.5,0,0,1,1.533-.278c.9,0,1.023.022,1.418.254a2.759,2.759,0,0,1,1.057,1.176c.167.325.135.377-.3.493-.224.06-.285.017-.58-.41a1.8,1.8,0,0,0-1.81-.873,2,2,0,0,0-1.795,1.1,2.445,2.445,0,0,0-.325,1.47c-.074,2,.677,3.044,2.192,3.044a2.006,2.006,0,0,0,1.97-1.247.516.516,0,0,1,.807-.251c.177.095.175.11-.053.561a2.737,2.737,0,0,1-2.452,1.647,4.96,4.96,0,0,1-1.053-.048Z" fill="#e8f5d1"/>
    <path id="Path_18282" data-name="Path 18282" d="M71.3,42.265V39.154H69.031l.03-.306c.029-.3.04-.307.593-.366a30.823,30.823,0,0,1,3.827-.019l.916.061v.631H72.145l-.025,3.083L72.1,45.319l-.4.029-.4.029Z" fill="#e8f5d1"/>
    <path id="Path_18283" data-name="Path 18283" d="M69.7,10.375a9.457,9.457,0,0,0-1.125-2.5A5.638,5.638,0,0,0,63.834,5.27a4.493,4.493,0,0,0-2.369.6,13.012,13.012,0,0,0-2.779,2.322c-.244.279-.443.472-.443.428a9.257,9.257,0,0,1,1.309-2.138,12.1,12.1,0,0,1,4.733-3.944,5.625,5.625,0,0,1,2.309-.471,5.739,5.739,0,0,1,2.729.768A5.164,5.164,0,0,1,71.11,4.13c1.491,1.5,2.082,2.84,2.868,6.48l.046.212H69.816Z" fill="#e8f5d1"/>
  </g>
</svg>
