<svg xmlns="http://www.w3.org/2000/svg" width="60.329" height="19.672" viewBox="0 0 60.329 19.672">
  <g id="logo_4" transform="translate(-359.133 -14.937)">
    <path id="Path_18289" data-name="Path 18289" d="M376.383,14.986c.651-1.248-1.459-.9-1.459-.9-.756,0-1.1.91-1.251,1.17l-2.28,4.486c-.43.741-1.85,3.914-2.319,4.616-.039-.715.013-2.145.026-2.483.092-1.352.183-2.379.326-3.615a10.1,10.1,0,0,0,.117-3c-.13-.6-.325-.637-1.185-.728-.9-.091-1.511,1.209-1.811,1.82-1.094,2.262-2.319,4.473-3.3,6.787-.287.676-.638,1.352-.938,2.015-.352.806-.677,1.6-1.055,2.392-.4.832-1.668,3.563-2.019,4.421-.391.936-.469,1.69,1.094,1.651a1.736,1.736,0,0,0,1.472-.676,5.116,5.116,0,0,0,.951-1.9c1.12-2.809,1.915-4.668,3.14-7.451.117-.273.39-1.066.664-1.677-.013.871-.156,1.911-.221,2.6-.209,2.522-.352,4.954-.574,7.45a2.059,2.059,0,0,0,.039,1.053,1.041,1.041,0,0,0,.86.429c1.251.156,1.381-.468,1.772-1.326.352-.767.56-1.391.873-2.171.964-2.405,1.98-4.785,3.1-7.125.287-.6.574-1.183.886-1.768.574-1.079,1.043-2.094,1.668-3.29.469-.858.925-1.833,1.42-2.783Zm42.926,6.773c-.143-1.443-2.123-.715-3.309-.494-.443.078-1.811.338-3.387.637-.065-1.625-.039-1.3-.052-2.288-.039-1.43-.117-2.549-.2-3.81-.052-.793-.169-1.9-1.6-1.69-1.668.234-1.941,1.066-2.384,2.067-1.16,2.613-1.12,2.626-2.436,5.539-.1.221-.586,1.391-.665,1.625-.052.013-.156.039-.286.078l-1.9.416.013-.065c.169-1.326.378-2.653.56-3.979.169-1.209.352-3.186.495-4.395.156-1.3-1.355-1.274-1.355-1.274a1.854,1.854,0,0,0-1.863.975c-1,1.3-2.215,2.7-3.283,4.135-1.941,2.587-3.361,4.538-5.12,7.138-.508.754-1.289,1.9-1.967,2.8-.456-.9-.847-1.885-1.224-2.8-.548-1.3-.951-2.106-1.212-2.965-.234-.754.052-.858.612-1.287,1.616-1.222,3.44-2.067,5.094-3.238,1.173-.832,2.58-1.755,3.726-2.614a4.023,4.023,0,0,0,1.029-.884c.456-.624-.834-1.274-.834-1.274a2.471,2.471,0,0,0-1.641.286,9.383,9.383,0,0,0-1.642,1.118c-.977.754-2.214,1.651-3.178,2.405a27.378,27.378,0,0,1-3.3,2.262l3.309-4.941c1.081-1.391-1.785-1.781-2.879-.312-1.016,1.313-1.707,2.47-2.5,3.667a81.271,81.271,0,0,0-5.067,8.972c-.6,1.2-1.186,2.444-1.733,3.68-.261.6-1.029,1.976.026,2.119,2.254.286,2.619-.78,3.127-2.067.833-2.119,1.107-2.509,1.641-3.823a28.586,28.586,0,0,1,1.485-3.095c.013-.013.183-.286.183-.286.1.221.794,2.51.886,2.77.469,1.235,1.289,4.122,1.758,5.435.339,1.092.43,1.4,1.9,1.365.73-.013,1.043-.3,1.525-1.209s2.566-4.785,2.566-4.785c.625-.1,1.524-.26,2.11-.364.105-.013.339-.065.665-.13a3.748,3.748,0,0,0,.547-.1c.013,0,.013,0,.026-.013.573-.117,1.3-.26,2.1-.416-.143.715-.586,2.288-.677,2.691,0,0-.964,3.745.287,3.94a2.859,2.859,0,0,0,1.185-.013c1.459-.169,1.485-2.132,1.485-2.132l.8-5.084c.573-.117,1.146-.234,1.707-.338l-1.72,5.8c-.248.819-.43,1.872,1.042,1.872,1.2.065,1.277-.689,1.277-.689.026-.117.977-3.173,1.211-4.265.157-.7.717-2.51.938-3.238.626-.117,1.1-.208,1.316-.247.261-.039.769-.13,1.433-.234-.013.676,0,1.612.013,1.742a44.78,44.78,0,0,0,.417,6.2c.065.325.2.741.612.741.5,0,.652-.052,1.173-.091,1.511-.13,1.238-1.651,1.146-2.613-.1-1.066-.208-1.963-.351-3.03a28.021,28.021,0,0,1-.209-3.394v-.026c2.475-.416,5.146-.871,5.537-.936.625-.169,1.146-.117,1.016-1.547ZM399.962,24.49c0,.013-.013.013-.013.026-1.733.377-3.361.741-4.273.949.912-1.521,4.924-7.06,5.537-7.711-.339,1.716-.886,4.9-1.251,6.735Zm10.005-2.185V22.4c-.833.156-1.615.312-2.24.429.794-2.054,1.628-4.577,2.123-5.851C409.811,17.924,410.006,21.369,409.967,22.306Zm-24.3-6.124c.261-.481.847-1.43.118-1.794a1.717,1.717,0,0,0-1.446-.117,2.161,2.161,0,0,0-.821.923l-2.788,4.382c-.456.624-.886,1.4-1.811,1.508-.612.065-1.055-.195-1.042-.741a4.8,4.8,0,0,1,.586-1.781c.73-1.378.821-1.846,1.524-3.212.678-1.313-1.537-1.612-2.084-.663-.391.676-1.146,1.95-1.316,2.38-.312.78-2.657,4.5-1.641,5.968,1.3,1.664,4.768-.962,3,2.067-1.433,2.432-2.332,3.823-3.582,6.072a4.688,4.688,0,0,0-.7,1.534c-.13.806.977.793,1.459.767a1.708,1.708,0,0,0,1.589-1.222c.183-.4.43-.9.613-1.3a86.755,86.755,0,0,1,5.55-10.142c1.029-1.638,1.941-3.043,2.8-4.629Z" transform="translate(0.133 0.937)" fill="#e8f5d1" fill-rule="evenodd"/>
  </g>
</svg>
