<svg xmlns="http://www.w3.org/2000/svg" width="71.523" height="70.307" viewBox="0 0 71.523 70.307">
  <g id="Group_9497" data-name="Group 9497" transform="translate(-5755.584 -10591.113)">
    <g id="Group_9497-2" data-name="Group 9497" transform="translate(5755.584 10591.113)">
      <path id="Path_5416" data-name="Path 5416" d="M186.8,432.478a9.689,9.689,0,1,0-19.312-.057h-18a9.512,9.512,0,0,0-3.585-8.3,9.332,9.332,0,0,0-6.807-2.1,9.764,9.764,0,0,0-8.861,10.423c-1.426,0-2.877.3-4.246-.287a3.29,3.29,0,0,1-2.09-3.18c-.033-3.324-.04-6.65,0-9.974a3.183,3.183,0,0,1,2.787-3.222c4.107-1.018,8.212-2.044,12.322-3.048a6.381,6.381,0,0,0,4.416-3.527c1.477-2.973,3-5.925,4.46-8.9a3.406,3.406,0,0,1,3.391-2.088c2.537.039,5.076,0,7.613.029a1.347,1.347,0,0,1,.947.421,22.61,22.61,0,0,0,4.986,4.878c.079.056.145.13.32.29-.349.019-.584.042-.82.042q-4.492,0-8.984,0a2.714,2.714,0,0,0-3.041,2.186c-.616,1.825-1.236,3.648-1.839,5.476a2.669,2.669,0,0,0,2.693,3.754q11.459.015,22.917,0a2.668,2.668,0,0,0,2.665-3.773c-.455-1.308-.93-2.609-1.351-3.788,1.913-.367,3.771-.739,5.638-1.06a.85.85,0,0,1,.679.351c.585.949,1.131,1.923,1.659,2.905a6.937,6.937,0,0,0,3.255,3.079c1.582.744,3.13,1.56,4.716,2.3a3.323,3.323,0,0,1,2.064,3.323c-.018,3.35,0,6.7-.009,10.05a3.526,3.526,0,0,1-3.733,3.8C190.036,432.5,188.417,432.478,186.8,432.478Z" transform="translate(-123.873 -367.969)" fill="#0081c6"/>
      <path id="Path_5417" data-name="Path 5417" d="M332.442,267.577a18.3,18.3,0,1,1-18.315-18.293A18.239,18.239,0,0,1,332.442,267.577Zm-11.149-5.6a5.3,5.3,0,0,0-1.071-1.211,1.378,1.378,0,0,0-1.729.348q-5.729,5.729-11.456,11.461a1.47,1.47,0,0,0-.08,2.224,1.508,1.508,0,0,0,2.175-.126q5.739-5.719,11.451-11.465A6.176,6.176,0,0,0,321.293,261.981Zm1.29,12.621a1.476,1.476,0,0,0-1.432-1.553,1.423,1.423,0,0,0-1.473,1.5,1.446,1.446,0,0,0,1.458,1.51A1.462,1.462,0,0,0,322.583,274.6Zm-13.962-14a1.365,1.365,0,0,0-1.405-1.464,1.456,1.456,0,1,0,1.405,1.464Z" transform="translate(-260.928 -249.285)" fill="#003a74"/>
      <path id="Path_5418" data-name="Path 5418" d="M170.031,536.528a6.635,6.635,0,1,1,6.568,6.715A6.654,6.654,0,0,1,170.031,536.528Z" transform="translate(-160.657 -472.946)" fill="#0081c6"/>
      <path id="Path_5419" data-name="Path 5419" d="M366.568,536.518a6.689,6.689,0,0,1-6.548,6.735,6.769,6.769,0,0,1-6.741-6.49,6.646,6.646,0,1,1,13.289-.246Z" transform="translate(-306.694 -472.947)" fill="#0081c6"/>
      <path id="Path_5420" data-name="Path 5420" d="M291.546,446.067H269.063c.583-1.735,1.133-3.415,1.726-5.08a.731.731,0,0,1,.572-.327c5.33-.017,10.66-.027,15.99,0a10.007,10.007,0,0,1,2.091.375.663.663,0,0,1,.4.36C290.415,442.913,290.957,444.437,291.546,446.067Z" transform="translate(-239.58 -401.785)" fill="#0081c6"/>
    </g>
  </g>
</svg>
