<svg xmlns="http://www.w3.org/2000/svg" width="62" height="62" viewBox="0 0 62 62">
  <g id="QR_Code" data-name="QR Code" transform="translate(-194 -1447.533)">
    <g id="Group_23559" data-name="Group 23559" transform="translate(-1 -4)">
      <g id="Ellipse_942" data-name="Ellipse 942" transform="translate(195 1451.533)" fill="none" stroke="#8c152a" stroke-width="1">
        <circle cx="31" cy="31" r="31" stroke="none"/>
        <circle cx="31" cy="31" r="30.5" fill="none"/>
      </g>
    </g>
    <path id="bullseye-svgrepo-com" d="M12.021,8A12.021,12.021,0,1,0,24.043,20.021,12.021,12.021,0,0,0,12.021,8Zm0,20.941a8.919,8.919,0,1,1,8.919-8.919A8.914,8.914,0,0,1,12.021,28.941Zm0-15.124a6.2,6.2,0,1,0,6.2,6.2A6.2,6.2,0,0,0,12.021,13.817Zm0,9.307a3.1,3.1,0,1,1,3.1-3.1A3.106,3.106,0,0,1,12.021,23.124Z" transform="translate(213 1458.533)" fill="#8c152a"/>
  </g>
</svg>
