<svg xmlns="http://www.w3.org/2000/svg" width="62" height="62" viewBox="0 0 62 62">
  <g id="Payment_links" data-name="Payment links" transform="translate(-198.998 -1455.531)">
    <g id="Ellipse_942" data-name="Ellipse 942" transform="translate(198.998 1455.531)" fill="none" stroke="#0d8b8b" stroke-width="1">
      <circle cx="31" cy="31" r="31" stroke="none"/>
      <circle cx="31" cy="31" r="30.5" fill="none"/>
    </g>
    <g id="Group_23872" data-name="Group 23872" transform="translate(-212.102 1414.731)">
      <path id="Path_18205" data-name="Path 18205" d="M458.5,89.89a6.978,6.978,0,1,1,7.037,6.966A7.007,7.007,0,0,1,458.5,89.89Zm3.233-.357a2.372,2.372,0,1,0,3.043,3.638,16.692,16.692,0,0,0,1.45-1.45,2.346,2.346,0,0,0-.309-3.376l-.333.333c.119.143.214.238.309.357a1.826,1.826,0,0,1,.024,2.306,12.731,12.731,0,0,1-1.5,1.5,1.69,1.69,0,0,1-1.926.214,1.774,1.774,0,0,1-1.07-1.593,1.9,1.9,0,0,1,.69-1.569C461.947,89.747,461.852,89.652,461.733,89.533Zm6.633.024c.071-.048.1-.048.119-.071a2.378,2.378,0,0,0,.143-3.3,2.335,2.335,0,0,0-3.3-.19c-.476.428-.927.88-1.379,1.355a2.343,2.343,0,0,0,.285,3.424c.1-.119.214-.214.309-.333a2.847,2.847,0,0,1-.262-.285,1.844,1.844,0,0,1,0-2.425c.428-.475.88-.927,1.331-1.355a1.828,1.828,0,0,1,2.14-.214,1.8,1.8,0,0,1,.88,2A5.472,5.472,0,0,1,468.1,89.3,1.336,1.336,0,0,1,468.366,89.557Z" transform="translate(-22.41 -17.608)" fill="#0d8b8b"/>
      <path id="Path_18206" data-name="Path 18206" d="M452.2,108.816h.5v7.037a1.763,1.763,0,0,0,1.926,1.926h15.62a1.763,1.763,0,0,0,1.926-1.926v-9.629a1.763,1.763,0,0,0-1.926-1.926h-2.068v-.5h2.187a2.236,2.236,0,0,1,2.306,2.306v9.843a3.543,3.543,0,0,1-.048.5,2.236,2.236,0,0,1-2.163,1.807H454.673a2.268,2.268,0,0,1-2.473-2.449v-6.99Z" transform="translate(-17.608 -33.539)" fill="#0d8b8b"/>
      <path id="Path_18207" data-name="Path 18207" d="M435.305,73.779v.5h-3.9a2.229,2.229,0,0,1-2.306-2.33V62.13a2.261,2.261,0,0,1,2.33-2.33h15.81a2.242,2.242,0,0,1,2.33,2.306v5.4h-.5V62.177a1.75,1.75,0,0,0-1.9-1.9H431.525a1.75,1.75,0,0,0-1.9,1.9V71.83a1.75,1.75,0,0,0,1.9,1.9H435A.606.606,0,0,0,435.305,73.779Z" transform="translate(0 0)" fill="#0d8b8b"/>
      <path id="Path_18208" data-name="Path 18208" d="M446.17,80.9v3.447H441.7V80.9Zm-3.97,2.948h3.447V81.4H442.2Z" transform="translate(-9.604 -16.084)" fill="#0d8b8b"/>
      <path id="Path_18209" data-name="Path 18209" d="M487.9,120.264v-.475a7.509,7.509,0,0,0,7.465-7.465c.1,0,.166-.024.238-.024h.214A7.9,7.9,0,0,1,487.9,120.264Z" transform="translate(-44.821 -40.018)" fill="#0d8b8b"/>
      <path id="Path_18210" data-name="Path 18210" d="M497.262,152.3v.452H487.8V152.3Z" transform="translate(-44.744 -70.509)" fill="#0d8b8b"/>
      <path id="Path_18211" data-name="Path 18211" d="M484.7,73.052V72.6h4.47v.452Z" transform="translate(-42.381 -9.757)" fill="#0d8b8b"/>
      <path id="Path_18212" data-name="Path 18212" d="M467.17,152.3v.452H462.7V152.3Z" transform="translate(-25.612 -70.509)" fill="#0d8b8b"/>
    </g>
  </g>
</svg>
