<svg xmlns="http://www.w3.org/2000/svg" width="20.32" height="18.814" viewBox="0 0 20.32 18.814">
  <g id="_1" data-name="1" transform="translate(-17.308 -35)">
    <path id="Path_5519" data-name="Path 5519" d="M24.628,38.068h12.1L29.54,42.994l-4.888-3.351a2.153,2.153,0,0,0-.025-1.575Zm-3.164,2.859,1.763-1.074a1.13,1.13,0,0,0,.391-1.529l-1.592-2.758a1.129,1.129,0,0,0-1.618-.365l-2.9,2c-1.382,4.87,4.829,15.412,9.592,16.613L30.278,52.3a1.129,1.129,0,0,0,.493-1.584l-1.592-2.758a1.13,1.13,0,0,0-1.52-.426l-1.812.99A17.259,17.259,0,0,1,21.463,40.927ZM37.6,38.7l-7.777,5.332a.51.51,0,0,1-.585-.007l-5.163-3.539a2.15,2.15,0,0,1-.321.239l-1.115.679a17.557,17.557,0,0,0,3.381,5.856l1.146-.626a2.153,2.153,0,0,1,2.894.812l.987,1.71H36.8a.828.828,0,0,0,.826-.826V38.893A.819.819,0,0,0,37.6,38.7Z" transform="translate(0 0)" fill="#002b57" fill-rule="evenodd"/>
  </g>
</svg>
