<svg xmlns="http://www.w3.org/2000/svg" width="62" height="62" viewBox="0 0 62 62">
  <g id="QR_Code" data-name="QR Code" transform="translate(-194 -1447.533)">
    <g id="Group_23559" data-name="Group 23559" transform="translate(-1 -4)">
      <g id="Ellipse_942" data-name="Ellipse 942" transform="translate(195 1451.533)" fill="none" stroke="#8c152a" stroke-width="1">
        <circle cx="31" cy="31" r="31" stroke="none"/>
        <circle cx="31" cy="31" r="30.5" fill="none"/>
      </g>
    </g>
    <g id="Group_23873" data-name="Group 23873" transform="translate(-225.295 1247.898)">
      <path id="Path_18213" data-name="Path 18213" d="M438.028,266.75c.028-.226.028-.452.057-.678a2.5,2.5,0,0,1,2.43-2.232,43.406,43.406,0,0,1,6.357.028,2.558,2.558,0,0,1,2.289,2.289,36.59,36.59,0,0,1,0,6.583,2.467,2.467,0,0,1-2.373,2.232,3.112,3.112,0,0,0-.509.057h-2.543c-.057,0-.141-.028-.2-.028-.9-.057-1.808-.113-2.684-.2a2.85,2.85,0,0,1-2.571-2.373c-.085-.593-.141-1.187-.2-1.78L438,269.293C438.028,268.417,438.028,267.6,438.028,266.75Zm8.872,2.656c-.057-.9-.085-1.865-.141-2.854,0-.2-.085-.283-.283-.283-.17,0-.339-.028-.509-.028-1.724,0-3.475-.028-5.2-.028-.2,0-.283.057-.283.283a37.383,37.383,0,0,0,.141,5.623c.028.2.085.254.283.283a32.983,32.983,0,0,0,5.538.141c.311-.028.339-.028.339-.339C446.844,271.3,446.872,270.366,446.9,269.406Z" transform="translate(0 -33.658)" fill="#8c152a"/>
      <path id="Path_18214" data-name="Path 18214" d="M438.028,222.556c.028-.452.057-.876.085-1.328a17.47,17.47,0,0,1,.2-1.752,2.88,2.88,0,0,1,2.543-2.373,37.519,37.519,0,0,1,5.905-.2,2.483,2.483,0,0,1,2.43,2.289,38.18,38.18,0,0,1,.057,5.4,10.972,10.972,0,0,1-.113,1.356,2.559,2.559,0,0,1-2.373,2.091,48.877,48.877,0,0,1-6.1.028,2.525,2.525,0,0,1-2.4-1.582,4.888,4.888,0,0,1-.2-.876c-.028-.141-.028-.254-.057-.4C438.028,224.336,438.028,223.46,438.028,222.556Zm5.594,3.193c.876-.028,1.808-.085,2.741-.113.367-.028.4-.028.424-.424.028-1.5.057-3,.085-4.464,0-.4-.028-.763-.057-1.158a.208.208,0,0,0-.226-.226c-.339,0-.678-.028-1.017-.057a36.1,36.1,0,0,0-4.634.2c-.17.028-.254.085-.254.254a32.649,32.649,0,0,0-.141,5.51c.028.4.028.4.424.424C441.814,225.692,442.69,225.721,443.623,225.749Z" transform="translate(0 -0.032)" fill="#8c152a"/>
      <path id="Path_18215" data-name="Path 18215" d="M490.8,228.147c-1.1-.057-2.232-.085-3.362-.17a2.533,2.533,0,0,1-2.289-2.289,38.735,38.735,0,0,1,0-6.527,2.5,2.5,0,0,1,2.373-2.289,35.728,35.728,0,0,1,6.018.2,2.94,2.94,0,0,1,2.543,2.571,37.409,37.409,0,0,1,.2,5.905,2.462,2.462,0,0,1-2.289,2.43C492.92,228.091,491.846,228.119,490.8,228.147Zm-.113-2.43,2.741-.085c.367,0,.367-.028.4-.367a32.646,32.646,0,0,0-.141-5.51.314.314,0,0,0-.311-.311,36.271,36.271,0,0,0-5.538-.141c-.226,0-.311.085-.339.311a45.685,45.685,0,0,0,.057,5.566c.028.339.028.367.4.367C488.851,225.632,489.784,225.689,490.688,225.717Z" transform="translate(-33.729)" fill="#8c152a"/>
      <path id="Path_18216" data-name="Path 18216" d="M492.86,269.379c.028.735.028,1.5.085,2.232a.854.854,0,0,0,.961.876c.65,0,1.328,0,1.978-.028a1.075,1.075,0,0,1,1.074,1.526,1.242,1.242,0,0,1-1.13.848c-.848.028-1.7.057-2.571.028a3.021,3.021,0,0,1-2.684-2.571,11.88,11.88,0,0,1-.141-1.752c-.028-.989-.028-2.006-.057-3a1.676,1.676,0,0,0-.141-.65.8.8,0,0,0-.791-.537c-.509,0-1.017-.028-1.5-.028a1.236,1.236,0,0,1-1.243-1.243,1.2,1.2,0,0,1,1.271-1.187,16.785,16.785,0,0,1,2.063.085,3.27,3.27,0,0,1,2.712,2.684,1.2,1.2,0,0,1,.057.311c.057.791.085,1.582.113,2.4Z" transform="translate(-34.94 -33.772)" fill="#8c152a"/>
      <path id="Path_18217" data-name="Path 18217" d="M488.7,281.678c.028.509.057,1.271.085,2.034a1.247,1.247,0,0,1-.48,1.074,1.16,1.16,0,0,1-1.865-.706,12.549,12.549,0,0,1-.113-1.78c-.028-1.13-.028-2.232-.028-3.362a1.145,1.145,0,0,1,.848-1.074,1.236,1.236,0,0,1,1.3.367,1.333,1.333,0,0,1,.283.848C488.673,279.841,488.7,280.6,488.7,281.678Z" transform="translate(-34.653 -43.754)" fill="#8c152a"/>
      <path id="Path_18218" data-name="Path 18218" d="M511.9,265.679c.028-.367.028-.735.056-1.1a.729.729,0,0,1,.678-.678c.735-.028,1.441-.057,2.176-.028a.757.757,0,0,1,.706.791v1.808a.86.86,0,0,1-.9.9c-.593.028-1.187.028-1.808.028a.816.816,0,0,1-.876-.876c0-.283,0-.565-.028-.848Z" transform="translate(-53.02 -33.745)" fill="#8c152a"/>
      <path id="Path_18219" data-name="Path 18219" d="M514.5,281.954a4.44,4.44,0,0,1,.113-.65,1.252,1.252,0,0,1,1.328-.819,1.055,1.055,0,0,1,.989.876,3.09,3.09,0,0,1-.057,1.017,1.253,1.253,0,0,1-1.413.848A1.15,1.15,0,0,1,514.5,281.954Z" transform="translate(-54.885 -45.669)" fill="#8c152a"/>
      <path id="Path_18220" data-name="Path 18220" d="M453.853,277.8c.283.028.593.028.876.057a.784.784,0,0,1,.791.763c.028.593.028,1.187.028,1.78a.706.706,0,0,1-.706.735c-.593,0-1.158,0-1.752-.028a.766.766,0,0,1-.791-.763c-.028-.593-.057-1.187-.028-1.78,0-.452.283-.678.735-.735.113,0,.226-.028.339-.028Z" transform="translate(-10.23 -43.748)" fill="#8c152a"/>
      <path id="Path_18221" data-name="Path 18221" d="M455.576,232.611c-.028.283-.028.593-.056.876a.743.743,0,0,1-.763.763c-.593.028-1.187.028-1.78.028a.667.667,0,0,1-.706-.706c-.028-.593,0-1.187.028-1.78a.76.76,0,0,1,.763-.763c.593-.028,1.215-.028,1.808-.028a.657.657,0,0,1,.65.65c0,.141.028.283.028.4a4.181,4.181,0,0,1,.028.565Z" transform="translate(-10.23 -10.171)" fill="#8c152a"/>
      <path id="Path_18222" data-name="Path 18222" d="M499,232.6c0-.226.028-.537.028-.848a.657.657,0,0,1,.65-.65c.593,0,1.215,0,1.808.028a.76.76,0,0,1,.763.763c.028.593.057,1.187.028,1.78a.667.667,0,0,1-.706.706c-.593.028-1.187,0-1.78-.028a.8.8,0,0,1-.763-.763C499.028,233.276,499,232.965,499,232.6Z" transform="translate(-43.765 -10.243)" fill="#8c152a"/>
    </g>
  </g>
</svg>
