<svg xmlns="http://www.w3.org/2000/svg" width="78.699" height="60.254" viewBox="0 0 78.699 60.254">
  <g id="Group_9495" data-name="Group 9495" transform="translate(-5962.707 -10492.458)">
    <path id="Path_5408" data-name="Path 5408" d="M293.651,426.375c-.2,1.028-.485,2.258-.685,3.5a20.121,20.121,0,0,0,.5,8.465A3.666,3.666,0,0,1,291.531,443q-4.361,2.485-8.742,4.94a3.715,3.715,0,0,1-5.7-2.168,38.289,38.289,0,0,1,.021-26.116,3.69,3.69,0,0,1,5.6-2.144c3.05,1.726,6.074,3.5,9.106,5.263A3.862,3.862,0,0,1,293.651,426.375Z" transform="translate(5687.904 10098.579)" fill="#0081c6"/>
    <path id="Path_5409" data-name="Path 5409" d="M330.149,432.8a39.47,39.47,0,0,1-2.362,13.213,3.677,3.677,0,0,1-5.466,2.063c-3.068-1.754-6.113-3.55-9.147-5.364a3.549,3.549,0,0,1-1.66-4.16,20.912,20.912,0,0,0-.01-11.558,3.5,3.5,0,0,1,1.644-4.092q4.644-2.8,9.329-5.523a3.667,3.667,0,0,1,5.445,2.095A40.984,40.984,0,0,1,330.149,432.8Z" transform="translate(5711.256 10098.526)" fill="#0081c6"/>
    <path id="Path_5410" data-name="Path 5410" d="M300.421,411.922c0-1.69.054-3.381-.015-5.068a3.986,3.986,0,0,1,4.9-3.9,39.942,39.942,0,0,1,22.576,13.37,3.449,3.449,0,0,1-.833,5.315q-4.6,2.707-9.217,5.392a3.622,3.622,0,0,1-4.933-.629,20.932,20.932,0,0,0-9.393-5.469,3.79,3.79,0,0,1-3.088-4.105C300.418,415.195,300.421,413.557,300.421,411.922Z" transform="translate(5704.26 10089.598)" fill="#0081c6"/>
    <path id="Path_5411" data-name="Path 5411" d="M308.33,411.959c0,1.69.01,3.379,0,5.069a3.589,3.589,0,0,1-2.9,3.81,22.033,22.033,0,0,0-9.876,5.731,3.5,3.5,0,0,1-4.556.575q-4.484-2.6-8.94-5.241c-2.373-1.414-2.743-3.788-.931-5.869a39.248,39.248,0,0,1,22.56-13.092,3.8,3.8,0,0,1,4.635,3.709C308.362,408.42,308.329,410.19,308.33,411.959Z" transform="translate(5691.214 10089.599)" fill="#0081c6"/>
    <path id="Path_5412" data-name="Path 5412" d="M301.791,439.258c-3.243-.141-5.7-1.554-7-4.569a7.254,7.254,0,0,1,1.332-8.165,6.853,6.853,0,0,1,2.327-1.588c4.892-2.149,9.815-4.228,14.727-6.334a1.006,1.006,0,0,1,1.346.284,1.674,1.674,0,0,1,.239,1.287c-2.147,5.094-4.3,10.186-6.561,15.23C306.995,438.1,304.61,439.1,301.791,439.258Zm1.78-7.645a1.629,1.629,0,1,0-1.595,1.7A1.63,1.63,0,0,0,303.571,431.613Z" transform="translate(5700.229 10099.571)" fill="#003a74"/>
    <path id="Path_5413" data-name="Path 5413" d="M304.383,440.579q-6.254,0-12.51,0a3.5,3.5,0,0,1-.788-.036,1.111,1.111,0,0,1-.933-1.2,1.073,1.073,0,0,1,.955-1.167,6.08,6.08,0,0,1,.947-.046q12.351,0,24.7,0c1.306,0,1.9.4,1.9,1.252s-.547,1.2-1.922,1.2Z" transform="translate(5697.71 10112.13)" fill="#003a74"/>
    <path id="Path_5414" data-name="Path 5414" d="M302.839,436.4q-4.157,0-8.317,0a5.5,5.5,0,0,1-.788-.034,1.219,1.219,0,0,1,.062-2.417c.683-.046,1.373-.016,2.06-.018q7.8,0,15.6,0c1.065,0,1.568.48,1.485,1.382-.069.733-.515,1.078-1.472,1.083-2.244.011-4.489,0-6.733,0Z" transform="translate(5699.339 10109.44)" fill="#003a74"/>
  </g>
</svg>
