<svg xmlns="http://www.w3.org/2000/svg" width="62" height="62" viewBox="0 0 62 62">
  <g id="Smart_Route" data-name="Smart Route" transform="translate(-195.187 -1451.72)">
    <g id="Ellipse_942" data-name="Ellipse 942" transform="translate(195.187 1451.72)" fill="none" stroke="#44379d" stroke-width="1">
      <circle cx="31" cy="31" r="31" stroke="none"/>
      <circle cx="31" cy="31" r="30.5" fill="none"/>
    </g>
    <g id="Group_23875" data-name="Group 23875" transform="translate(-228.498 1003.409)">
      <path id="Path_18228" data-name="Path 18228" d="M448.6,477.613h3.453v7.733a2.584,2.584,0,0,0,5.165.114c.029-.656,0-1.341,0-2V473.276a6.051,6.051,0,0,1,12.1-.029v7.733h-3.453v-7.7a2.612,2.612,0,0,0-1.855-2.54,2.576,2.576,0,0,0-3.31,2.426c-.029,1.284,0,2.568,0,3.824v8.333a6.042,6.042,0,0,1-12.042.742,5.559,5.559,0,0,1-.057-.713v-7.733Z" transform="translate(-4.288)" fill="#44379d"/>
      <path id="Path_18229" data-name="Path 18229" d="M446.053,474.206a3.453,3.453,0,1,1,3.453-3.453A3.441,3.441,0,0,1,446.053,474.206Z" transform="translate(0 -0.074)" fill="#44379d"/>
      <path id="Path_18230" data-name="Path 18230" d="M510.077,531.353a3.439,3.439,0,1,1-3.424-3.453A3.478,3.478,0,0,1,510.077,531.353Z" transform="translate(-43.307 -43.381)" fill="#44379d"/>
    </g>
  </g>
</svg>
