<svg xmlns="http://www.w3.org/2000/svg" width="114.917" height="57.893" viewBox="0 0 114.917 57.893">
  <g id="smile" transform="translate(324.943 -187.92)">
    <path id="Path_18238" data-name="Path 18238" d="M-324.943,229.979c2.6-1.611,4.753-.118,6.933,1.024a73.389,73.389,0,0,0,33.919,8.838c18.515.085,34.764-6.482,48.615-18.747A85.02,85.02,0,0,0-216.8,197.913c.237-.436.536-.84.816-1.253,1.031-1.525,2.043-3.409,4.289-2.251,2.393,1.234,1.811,3.213.775,5.131a92.7,92.7,0,0,1-19.87,25.384c-15.474,13.782-33.516,21.354-54.467,20.867-14.246-.331-27.334-4.922-39.681-11.817Z" fill="#dee965"/>
    <path id="Path_18239" data-name="Path 18239" d="M-278.9,204.192c-.023,4.808-3.289,7.968-8.159,7.9a7.829,7.829,0,0,1-7.9-8.275,8.027,8.027,0,0,1,8.04-7.775A7.841,7.841,0,0,1-278.9,204.192Z" fill="#dee965"/>
    <path id="Path_18240" data-name="Path 18240" d="M-252.978,187.921a7.779,7.779,0,0,1,7.9,7.827A8.495,8.495,0,0,1-253,203.836a7.924,7.924,0,0,1-8.035-8.323C-260.968,191.057-257.593,187.875-252.978,187.921Z" fill="#dee965"/>
  </g>
</svg>
