<svg id="comma" xmlns="http://www.w3.org/2000/svg" width="80" height="59.066" viewBox="0 0 80 59.066">
  <path id="Path_5261" data-name="Path 5261" d="M0,57.9H19.4c-.332-14.141-4.343-15.747-9.38-16.2l-1.943-.241V25.9l2.239.12c6.578.37,13.851,1.556,18.7,7.546,4.253,5.251,6.128,13.829,6.128,27v24.4H0Z" transform="translate(0 -25.905)" fill="#022d2d"/>
  <path id="Path_5262" data-name="Path 5262" d="M111,84.971V57.9h19.145c-.332-14.141-4.213-15.747-9.251-16.2l-1.813-.241V25.9l2.11.12c6.578.37,13.916,1.556,18.768,7.546,4.253,5.251,6.193,13.829,6.193,27v24.4Z" transform="translate(-66.152 -25.905)" fill="#022d2d"/>
</svg>
