<svg xmlns="http://www.w3.org/2000/svg" width="62" height="62" viewBox="0 0 62 62">
  <g id="Instant_Settlement" data-name="Instant Settlement" transform="translate(-196 -1449.533)">
    <g id="Group_23559" data-name="Group 23559" transform="translate(1.453 -1.547)">
      <g id="Ellipse_942" data-name="Ellipse 942" transform="translate(194.547 1451.08)" fill="none" stroke="#cc9a00" stroke-width="1">
        <circle cx="31" cy="31" r="31" stroke="none"/>
        <circle cx="31" cy="31" r="30.5" fill="none"/>
      </g>
    </g>
    <g id="medal-ribbon-star-svgrepo-com" transform="translate(213 1466.533)">
      <path id="Path_18293" data-name="Path 18293" d="M13.541,19.081A8.541,8.541,0,1,0,5,10.541,8.541,8.541,0,0,0,13.541,19.081Zm0-12.2c-.347,0-.578.416-1.042,1.248l-.12.215a1.341,1.341,0,0,1-.3.432,1.251,1.251,0,0,1-.486.165l-.233.053c-.9.2-1.35.306-1.458.65s.2.7.814,1.421l.159.186a1.348,1.348,0,0,1,.3.432,1.407,1.407,0,0,1,0,.534l-.024.248c-.093.958-.139,1.436.141,1.649s.7.019,1.545-.369l.218-.1a1.249,1.249,0,0,1,.486-.165,1.249,1.249,0,0,1,.486.165l.218.1c.843.388,1.264.582,1.545.369s.234-.692.141-1.649l-.024-.248a1.407,1.407,0,0,1,0-.534,1.349,1.349,0,0,1,.3-.432l.159-.186c.614-.718.921-1.077.814-1.421s-.557-.446-1.458-.65l-.233-.053A1.251,1.251,0,0,1,15,8.775a1.341,1.341,0,0,1-.3-.432l-.12-.215C14.119,7.3,13.887,6.88,13.541,6.88Z" transform="translate(0)" fill="#cc9a00" fill-rule="evenodd"/>
      <path id="Path_18294" data-name="Path 18294" d="M7.334,15.941l-.462,1.686c-.767,2.8-1.15,4.194-.638,4.96a1.856,1.856,0,0,0,.7.626c.8.405,2.026-.235,4.484-1.516a5.072,5.072,0,0,1,1.662-.686,2.282,2.282,0,0,1,.485,0,5.072,5.072,0,0,1,1.662.686c2.459,1.281,3.688,1.922,4.485,1.516a1.856,1.856,0,0,0,.7-.626c.512-.765.128-2.164-.638-4.96l-.462-1.686a10.375,10.375,0,0,1-11.974,0Z" transform="translate(0.22 3.068)" fill="#cc9a00"/>
    </g>
  </g>
</svg>
