<svg xmlns="http://www.w3.org/2000/svg" width="99.819" height="67.619" viewBox="0 0 99.819 67.619">
  <g id="Group_9503" data-name="Group 9503" transform="translate(-5638.735 -11235.502)">
    <path id="Path_5429" data-name="Path 5429" d="M163.86,364.019H119.591c-3.719,0-5.591-1.854-5.591-5.537q0-28.272,0-56.543c0-3.685,1.871-5.538,5.589-5.538h88.638c3.715,0,5.591,1.857,5.591,5.536q0,28.272,0,56.543c0,3.681-1.876,5.54-5.589,5.54Zm.049-3.22h44.274c1.982,0,2.416-.434,2.416-2.417q0-28.174,0-56.348c0-1.983-.431-2.413-2.417-2.413H119.633c-1.986,0-2.414.428-2.414,2.415q0,28.174,0,56.348c0,1.984.431,2.415,2.416,2.415Z" transform="translate(5524.736 10939.103)" fill="#0081c6"/>
    <path id="Path_5431" data-name="Path 5431" d="M249.734,356H240.2V320.707h9.535Z" transform="translate(5432.4 10921.317)" fill="#003a74"/>
    <path id="Path_5432" data-name="Path 5432" d="M144.261,320.571h6.318v51.391h-6.318Z" transform="translate(5502.594 10921.417)" fill="#003a74"/>
    <path id="Path_5433" data-name="Path 5433" d="M432.258,320.574h6.319v51.392h-6.319Z" transform="translate(5291.876 10921.414)" fill="#003a74"/>
    <path id="Path_5434" data-name="Path 5434" d="M210.517,355.909H204.2V320.582h6.313Z" transform="translate(5458.736 10921.409)" fill="#003a74"/>
    <path id="Path_5435" data-name="Path 5435" d="M312.178,355.971V320.688H318.5v35.283Z" transform="translate(5379.734 10921.332)" fill="#003a74"/>
    <path id="Path_5436" data-name="Path 5436" d="M402.509,355.989h-6.322V320.7h6.322Z" transform="translate(5318.268 10921.325)" fill="#003a74"/>
    <path id="Path_5437" data-name="Path 5437" d="M180.251,320.58h3.1v35.291h-3.1Z" transform="translate(5476.261 10921.411)" fill="#003a74"/>
    <path id="Path_5438" data-name="Path 5438" d="M288.154,355.961V320.666h3.12v35.295Z" transform="translate(5397.313 10921.348)" fill="#003a74"/>
    <path id="Path_5439" data-name="Path 5439" d="M348.259,320.573h3.1v35.291h-3.1Z" transform="translate(5353.336 10921.415)" fill="#003a74"/>
    <path id="Path_5440" data-name="Path 5440" d="M375.287,355.987h-3.1V320.7h3.1Z" transform="translate(5335.831 10921.326)" fill="#003a74"/>
    <path id="Path_5441" data-name="Path 5441" d="M219.592,470.889c0,.6.025,1.207,0,1.809a4.822,4.822,0,0,1-9.632.014c-.052-1.238-.05-2.48,0-3.718a4.822,4.822,0,0,1,9.632-.014C219.619,469.615,219.591,470.252,219.592,470.889Zm-6.422-.133c0,.6-.04,1.21.009,1.81a1.579,1.579,0,0,0,1.6,1.493,1.561,1.561,0,0,0,1.578-1.514c.052-1.137.054-2.281,0-3.418a1.555,1.555,0,0,0-1.6-1.492,1.582,1.582,0,0,0-1.581,1.513C213.133,469.68,213.169,470.219,213.17,470.756Z" transform="translate(5454.556 10816.176)" fill="#0081c6"/>
    <path id="Path_5442" data-name="Path 5442" d="M357.61,470.879c0,.57.017,1.139,0,1.708a4.823,4.823,0,0,1-9.641.033c-.038-1.171-.035-2.346,0-3.517a4.823,4.823,0,0,1,9.642-.033C357.629,469.672,357.61,470.276,357.61,470.879Zm-3.229.006a14.887,14.887,0,0,0-.014-1.809,1.589,1.589,0,0,0-3.165.02,29.828,29.828,0,0,0,.006,3.518,1.487,1.487,0,0,0,1.537,1.437,1.559,1.559,0,0,0,1.627-1.457C354.425,472.029,354.382,471.455,354.381,470.885Z" transform="translate(5353.569 10816.176)" fill="#0081c6"/>
    <path id="Path_5443" data-name="Path 5443" d="M252.187,467.614V464.4c2.218,0,4.39-.06,6.556.024a1.575,1.575,0,0,1,1.212,2.407c-.614,1.374-1.321,2.71-1.867,4.109a17.5,17.5,0,0,0-.829,3.1c-.192,1.015-.245,2.056-.367,3.158h-3.125a22.263,22.263,0,0,1,2.19-9.583Z" transform="translate(5423.629 10816.195)" fill="#0081c6"/>
    <path id="Path_5444" data-name="Path 5444" d="M395.028,477.243h-3.182a22.218,22.218,0,0,1,2.15-9.567H390.28v-3.239c2.192,0,4.393-.056,6.588.025a1.523,1.523,0,0,1,1.279,2.078,2.028,2.028,0,0,1-.148.373A21.149,21.149,0,0,0,395.028,477.243Z" transform="translate(5322.59 10816.17)" fill="#0081c6"/>
    <path id="Path_5445" data-name="Path 5445" d="M183.406,467.661h-3.2V464.5c1.7,0,3.428-.079,5.143.035a1.425,1.425,0,0,1,1.236,1.6c.008,3.68,0,7.36,0,11.122h-3.18Z" transform="translate(5476.297 10816.127)" fill="#0081c6"/>
    <path id="Path_5446" data-name="Path 5446" d="M288.167,467.68v-3.225c1.7,0,3.4-.069,5.082.029a1.415,1.415,0,0,1,1.3,1.543c.018,3.711.008,7.422.008,11.2h-3.2V467.68Z" transform="translate(5397.303 10816.158)" fill="#0081c6"/>
    <path id="Path_5447" data-name="Path 5447" d="M324.657,477.265h-3.194v-9.583H318.3v-3.229c1.66,0,3.356-.068,5.041.029a1.414,1.414,0,0,1,1.3,1.54C324.668,469.735,324.657,473.446,324.657,477.265Z" transform="translate(5375.253 10816.159)" fill="#0081c6"/>
  </g>
</svg>
