<svg xmlns="http://www.w3.org/2000/svg" width="62" height="62" viewBox="0 0 62 62">
  <g id="Payment_links" data-name="Payment links" transform="translate(-198.998 -1455.531)">
    <g id="Ellipse_942" data-name="Ellipse 942" transform="translate(198.998 1455.531)" fill="none" stroke="#0d8b8b" stroke-width="1">
      <circle cx="31" cy="31" r="31" stroke="none"/>
      <circle cx="31" cy="31" r="30.5" fill="none"/>
    </g>
    <g id="eye-5-svgrepo-com" transform="translate(217.998 1400.746)">
      <path id="Path_18291" data-name="Path 18291" d="M24.852,85.307a1.053,1.053,0,0,0-.057-.177,2.118,2.118,0,0,0-.109-.216,11.458,11.458,0,0,0-.7-1.031A28.013,28.013,0,0,0,22.1,81.616a16.411,16.411,0,0,0-2.426-2.2,15.8,15.8,0,0,0-3.551-1.952,10.328,10.328,0,0,0-7.368,0A15.8,15.8,0,0,0,5.2,79.416,19.723,19.723,0,0,0,1.748,82.79c-.477.576-.88,1.108-1.17,1.522-.146.208-.262.385-.352.535-.045.076-.083.144-.12.22A1.27,1.27,0,0,0,.05,85.2a.941.941,0,0,0-.03.105.837.837,0,0,0,0,.367,1.027,1.027,0,0,0,.057.177,2.077,2.077,0,0,0,.109.215,11.449,11.449,0,0,0,.7,1.031,27.913,27.913,0,0,0,1.888,2.268,16.411,16.411,0,0,0,2.426,2.2,15.8,15.8,0,0,0,3.551,1.952,10.328,10.328,0,0,0,7.368,0,15.822,15.822,0,0,0,3.551-1.952,19.725,19.725,0,0,0,3.454-3.374c.477-.576.88-1.108,1.17-1.522.146-.208.262-.385.352-.535.045-.076.083-.144.12-.22a1.327,1.327,0,0,0,.056-.135.934.934,0,0,0,.03-.1.836.836,0,0,0,0-.367ZM21.4,87.785a16.557,16.557,0,0,1-2.643,2.5,14.25,14.25,0,0,1-3.194,1.763,8.754,8.754,0,0,1-6.262,0,14.249,14.249,0,0,1-3.194-1.763A18.278,18.278,0,0,1,2.96,87.188c-.451-.545-.832-1.048-1.093-1.421-.073-.1-.134-.2-.187-.276A22.838,22.838,0,0,1,3.468,83.2a16.578,16.578,0,0,1,2.643-2.5,14.26,14.26,0,0,1,3.194-1.763,8.754,8.754,0,0,1,6.262,0A14.249,14.249,0,0,1,18.762,80.7a18.3,18.3,0,0,1,3.151,3.093c.451.545.832,1.049,1.093,1.421.073.1.134.2.187.276A22.894,22.894,0,0,1,21.4,87.785Z" fill="#004141"/>
      <path id="Path_18292" data-name="Path 18292" d="M147.25,141.7a5.553,5.553,0,1,0,5.553,5.553A5.553,5.553,0,0,0,147.25,141.7Zm0,8.131a2.578,2.578,0,1,1,.8-5.027l-.361,1.106a.839.839,0,0,0,.95,1.087l1.143-.211a2.569,2.569,0,0,1-2.533,3.046Z" transform="translate(-134.813 -61.759)" fill="#004141"/>
    </g>
  </g>
</svg>
