<svg xmlns="http://www.w3.org/2000/svg" width="19.116" height="13.424" viewBox="0 0 19.116 13.424">
  <g id="youtube" transform="translate(-487.268 -4138.436)">
    <path id="youtube-svgrepo-com" d="M22.721,8.483a2.389,2.389,0,0,0-1.7-1.708,57.871,57.871,0,0,0-7.467-.394,57.872,57.872,0,0,0-7.467.394,2.389,2.389,0,0,0-1.7,1.708A25.411,25.411,0,0,0,4,13.095a25.59,25.59,0,0,0,.394,4.635,2.389,2.389,0,0,0,1.7,1.673,57.862,57.862,0,0,0,7.467.394,57.861,57.861,0,0,0,7.467-.394,2.389,2.389,0,0,0,1.7-1.673,25.59,25.59,0,0,0,.394-4.635A25.4,25.4,0,0,0,22.721,8.483ZM11.6,15.95V10.263L16.6,13.095,11.6,15.938Z" transform="translate(483.268 4132.059)" fill="#e8f5d1"/>
  </g>
</svg>
